<?xml version="1.0" encoding="utf-8"?><svg width="240" height="240" viewBox="0 0 240 240" xmlns="http://www.w3.org/2000/svg" xmlns:xlink="http://www.w3.org/1999/xlink"><svg width="120" height="120" aria-label="Sociéte générale" viewBox="0 0 120 120" id="banque" xmlns="http://www.w3.org/2000/svg"><path d="M0 0h120.009v61.502H0z" fill="#e60028"/><path d="M0 59.806h120.009v60.225H0z"/><path d="M20.833 56.452h78.035v7.21H20.833z" fill="#fff" stroke-width=".454"/></svg><svg width="120" height="120" viewBox="0 0 120 120" id="creditcoop" x="120" xmlns="http://www.w3.org/2000/svg"><path d="M109.4 52.1c.644 3.22 1.449 9.43-1.702 15.41-1.495 2.99-3.68 5.75-6.44 8.28-1.357 1.242-2.76 2.3-4.37 3.45-.759.552-1.794 1.702-1.794 1.702l.053 1.403c.099 3.68.023 7.59-.414 11.27-.391 3.68-1.403 7.59-3.68 10.58-.552.759-1.265 1.495-2.277 1.978-1.012.552-2.53.322-3.22-.368-1.472-1.472-2.116-2.53-3.22-3.91-1.863-2.3-3.45-4.6-5.06-6.44-1.127-1.426-2.185-2.76-3.22-4.14-.506-.644-.99-1.242-1.45-1.84l-.39-.506c.067.028.276.007.276.005 1.449 1.886 2.99 4.14 4.83 6.44 1.702 2.185 3.68 4.6 5.52 7.13l1.564 1.978c.437.667 1.426 1.679 2.76 1.748 2.76-.148 3.91-2.3 4.83-3.91-.69 1.058-1.403 2.139-2.53 2.99-1.012.966-2.99 1.08-4.14-.021-1.633-1.978-2.76-3.68-4.14-5.52-1.61-2.185-3.22-4.14-4.6-6.21l8.51 10.58s2.76 4.37 6.67-3.68c2.3-5.06 2.23-15.64 1.817-20.93 9.66-5.98 15.64-14.03 14.26-23 .23-1.104.39-2.76.131-5.06-.08-1.15-1.449-4.37-2.53-6.21-.067-.14-.143-.276-.216-.414a18.191 18.191 0 00-.713-1.702c-.23-.736.805.69 1.403 1.242-1.955-3.91-2.024-4.14-.805-2.76-.506-.897-1.012-1.794-1.058-1.794.253.15.874.667.897.667-2.76-4.83-7.36-9.66-13.11-11.96-.216-.09-.437-.173-.644-.253a22.05 22.05 0 01.805-1.771c.552-1.035 1.38-2.76 1.702-4.37.299-1.357.713-3.22.117-5.75-.299-1.288-1.472-3.22-3.45-3.91-2-.69-3.22-.17-4.14.064-.92.3-2.07.851-2.99 1.403-1.058.575-2.162 1.518-2.76 2.116-1.38 2.53-.69 2.3-.782 3.45-.759 2.53-.175 5.06.874 7.59-3.45-.23-5.75-.027-5.52.391-6.21.108-7.36.713-13.57 1.978-4.14.966-8.74 2.53-13.34 4.83-.575.3-1.127.598-1.725.943l-.23.136-.062.044-.01.004c-.112 2.99.69 1.702 1.266 2.99l.037-.009.108-.023.437-.092.897-.18c1.219-.23 2.53-.436 3.68-.643 2.53-.391 5.06-.736 7.59-.99 5.52-.597 10.81-.781 16.33-.505.437.023.828.048 1.265.076.013.598.032 1.173.057 1.748.276 5.29.805 10.12 2.3 14.95.391 1.196.874 2.3 1.472 3.68.621.966 1.426 2.99 4.14 2.99 2.3-.483 2.99-2.185 3.68-2.99l1.886-2.99c2.3-3.68 4.6-7.36 6.67-11.27.53.39 1.035.828 1.495 1.288.69.92 1.311 1.886 1.886 2.99.221.128.46.276.782.713.46.966 1.012 1.886 1.426 2.76 2.53 7.36-2.254 15.18-8.74 20.24-2.76 2.23-5.75 4.14-8.97 5.98.966-2.3 1.242-5.29.506-7.82-.713-2.53-2.07-5.75-5.52-6.67-3.68-.713-5.98 1.656-7.82 3.45-1.909 1.932-3.22 5.52-1.77 8.28 1.218 2.76 3.45 4.37 5.52 5.98.551.368 1.126.69 1.701 1.012.076.034.131.064.189.092-2.3.897-4.37 1.748-6.9 2.162-4.83.989-9.89.736-14.49-.276-4.83-1.035-9.43-2.76-13.57-5.06 0 0-1.15-.966-2.231.85l.437.507c.437.46.874.92 1.31 1.357.898.874 1.84 1.679 2.76 2.53a36.336 36.336 0 006.21 3.91c4.37 2.208 8.97 3.45 13.8 3.91 1.174.087 2.3.115 3.45.076.576-.01 1.15-.033 1.726-.086l.322-.025.037.046c1.38 1.748 2.76 3.45 4.14 5.06 2.76 3.45 5.29 6.67 7.82 9.89l.92 1.196a4.377 4.377 0 001.84 1.38c1.702.69 3.45-.216 4.37-1.035 1.77-1.77 2.53-3.45 3.45-5.52 1.38-3.91 1.656-7.59 1.886-11.27.09-1.77.126-3.45.117-5.06l-.048-2.53-.033-.713s9.2-6.9 11.73-11.27c2.53-4.37 3.22-8.51 3.22-11.27-.105-2.185-.644-4.14-1.265-6.21" fill="#646567"/><path d="M5.9 33.7a15.18 15.18 0 001.265 1.633 13.64 13.64 0 01-1.012-2.001c1.587 2.139 4.14 4.14 5.98 4.83 0 .002.005.002.01.005a.766.766 0 00-.143.345c0 .145.62.437.828.759.041.096-.175.188-.3.322.369.15.323.345.109.437.08.05.165.099.165.099-.046.046-.18.186-.18.186.875.575 1.749 1.449 2.99 1.587.058.009.123.016.203.018-.828.667-1.058 1.15-2.139 2.07-1.748 1.495-3.91 3.45-5.75 5.75-.989 1.242-1.886 2.53-2.76 3.68-.322.483-.575.99-.828 1.45-1.357 2.53-2.3 5.06-2.76 7.82-.184 1.31-.23 2.53-.076 3.91l.076.505.049.276c.013.053.018.085.036.157l.01.023c1.403-.667 1.15.108 2.07.197l.004-.004.01-.02.022-.045.437-.736.943-1.495c2.3-3.68 5.06-7.13 8.51-10.58l.943 2.162c.53 1.265 1.127 2.53 1.564 3.68.483 1.334 1.035 2.76 1.794 3.91.713 1.081 1.91 2.76 3.91 2.3 2.99-1.633 3.45-4.6 4.6-6.9a38.784 38.784 0 001.633-7.36c.276-2.3.322-4.6.217-6.9 0 0-.217-1.426-.08-1.702 0 0 1.38-.598 2.138-.897 2.99-1.288 5.29-2 6.67-2.3.46-.253.92-.483 1.38-.713-1.725.21-5.29 1.288-8.97 2.99l-1.357.667-.276.322c.108 1.012.166 2.024.193 2.99a36.779 36.779 0 01-.202 5.06c.147-1.518.103-3.22.014-5.29-.062 2.162-.194 4.14-.506 5.75.299-3.91-.037-7.13-.322-8.97 5.06-2.76 10.81-5.06 17.71-6.44 0 0-2.53-1.31-6.67-1.54.099-.13.135-.254.062-.392-.122-.179-2.047-.253-2.99-.437-.212-.066.253-.276.46-.483-1.15.067-1.242-.124-.782-.345-.276-.002-.552.019-.552.014l.253-.276c-2.99-.018-6.44.414-9.2 1.725-.575.253-1.472.805-2.047 1.196-.3.18-1.012.414-1.265.53-.345.367-.193.528-.276.781-.322.124-.69.276-1.104.483.032-.322-.053-.575.046-1.035-.019-1.518-.276-2.139-.506-3.22-.17-.575-.3-1.127-.483-1.679l-.207-.598c-.76-2.024-1.68-3.68-3.22-5.06-1.518-1.357-3.68-2.024-5.98-1.61-2.093.483-4.37.92-5.75 2.76-1.357 2.208-.085 4.6.805 5.98 2.024 3.22 4.37 4.83 5.52 5.52l.713.065c-1.334-.92-4.83-3.68-5.75-5.52" fill="#d11242" stroke-width=".43"/></svg><svg width="120" height="120" viewBox="0 0 600 600" id="operateur" y="120" xmlns="http://www.w3.org/2000/svg"><defs><radialGradient id="ca" cx="458.39" cy="-32.368" r="11.48" gradientTransform="matrix(-1.3719 -.01611 .0177 -1.5074 1089.8 -82.022)" gradientUnits="userSpaceOnUse"><stop stop-color="#ee0004" offset="0"/><stop stop-color="#eb0004" offset=".531"/><stop stop-color="#b30009" offset="1"/></radialGradient></defs><path transform="matrix(26.1338 0 0 26.1338 -11624.313 1240.39)" fill="url(#ca)" d="M444.82-47.466h22.96v22.96h-22.96z"/><path d="M195.178 274.789c-22.024-6.167-24.612-17.77-24.612-25.296 0-14.4 11.169-24.016 31.257-24.016 13.863 0 26.105 5.906 35.022 17.744l24.195-14.112c-11.745-17.221-29.896-31.568-59.296-31.568-34.683 0-63.14 21.559-63.14 53.363 0 31.228 26.862 45.498 55.555 53.573 0 0 13.183 3.789 13.287 3.815 24.612 6.507 26.523 17.587 26.523 27.203 0 17.56-18.413 28.405-34.369 28.405-16.688 0-29.845-5.461-40.593-24.46l-24.195 14.372c15.668 26.916 34.474 37.867 64.92 37.867 33.61 0 66.07-25.61 66.07-57.596 0-37.866-30.76-48.554-57.386-55.453-.078-.052-13.235-3.841-13.235-3.841m304.756 10.192c27.673 0 36.306-11.812 36.306-29.477 0-11.655-5.258-26.185-35.259-26.185h-35.258v55.662h34.211zm38.266 102.31l-41.51-74.635h-30.97v74.634h-30.55V201.93h68.556c27.595 0 64.397 7.736 64.397 53.86 0 31.387-16.296 45.864-41.955 52.631l48.26 78.87h-36.228zm-242.154 0V201.93h113.414v29.321h-82.89v50.75h71.328v28.747h-71.328v76.544H296.05z" fill="#fff"/></svg><svg version="1.0" width="120" height="120" viewBox="0 0 368 368" id="telecoop" x="120" y="120" xmlns="http://www.w3.org/2000/svg"><g fill="#00e164"><path d="M163 .6c-29.3 3.6-57.4 14.1-82.5 30.8-16.8 11.2-37.9 32.3-49.1 49.1C9.8 112.9 0 145.5 0 184.3c.1 35.9 9.1 68 27.5 97.2 8 12.7 12.6 18.6 24 30.4 29.1 30.1 65.5 48.7 106.8 54.6 13.1 1.9 38.3 1.9 51.4 0 41.3-5.9 77.7-24.5 106.8-54.6 11.4-11.8 16-17.7 24-30.4 18.4-29.2 27.4-61.3 27.5-97.2 0-38.8-9.8-71.4-31.4-103.8-11.2-16.8-32.3-37.9-49.1-49.1-21.2-14.1-43.8-23.6-68.1-28.5-8.7-1.7-15.1-2.2-31.9-2.4C176 .3 164.9.4 163 .6zm74.1 93.3c21.7 6.7 22.9 7.4 22.9 15 0 5.3-4.8 16.4-7.5 17.4-3.5 1.4-7.2.5-39.9-10-2.6-.8-5.7-2.4-6.7-3.4-3.5-3.5-1.9-14.9 3.1-22 3-4.1 5.6-3.9 28.1 3zm-108.9 12.7c19.8 6.1 23.2 7.5 24.2 9.9 1.1 3.1.6 8.5-1.4 13.6-2.5 6.7-5.5 9.9-9.3 9.9-2.8 0-35.8-10-40.7-12.3-4.1-2-5.4-5.9-3.9-12 2.3-9.9 5.7-14.6 10.6-14.7 1.1 0 10.4 2.5 20.5 5.6zm123.2 26.9c12.8 3.3 25.6 12.5 32.4 23.3 7.5 11.6 9.6 29.4 5.3 43.3-5 15.7-17.8 28.8-33.3 33.8-2.6.9-3.8 1.9-3.8 3.1 0 1-1.8 5.4-4.1 9.9-5.9 11.8-15 20.6-27.2 26.5-10.9 5.2-16.8 6.6-28.5 6.6-21.6 0-33.3-8.6-27.7-20.4 3.2-6.7 7.3-7.6 22.3-4.6 10 2 20.8-.8 30-7.8 3-2.3 9.2-9.8 9.2-11.3 0-.3-2.7-1.6-5.9-2.8-3.3-1.2-8.7-4.1-12-6.6-16.6-12.2-24.7-32.1-20.8-51.5 2.2-11.6 5.8-18.2 14.1-26.6 13.9-14 32.4-19.5 50-14.9zm-108.3 20.1c31.9 9.4 47.6 43.7 33.5 73.1-18.9 39.4-75.2 39.3-94.7-.2-8-16.2-6.8-36.6 3.1-50.9 6.8-9.9 20.9-20 31.6-22.5 6.5-1.5 20.5-1.2 26.5.5z"/><path d="M232.6 167.5c-8.2 2.9-12.2 9.6-11.4 19.2.5 6.3 2.8 9.8 8.4 13.1 5.8 3.4 14.9 2.8 20.1-1.4 11.9-9.5 8.7-27.4-5.5-31.4-4.8-1.3-6.8-1.2-11.6.5zM121.5 187.8c-12.7 6.1-14.4 21.7-3.3 30.5 8.5 6.8 22.2 3.5 27.4-6.5 1.9-3.7 1.8-12.2-.3-16.5-3.6-7.7-15.5-11.4-23.8-7.5z"/></g></svg></svg>