<svg width="120" height="120" version="1.1" viewBox="0 0 120 120" xmlns="http://www.w3.org/2000/svg" xmlns:xlink="http://www.w3.org/1999/xlink"><defs><linearGradient id="e" x1="27.8" x2="27.8" y2="64.1" gradientTransform="scale(2.14 .468)" gradientUnits="userSpaceOnUse"><stop stop-color="#F4D87E" offset="0"/><stop stop-color="#F5C52C" offset="1"/></linearGradient><filter id="c" x="-.035" y="-.16" width="1.07" height="1.39"><feOffset dy="2" in="SourceAlpha" result="shadowOffsetOuter1"/><feGaussianBlur in="shadowOffsetOuter1" result="shadowBlurOuter1" stdDeviation="2"/><feColorMatrix in="shadowBlurOuter1" values="0 0 0 0 0 0 0 0 0 0 0 0 0 0 0 0 0 0 0.5 0"/></filter><rect id="a" width="120" height="120" rx="28"/><path id="d" d="M-9 0h137v30H-9z"/><mask id="b" fill="#fff"><use xlink:href="#a"/></mask></defs><g fill-rule="evenodd"><g mask="url(#b)"><use width="100%" height="100%" fill="#000000" filter="url(#c)" xlink:href="#d"/><use width="100%" height="100%" fill="url(#e)" xlink:href="#d"/></g><path d="m0 59h120v2h-120zm0 30h120v2h-120z" fill="#c7c5c9" mask="url(#b)"/><g fill="#c2c0c4" mask="url(#b)"><g transform="translate(0,35)"><circle cx="11.5" cy="1.5" r="1.5"/><circle cx="16.5" cy="1.5" r="1.5"/><circle cx="21.5" cy="1.5" r="1.5"/><circle cx="26.5" cy="1.5" r="1.5"/><circle cx="31.5" cy="1.5" r="1.5"/><circle cx="36.5" cy="1.5" r="1.5"/><circle cx="41.5" cy="1.5" r="1.5"/><circle cx="46.5" cy="1.5" r="1.5"/><circle cx="51.5" cy="1.5" r="1.5"/><circle cx="56.5" cy="1.5" r="1.5"/><circle cx="61.5" cy="1.5" r="1.5"/><circle cx="66.5" cy="1.5" r="1.5"/><circle cx="71.5" cy="1.5" r="1.5"/><circle cx="76.5" cy="1.5" r="1.5"/><circle cx="81.5" cy="1.5" r="1.5"/><circle cx="86.5" cy="1.5" r="1.5"/><circle cx="91.5" cy="1.5" r="1.5"/><circle cx="96.5" cy="1.5" r="1.5"/><circle cx="102" cy="1.5" r="1.5"/><circle cx="106" cy="1.5" r="1.5"/><circle cx="112" cy="1.5" r="1.5"/><circle cx="116" cy="1.5" r="1.5"/><circle cx="6.5" cy="1.5" r="1.5"/><circle cx="1.5" cy="1.5" r="1.5"/></g></g></g></svg>
