<svg width="1e3px" height="1e3px" version="1.1" viewBox="0 0 1e3 1e3" xmlns="http://www.w3.org/2000/svg"><rect width="1e3" height="1e3" fill="#5865f2"/><path d="m711 306a502 502 0 0 0-124-38 2 2 0 0 0-2 1 350 350 0 0 0-15 32 464 464 0 0 0-139 0 321 321 0 0 0-15-32 2 2 0 0 0-2-1 501 501 0 0 0-124 38 1 1 0 0 0-0.8 0.7c-78 118-101 233-90 346a2 2 0 0 0 0.8 1 505 505 0 0 0 152 77 2 2 0 0 0 2-0.7 360 360 0 0 0 31-51 2 2 0 0 0-1-2 333 333 0 0 1-48-23 2 2 0 0 1-0.2-4c4-2 6-5 10-7a2 2 0 0 1 2-0.2c100 45 208 45 306 0a2 2 0 0 1 2 0.2c4 2 6 5 10 7a2 2 0 0 1-0.1 4 312 312 0 0 1-48 23 2 2 0 0 0-1 2 406 406 0 0 0 31 51 2 2 0 0 0 2 0.7 503 503 0 0 0 152-77 2 2 0 0 0 0.8-1c13-131-21-245-90-346a1 1 0 0 0-0.7-0.7zm-312 278c-30 0-55-27-55-62s24-62 55-62 55 27 55 62c0.02 33-24 62-55 62zm202 0c-30 0-55-27-55-62s24-62 55-62 55 27 55 62c0.01 33-24 62-55 62z" fill="#fff"/></svg>
