<svg width="240px" height="240px" version="1.1" viewBox="0 0 48 48" xmlns="http://www.w3.org/2000/svg"><path d="m43.6 20.1h-1.61v-0.083h-18v8h11.3c-1.65 4.66-6.08 8-11.3 8-6.63 0-12-5.37-12-12s5.37-12 12-12c3.06 0 5.84 1.15 7.96 3.04l5.66-5.66c-3.57-3.33-8.35-5.38-13.6-5.38-11 0-20 8.96-20 20s8.96 20 20 20 20-8.96 20-20c0-1.34-0.138-2.65-0.389-3.92z" fill="#fbc02d"/><path d="m6.31 14.7 6.57 4.82c1.78-4.4 6.08-7.51 11.1-7.51 3.06 0 5.84 1.15 7.96 3.04l5.66-5.66c-3.57-3.33-8.35-5.38-13.6-5.38-7.68 0-14.3 4.34-17.7 10.7z" fill="#e53935"/><path d="m24 44c5.17 0 9.86-1.98 13.4-5.19l-6.19-5.24c-2.01 1.52-4.5 2.43-7.22 2.43-5.2 0-9.62-3.32-11.3-7.95l-6.52 5.02c3.31 6.48 10 10.9 17.8 10.9z" fill="#4caf50"/><path d="m43.6 20.1-0.016-0.083h-1.6-18v8h11.3c-0.792 2.24-2.23 4.17-4.09 5.57 1e-3 -1e-3 2e-3 -1e-3 3e-3 -2e-3l6.19 5.24c-0.438 0.398 6.59-4.81 6.59-14.8 0-1.34-0.138-2.65-0.389-3.92z" fill="#1565c0"/></svg>
