<?xml version="1.0" encoding="UTF-8"?>
<svg xmlns="http://www.w3.org/2000/svg" xmlns:xlink="http://www.w3.org/1999/xlink" width="120" height="120" viewBox="0 0 120 120" version="1.1">
<g id="surface1">
<path style=" stroke:none;fill-rule:nonzero;fill:rgb(0%,51.372552%,17.647059%);fill-opacity:1;" d="M 46.5 78 L 25.5 78 L 25.5 93 C 25.5 96.3125 28.1875 99 31.5 99 L 46.5 99 Z M 46.5 78 "/>
<path style=" stroke:none;fill-rule:nonzero;fill:rgb(100%,72.941178%,0%);fill-opacity:1;" d="M 46.5 12 L 31.5 12 C 28.1875 12 25.5 14.6875 25.5 18 L 25.5 78 L 46.5 78 L 46.5 33 L 67.5 33 L 67.5 12 Z M 46.5 12 "/>
<path style=" stroke:none;fill-rule:nonzero;fill:rgb(0%,40.000001%,85.490197%);fill-opacity:1;" d="M 88.5 78 L 67.5 78 L 67.5 99 L 82.5 99 C 85.8125 99 88.5 96.3125 88.5 93 Z M 88.5 78 "/>
<path style=" stroke:none;fill-rule:nonzero;fill:rgb(0%,67.450982%,27.843139%);fill-opacity:1;" d="M 67.5 78 L 46.5 78 L 46.5 99 L 67.5 99 Z M 67.5 78 "/>
<path style=" stroke:none;fill-rule:nonzero;fill:rgb(14.901961%,51.764709%,98.823529%);fill-opacity:1;" d="M 67.5 33 L 67.5 78 L 88.5 78 L 88.5 33 Z M 67.5 33 "/>
<path style=" stroke:none;fill-rule:nonzero;fill:rgb(91.764706%,26.274511%,20.784314%);fill-opacity:1;" d="M 67.5 12 L 67.5 33 L 88.5 33 Z M 67.5 12 "/>
</g>
</svg>
