<?xml version="1.0" encoding="UTF-8"?>
<svg xmlns="http://www.w3.org/2000/svg" xmlns:xlink="http://www.w3.org/1999/xlink" width="120" height="120" viewBox="0 0 120 120" version="1.1">
<g id="surface1">
<path style=" stroke:none;fill-rule:nonzero;fill:rgb(43.921569%,23.921569%,70.588237%);fill-opacity:1;" d="M 91.199219 112.800781 L 28.800781 112.800781 C 24.824219 112.800781 21.601562 109.578125 21.601562 105.601562 L 21.601562 14.398438 C 21.601562 10.421875 24.824219 7.199219 28.800781 7.199219 L 72 7.199219 L 98.398438 33.601562 L 98.398438 105.601562 C 98.398438 109.578125 95.175781 112.800781 91.199219 112.800781 Z M 91.199219 112.800781 "/>
<path style=" stroke:none;fill-rule:nonzero;fill:rgb(32.549021%,16.862746%,52.549022%);fill-opacity:1;" d="M 72 7.199219 L 98.398438 33.601562 L 72 33.601562 Z M 72 7.199219 "/>
<path style=" stroke:none;fill-rule:nonzero;fill:rgb(100%,100%,100%);fill-opacity:1;" d="M 81.601562 54 L 50.398438 54 L 50.398438 48 L 81.601562 48 Z M 81.601562 62.398438 L 50.398438 62.398438 L 50.398438 68.398438 L 81.601562 68.398438 Z M 81.601562 76.800781 L 50.398438 76.800781 L 50.398438 82.800781 L 81.601562 82.800781 Z M 40.800781 48 C 39.472656 48 38.398438 49.074219 38.398438 50.398438 C 38.398438 51.726562 39.472656 52.800781 40.800781 52.800781 C 42.125 52.800781 43.199219 51.726562 43.199219 50.398438 C 43.199219 49.074219 42.125 48 40.800781 48 Z M 40.800781 62.398438 C 39.472656 62.398438 38.398438 63.472656 38.398438 64.800781 C 38.398438 66.125 39.472656 67.199219 40.800781 67.199219 C 42.125 67.199219 43.199219 66.125 43.199219 64.800781 C 43.199219 63.472656 42.125 62.398438 40.800781 62.398438 Z M 40.800781 76.800781 C 39.472656 76.800781 38.398438 77.875 38.398438 79.199219 C 38.398438 80.527344 39.472656 81.601562 40.800781 81.601562 C 42.125 81.601562 43.199219 80.527344 43.199219 79.199219 C 43.199219 77.875 42.125 76.800781 40.800781 76.800781 Z M 40.800781 76.800781 "/>
</g>
</svg>
