<?xml version="1.0" encoding="UTF-8"?>
<svg xmlns="http://www.w3.org/2000/svg" xmlns:xlink="http://www.w3.org/1999/xlink" width="120" height="120" viewBox="0 0 120 120" version="1.1">
<g id="surface1">
<path style=" stroke:none;fill-rule:nonzero;fill:rgb(5.490196%,41.568628%,87.843138%);fill-opacity:1;" d="M 101.25 56.25 L 78.75 56.25 C 76.679688 56.25 75 54.570312 75 52.5 L 75 41.25 C 75 32.964844 81.714844 26.25 90 26.25 C 98.285156 26.25 105 32.964844 105 41.25 L 105 52.5 C 105 54.570312 103.320312 56.25 101.25 56.25 Z M 82.5 48.75 L 97.5 48.75 L 97.5 41.25 C 97.5 37.109375 94.140625 33.75 90 33.75 C 85.859375 33.75 82.5 37.109375 82.5 41.25 Z M 82.5 48.75 "/>
<path style=" stroke:none;fill-rule:nonzero;fill:rgb(84.705883%,88.235295%,93.725491%);fill-opacity:1;" d="M 78.75 86.25 C 76.679688 86.25 75 84.570312 75 82.5 L 75 63.75 C 75 61.679688 73.320312 60 71.25 60 L 18.75 60 C 12.535156 60 7.5 65.035156 7.5 71.25 L 7.5 82.5 C 7.5 88.714844 12.535156 93.75 18.75 93.75 L 78.75 93.75 C 80.820312 93.75 82.5 92.070312 82.5 90 C 82.5 87.929688 80.820312 86.25 78.75 86.25 Z M 78.75 86.25 "/>
<path style=" stroke:none;fill-rule:nonzero;fill:rgb(1.960784%,57.647061%,100%);fill-opacity:1;" d="M 29.4375 71.8125 C 29.097656 71.449219 28.621094 71.246094 28.125 71.246094 C 27.628906 71.246094 27.152344 71.449219 26.8125 71.8125 L 24.375 74.210938 L 21.9375 71.8125 C 21.210938 71.085938 20.039062 71.085938 19.3125 71.8125 C 18.585938 72.539062 18.585938 73.710938 19.3125 74.4375 L 21.710938 76.875 L 19.3125 79.3125 C 18.585938 80.039062 18.585938 81.210938 19.3125 81.9375 C 20.039062 82.664062 21.210938 82.664062 21.9375 81.9375 L 24.375 79.539062 L 26.8125 81.9375 C 27.539062 82.664062 28.710938 82.664062 29.4375 81.9375 C 30.164062 81.210938 30.164062 80.039062 29.4375 79.3125 L 27.039062 76.875 L 29.4375 74.4375 C 29.800781 74.097656 30.003906 73.621094 30.003906 73.125 C 30.003906 72.628906 29.800781 72.152344 29.4375 71.8125 Z M 29.4375 71.8125 "/>
<path style=" stroke:none;fill-rule:nonzero;fill:rgb(1.960784%,57.647061%,100%);fill-opacity:1;" d="M 44.4375 71.8125 C 44.097656 71.449219 43.621094 71.246094 43.125 71.246094 C 42.628906 71.246094 42.152344 71.449219 41.8125 71.8125 L 39.375 74.210938 L 36.9375 71.8125 C 36.210938 71.085938 35.039062 71.085938 34.3125 71.8125 C 33.585938 72.539062 33.585938 73.710938 34.3125 74.4375 L 36.710938 76.875 L 34.3125 79.3125 C 33.585938 80.039062 33.585938 81.210938 34.3125 81.9375 C 35.039062 82.664062 36.210938 82.664062 36.9375 81.9375 L 39.375 79.539062 L 41.8125 81.9375 C 42.539062 82.664062 43.710938 82.664062 44.4375 81.9375 C 45.164062 81.210938 45.164062 80.039062 44.4375 79.3125 L 42.039062 76.875 L 44.4375 74.4375 C 44.800781 74.097656 45.003906 73.621094 45.003906 73.125 C 45.003906 72.628906 44.800781 72.152344 44.4375 71.8125 Z M 44.4375 71.8125 "/>
<path style=" stroke:none;fill-rule:nonzero;fill:rgb(1.960784%,57.647061%,100%);fill-opacity:1;" d="M 57.039062 76.875 L 59.4375 74.4375 C 60.164062 73.710938 60.164062 72.539062 59.4375 71.8125 C 58.710938 71.085938 57.539062 71.085938 56.8125 71.8125 L 54.375 74.210938 L 51.9375 71.8125 C 51.210938 71.085938 50.039062 71.085938 49.3125 71.8125 C 48.585938 72.539062 48.585938 73.710938 49.3125 74.4375 L 51.710938 76.875 L 49.3125 79.3125 C 48.585938 80.039062 48.585938 81.210938 49.3125 81.9375 C 50.039062 82.664062 51.210938 82.664062 51.9375 81.9375 L 54.375 79.539062 L 56.8125 81.9375 C 57.539062 82.664062 58.710938 82.664062 59.4375 81.9375 C 60.164062 81.210938 60.164062 80.039062 59.4375 79.3125 Z M 57.039062 76.875 "/>
<path style=" stroke:none;fill-rule:nonzero;fill:rgb(1.960784%,57.647061%,100%);fill-opacity:1;" d="M 78.75 48.75 L 101.25 48.75 C 107.464844 48.75 112.5 53.785156 112.5 60 L 112.5 82.5 C 112.5 88.714844 107.464844 93.75 101.25 93.75 L 78.75 93.75 C 72.535156 93.75 67.5 88.714844 67.5 82.5 L 67.5 60 C 67.5 53.785156 72.535156 48.75 78.75 48.75 Z M 78.75 48.75 "/>
<path style=" stroke:none;fill-rule:nonzero;fill:rgb(5.490196%,41.568628%,87.843138%);fill-opacity:1;" d="M 97.5 67.5 C 97.011719 64.035156 94.195312 61.371094 90.710938 61.074219 C 87.222656 60.777344 83.996094 62.929688 82.929688 66.261719 C 81.863281 69.589844 83.242188 73.21875 86.25 75 L 86.25 78.75 C 86.25 80.820312 87.929688 82.5 90 82.5 C 92.070312 82.5 93.75 80.820312 93.75 78.75 L 93.75 75 C 96.410156 73.496094 97.894531 70.53125 97.5 67.5 Z M 97.5 67.5 "/>
</g>
</svg>
