<svg width="63mm" height="63mm" clip-rule="evenodd" fill-rule="evenodd" version="1.1" viewBox="0 0 238 238" xmlns="http://www.w3.org/2000/svg"><linearGradient id="a" x2="1" gradientTransform="matrix(-129 -129 129 -129 342 265)" gradientUnits="userSpaceOnUse"><stop stop-color="#130036" offset="0"/><stop stop-color="#18023b" offset=".2"/><stop stop-color="#26094a" offset=".5"/><stop stop-color="#3d1563" offset=".8"/><stop stop-color="#4e1d75" offset="1"/></linearGradient><linearGradient id="b" x2="1" gradientTransform="matrix(38 0 0 38 188 179)" gradientUnits="userSpaceOnUse"><stop stop-color="#3156a8" offset="0"/><stop stop-color="#3351a4" offset=".2"/><stop stop-color="#3b4397" offset=".5"/><stop stop-color="#472c82" offset=".8"/><stop stop-color="#4e1d75" offset="1"/></linearGradient><radialGradient id="c" cx="0" cy="0" r="1" gradientTransform="matrix(69 0 0 100 228 194)" gradientUnits="userSpaceOnUse"><stop stop-color="#14cdda" offset="0"/><stop stop-color="#14cdda" offset=".2"/><stop stop-color="#2061bd" offset=".6"/><stop stop-color="#2658ac" offset=".6"/><stop stop-color="#373f81" offset=".9"/><stop stop-color="#432d62" offset="1"/></radialGradient><linearGradient id="d" x2="1" gradientTransform="matrix(119 0 0 119 216 149)" gradientUnits="userSpaceOnUse"><stop stop-color="#2061bd" offset="0"/><stop stop-color="#2b51ac" offset=".2"/><stop stop-color="#442c84" offset=".7"/><stop stop-color="#4e1d75" offset=".9"/><stop stop-color="#4e1d75" offset="1"/></linearGradient><linearGradient id="e" x2="1" gradientTransform="matrix(82 71 -71 82 234 120)" gradientUnits="userSpaceOnUse"><stop stop-color="#48a8e0" offset="0"/><stop stop-color="#48a8e0" offset=".02"/><stop stop-color="#2061bd" offset=".4"/><stop stop-color="#2b51ac" offset=".5"/><stop stop-color="#442c84" offset=".8"/><stop stop-color="#4e1d75" offset=".9"/><stop stop-color="#4e1d75" offset="1"/></linearGradient><linearGradient id="f" x2="1" gradientTransform="matrix(160 -238 238 160 196 375)" gradientUnits="userSpaceOnUse"><stop stop-color="#3156a8" offset="0"/><stop stop-color="#3156a8" offset=".4"/><stop stop-color="#4e1d75" offset="1"/></linearGradient><linearGradient id="g" x2="1" gradientTransform="matrix(89 -199 199 89 258 327)" gradientUnits="userSpaceOnUse"><stop stop-color="#29abe2" offset="0"/><stop stop-color="#385aa6" offset=".8"/><stop stop-color="#414293" offset=".9"/><stop stop-color="#4e1d75" offset="1"/></linearGradient><linearGradient id="h" x2="1" gradientTransform="matrix(5 3 -3 5 219 176)" gradientUnits="userSpaceOnUse"><stop stop-color="#b0dcd6" offset="0"/><stop stop-color="#53ace0" offset="1"/></linearGradient><linearGradient id="i" x2="1" gradientTransform="matrix(-10 -2 2 -10 323 120)" gradientUnits="userSpaceOnUse"><stop stop-color="#3092b9" stop-opacity=".1" offset="0"/><stop stop-color="#258db6" stop-opacity=".1" offset=".2"/><stop stop-color="#1685b1" stop-opacity=".1" offset=".7"/><stop stop-color="#1082af" stop-opacity=".1" offset="1"/></linearGradient><linearGradient id="j" x2="1" gradientTransform="matrix(8 32 -32 8 245 132)" gradientUnits="userSpaceOnUse"><stop stop-color="#1398d1" stop-opacity="0" offset="0"/><stop stop-color="#1398d1" stop-opacity="0" offset=".01"/><stop stop-color="#1187c2" stop-opacity=".6" offset=".2"/><stop stop-color="#3f6499" stop-opacity=".7" offset=".6"/><stop stop-color="#2f4282" stop-opacity=".5" offset="1"/></linearGradient><linearGradient id="k" x2="1" gradientTransform="matrix(-4 -3 3 -4 239 161)" gradientUnits="userSpaceOnUse"><stop stop-color="#f9c21b" offset="0"/><stop stop-color="#f3ba1b" offset=".2"/><stop stop-color="#e3a41b" offset=".4"/><stop stop-color="#c9801c" offset=".7"/><stop stop-color="#a44e1c" offset="1"/><stop stop-color="#a34c1c" offset="1"/></linearGradient><linearGradient id="l" x2="1" gradientTransform="matrix(-30 -67 67 -30 347 207)" gradientUnits="userSpaceOnUse"><stop stop-color="#409ec3" offset="0"/><stop stop-color="#2061bd" offset=".6"/><stop stop-color="#2061bd" offset="1"/></linearGradient><linearGradient id="m" x2="1" gradientTransform="matrix(-21 -66 66 -21 323 185)" gradientUnits="userSpaceOnUse"><stop stop-color="#14b2da" offset="0"/><stop stop-color="#297ccc" offset=".4"/><stop stop-color="#256fc5" offset=".5"/><stop stop-color="#2164bf" offset=".6"/><stop stop-color="#2061bd" offset=".8"/><stop stop-color="#2061bd" offset="1"/></linearGradient><g transform="translate(-161 -81)"><path d="m333 130c-12-8-27-10-35-11-9-0.9-17-0.8-23 0.2-0.6-8e-3 -1-0.03-2-0.03l-1 0.02 0.3-0.4s-0.4 0.06-1 0.4c-2 0.04-4 0.1-7 0.3l5-5s-3 0.4-8 5c-3 0.2-5 0.5-7 0.9 6-8 11-11 11-11s-7-1-18 10l-3 3c-32 8-56 29-56 53 0 5-1 10 0.1 15-0.6 8 0.7 32 0.7 32s9 47 43 56c0.5 0.1-7-12-10-26 7 7 14 12 23 13 1 0.1-5-7-10-16l77 26c40-17 35-16 44-25 19-21 22-32 17-67-3-23-20-46-39-54z" fill="url(#a)"/><path d="m198 152-11 65 6 20 127 42 24-100z" fill="#fbfbfb"/><path d="m199 154c0.6 1 0.4 2 0.05 2-0.2 0-0.4-0.07-0.6-0.1-0.2-0.06-0.4-0.1-0.5-0.1-0.4 0-0.2 0.5 2 3 3 4 44 66 46 66l0.03-5e-3c19-7 101-35 101-35l-8-12z" fill="#999"/><path d="m200 153s0.6 3 3 7c3 4 41 61 43 61 25-7 115-42 115-42z" fill="#f8f8f8"/><path d="m316 278-120-40 0.4 3 121 40z" fill="#999"/><path d="m227 150s-44 13-24 58c0 0-9-8-15-19-0.2-0.5 9-34 9-34z" fill="url(#b)"/><path d="m203 208c-4-0.07-10-3-12-7-2 41 14 66 41 78-9-1-52-24-52-79 0-47 37-89 96-91 0.4 3-29 9-30 12-1 5-5 10-8 14-4 6 5 11-1 12-10 2-24 1-33 14-15 19-5 42-0.3 46z" fill="url(#c)"/><path d="m291 110c-38-3-57 12-70 30-5 6-4 12-2 19 0.7 3 1 4 0.5 8-0.5 2-0.4 3-0.9 4-0.8 1-2 3-2 5-0.8 6 1 8 3 10 2-2 6-7 13-9 7-3 11-7 20-11 12-6 26 3 52-6 8-3 27-30 31-31-12-14-33-19-44-19z" fill="url(#d)"/><path d="m266 102s-7 3-10 9c7-3 11-5 13-6 0 0-2 0.9-4 6 4-1 5-2 6-2 0 0-0.3 0.5-0.6 5-6-2-18 0.3-24 4-2-11 19-17 19-17z" fill="#3f6499"/><path d="m293 109c-12-2-21-1-30 0.4l6-4c-4 0.3-9 3-13 6-2 0.7-4 1-6 2 1-2 3-3 4-4 5-5 12-7 12-7-6-0.5-27 5-39 30-2 2-4 5-6 8-5 7-4 13-3 20 0.7 3 0.8 8 0.1 11-0.1 0.6-2 2-2 7-0.5 5 1 7 3 9 6-9 12-10 12-10 8-3 12-7 21-12 12-6 55 14 82 5 8-3-3-38 1-39-13-14-31-20-42-22z" fill="url(#e)"/><path d="m378 185c-7-35-39-67-65-69-12-0.8-8 5-15 7-31 10-32 15-32 15 66 3 67 68 49 85 5-1 10-7 15-17-0.6 4-1 9-2 14-2 17 0.7 52-47 75 0 0 26-2 39-17-5 12-20 19-20 19 11-2 39-10 57-32 20-25 26-49 20-81z" fill="url(#f)"/><path d="m314 249s21-6 28-18c-0.8 13-13 27-13 27s18-4 25-16c-1 11-15 27-15 27 14-3 49-25 38-84-7-35-39-67-65-69-12-0.8-8 5-15 7-31 10-32 15-32 15 66 3 83 38 49 84 5-1 7-4 11-8-2e-3 0 2 18-12 35z" fill="url(#g)"/><path d="m229 171s-4 3-7 2c-3-0.8-4-4-4-4-0.07 0.6-0.2 1-0.3 2-0.1 0.6-2 2-2 7-0.5 5 1 8 3 9 6-9 12-11 12-11-2-0.8-2-5-2-5z" fill="url(#h)"/><path d="m312 117c0.9-0.2 5 0.2 7 1s7 3 3 4c-3 0.8-5-0.5-7-2-2-1-6-3-3-3z" fill="url(#i)"/><path d="m229 170s21-35 40-44c2-0.9-26 7-38 20-7 7-3 22-2 24z" fill="url(#j)"/><path d="m229 170 0.06-0.04c5-3 15-5 18-11 12-23 22-32 22-32-19 9-40 44-40 44z" fill="#f2f2f2" fill-opacity=".1"/><path d="m231 164s-4-6 2-11c3-3 7-1 8-0.7 2 2 0.8 7-1 9-1 1-4 4-8 3z" fill="#2f4282"/><path d="m234 164s-3-4 1-8c2-2 5-0.9 5-0.5 1 1 0.5 5-0.8 6-0.8 1-3 3-6 2z" fill="url(#k)"/><path d="m239 160c-0.06 2-1 3-3 3-2-0.06-3-1-3-3 0.06-2 1-3 3-3 2 0.06 3 1 3 3z"/><circle cx="234" cy="159" r=".9" fill="#fff"/><path d="m365 154c-14-22-26-27-26-27s0.5 16 8 24c0.9 0.9-10-7-10-7s-2 7 3 16c-1-2-2-3-2-3s-10 4-12 11c-1-3-3-4-3-4s-7 13-6 29c1 25-5 34-5 34s16-6 24-26c3 9-0.1 18-0.1 18s13-10 16-28c3 5 2 15 2 15s8-12 9-24c4 3 4 13 4 13s12-16-3-39z" fill="url(#l)"/><path d="m351 139c-4-7-10-11-16-15-15-9-24-10-24-10s-13 2-11 6c0.1 0.2 0.4 0.4 0.8 0.7-12-5-18 7-18 7-7-0.4-15 3-17 12-0.2 0.9 3 0.4 5 0.8 10 2 19 7 23 9 10 5 16 14 19 21 4 8 6 22 6 22s11-15 8-22c4 3 5 12 5 12s7-11 5-21c6 3 6 10 6 10s6-8 3-21c6 4 7 10 7 10s5-12-0.5-22z" fill="url(#m)"/></g><g fill="none"><rect x="-150" y="-184" width="579" height="515"/><rect x="-78" y="45" width="269" height="155"/><rect x="141" y="64" width="289" height="266"/></g></svg>
