<svg width="120" height="120" enable-background="new 0 0 160.75 58.422" version="1.1" viewBox="0 0 120 120" xml:space="preserve" xmlns="http://www.w3.org/2000/svg">
<g transform="matrix(2.3 0 0 2.3 -254 8.4)"><path d="m158 19c0.28 1.4 0.63 4.1-0.74 6.7-0.65 1.3-1.6 2.5-2.8 3.6-0.59 0.54-1.2 1-1.9 1.5-0.33 0.24-0.78 0.74-0.78 0.74l0.023 0.61c0.043 1.6 0.01 3.3-0.18 4.9-0.17 1.6-0.61 3.3-1.6 4.6-0.24 0.33-0.55 0.65-0.99 0.86-0.44 0.24-1.1 0.14-1.4-0.16-0.64-0.64-0.92-1.1-1.4-1.7-0.81-1-1.5-2-2.2-2.8-0.49-0.62-0.95-1.2-1.4-1.8-0.22-0.28-0.43-0.54-0.63-0.8l-0.17-0.22c0.029 0.012 0.12 3e-3 0.12 2e-3 0.63 0.82 1.3 1.8 2.1 2.8 0.74 0.95 1.6 2 2.4 3.1l0.68 0.86c0.19 0.29 0.62 0.73 1.2 0.76 1.2-0.064 1.7-1 2.1-1.7-0.3 0.46-0.61 0.93-1.1 1.3-0.44 0.42-1.3 0.47-1.8-9e-3 -0.71-0.86-1.2-1.6-1.8-2.4-0.7-0.95-1.4-1.8-2-2.7l3.7 4.6s1.2 1.9 2.9-1.6c1-2.2 0.97-6.8 0.79-9.1 4.2-2.6 6.8-6.1 6.2-10 0.1-0.48 0.17-1.2 0.057-2.2-0.035-0.5-0.63-1.9-1.1-2.7-0.029-0.061-0.062-0.12-0.094-0.18-0.1-0.28-0.21-0.53-0.31-0.74-0.1-0.32 0.35 0.3 0.61 0.54-0.85-1.7-0.88-1.8-0.35-1.2-0.22-0.39-0.44-0.78-0.46-0.78 0.11 0.065 0.38 0.29 0.39 0.29-1.2-2.1-3.2-4.2-5.7-5.2-0.094-0.039-0.19-0.075-0.28-0.11 0.12-0.29 0.23-0.54 0.35-0.77 0.24-0.45 0.6-1.2 0.74-1.9 0.13-0.59 0.31-1.4 0.051-2.5-0.13-0.56-0.64-1.4-1.5-1.7-0.87-0.3-1.4-0.074-1.8 0.028-0.4 0.13-0.9 0.37-1.3 0.61-0.46 0.25-0.94 0.66-1.2 0.92-0.6 1.1-0.3 1-0.34 1.5-0.33 1.1-0.076 2.2 0.38 3.3-1.5-0.1-2.5-0.012-2.4 0.17-2.7 0.047-3.2 0.31-5.9 0.86-1.8 0.42-3.8 1.1-5.8 2.1-0.25 0.13-0.49 0.26-0.75 0.41l-0.1 0.059-0.027 0.019-4e-3 2e-3c-0.049 1.3 0.3 0.74 0.55 1.3l0.016-4e-3 0.047-0.01 0.19-0.04 0.39-0.078c0.53-0.1 1.1-0.19 1.6-0.28 1.1-0.17 2.2-0.32 3.3-0.43 2.4-0.26 4.7-0.34 7.1-0.22 0.19 0.01 0.36 0.021 0.55 0.033 6e-3 0.26 0.014 0.51 0.025 0.76 0.12 2.3 0.35 4.4 1 6.5 0.17 0.52 0.38 1 0.64 1.6 0.27 0.42 0.62 1.3 1.8 1.3 1-0.21 1.3-0.95 1.6-1.3l0.82-1.3c1-1.6 2-3.2 2.9-4.9 0.23 0.17 0.45 0.36 0.65 0.56 0.3 0.4 0.57 0.82 0.82 1.3 0.096 0.056 0.2 0.12 0.34 0.31 0.2 0.42 0.44 0.82 0.62 1.2 1.1 3.2-0.98 6.6-3.8 8.8-1.2 0.97-2.5 1.8-3.9 2.6 0.42-1 0.54-2.3 0.22-3.4-0.31-1.1-0.9-2.5-2.4-2.9-1.6-0.31-2.6 0.72-3.4 1.5-0.83 0.84-1.4 2.4-0.77 3.6 0.53 1.2 1.5 1.9 2.4 2.6 0.24 0.16 0.49 0.3 0.74 0.44 0.033 0.015 0.057 0.028 0.082 0.04-1 0.39-1.9 0.76-3 0.94-2.1 0.43-4.3 0.32-6.3-0.12-2.1-0.45-4.1-1.2-5.9-2.2 0 0-0.5-0.42-0.97 0.37l0.19 0.22c0.19 0.2 0.38 0.4 0.57 0.59 0.39 0.38 0.8 0.73 1.2 1.1 0.85 0.66 1.7 1.2 2.7 1.7 1.9 0.96 3.9 1.5 6 1.7 0.51 0.038 1 0.05 1.5 0.033 0.25-4e-3 0.5-0.014 0.75-0.037l0.14-0.011 0.016 0.02c0.6 0.76 1.2 1.5 1.8 2.2 1.2 1.5 2.3 2.9 3.4 4.3l0.4 0.52c0.2 0.25 0.45 0.46 0.8 0.6 0.74 0.3 1.5-0.094 1.9-0.45 0.77-0.77 1.1-1.5 1.5-2.4 0.6-1.7 0.72-3.3 0.82-4.9 0.039-0.77 0.055-1.5 0.051-2.2l-0.021-1.1-0.014-0.31s4-3 5.1-4.9c1.1-1.9 1.4-3.7 1.4-4.9-0.046-0.95-0.28-1.8-0.55-2.7" fill="#646567" stroke-width=".18"/><g stroke-width=".43">
		<path d="m113 11c0.14 0.21 0.32 0.45 0.55 0.71-0.19-0.31-0.34-0.62-0.44-0.87 0.69 0.93 1.8 1.8 2.6 2.1 0 1e-3 2e-3 1e-3 4e-3 2e-3 -0.031 0.045-0.055 0.093-0.062 0.15 0 0.063 0.27 0.19 0.36 0.33 0.018 0.042-0.076 0.082-0.13 0.14 0.16 0.065 0.14 0.15 0.047 0.19 0.035 0.022 0.072 0.043 0.072 0.043-0.02 0.02-0.078 0.081-0.078 0.081 0.38 0.25 0.76 0.63 1.3 0.69 0.025 4e-3 0.053 7e-3 0.088 8e-3 -0.36 0.29-0.46 0.5-0.93 0.9-0.76 0.65-1.7 1.5-2.5 2.5-0.43 0.54-0.82 1.1-1.2 1.6-0.14 0.21-0.25 0.43-0.36 0.63-0.59 1.1-1 2.2-1.2 3.4-0.08 0.57-0.1 1.1-0.033 1.7l0.033 0.22 0.021 0.12c6e-3 0.023 8e-3 0.037 0.016 0.068l4e-3 0.01c0.61-0.29 0.5 0.047 0.9 0.086l2e-3 -2e-3 4e-3 -9e-3 0.01-0.019 0.19-0.32 0.41-0.65c1-1.6 2.2-3.1 3.7-4.6l0.41 0.94c0.23 0.55 0.49 1.1 0.68 1.6 0.21 0.58 0.45 1.2 0.78 1.7 0.31 0.47 0.83 1.2 1.7 1 1.3-0.71 1.5-2 2-3 0.36-1.1 0.59-2.2 0.71-3.2 0.12-1 0.14-2 0.094-3 0 0-0.094-0.62-0.035-0.74 0 0 0.6-0.26 0.93-0.39 1.3-0.56 2.3-0.87 2.9-1 0.2-0.11 0.4-0.21 0.6-0.31-0.75 0.091-2.3 0.56-3.9 1.3l-0.59 0.29-0.12 0.14c0.047 0.44 0.072 0.88 0.084 1.3 0.023 0.84-0.02 1.6-0.088 2.2 0.064-0.66 0.045-1.4 6e-3 -2.3-0.027 0.94-0.084 1.8-0.22 2.5 0.13-1.7-0.016-3.1-0.14-3.9 2.2-1.2 4.7-2.2 7.7-2.8 0 0-1.1-0.57-2.9-0.67 0.043-0.056 0.059-0.11 0.027-0.17-0.053-0.078-0.89-0.11-1.3-0.19-0.092-0.029 0.11-0.12 0.2-0.21-0.5 0.029-0.54-0.054-0.34-0.15-0.12-1e-3 -0.24 8e-3 -0.24 6e-3 0.027-0.03 0.11-0.12 0.11-0.12-1.3-8e-3 -2.8 0.18-4 0.75-0.25 0.11-0.64 0.35-0.89 0.52-0.13 0.078-0.44 0.18-0.55 0.23-0.15 0.16-0.084 0.23-0.12 0.34-0.14 0.054-0.3 0.12-0.48 0.21 0.014-0.14-0.023-0.25 0.02-0.45-8e-3 -0.66-0.12-0.93-0.22-1.4-0.074-0.25-0.13-0.49-0.21-0.73l-0.09-0.26c-0.33-0.88-0.73-1.6-1.4-2.2-0.66-0.59-1.6-0.88-2.6-0.7-0.91 0.21-1.9 0.4-2.5 1.2-0.59 0.96-0.037 2 0.35 2.6 0.88 1.4 1.9 2.1 2.4 2.4l0.31 0.028c-0.58-0.4-2.1-1.6-2.5-2.4" fill="#d11242" stroke-width=".18"/>
	</g></g>
</svg>
