<svg width="600" height="600" version="1.1" viewBox="0 0 600 600" xml:space="preserve" xmlns="http://www.w3.org/2000/svg" xmlns:xlink="http://www.w3.org/1999/xlink"><defs><radialGradient id="radialGradient5225" cx="458.39" cy="-32.368" r="11.48" gradientTransform="matrix(-1.3719 -.016112 .017708 -1.5074 1089.8 -82.022)" gradientUnits="userSpaceOnUse"><stop stop-color="#ee0004" offset="0"/><stop stop-color="#eb0004" offset=".5313"/><stop stop-color="#b30009" offset="1"/></radialGradient></defs><g transform="matrix(1.25 0 0 -1.25 0 600)"><g transform="matrix(1.9481 0 0 1.9481 1.86e-6 4.654e-5)"><g transform="matrix(10.732 0 0 10.732 -4773.6 -262.98)"><rect transform="scale(1,-1)" x="444.82" y="-47.466" width="22.96" height="22.96" fill="url(#radialGradient5225)"/></g><path d="m80.151 133.55c-9.0441 2.5326-10.107 7.2974-10.107 10.388 0 5.9131 4.5865 9.8623 12.836 9.8623 5.6928 0 10.72-2.4253 14.382-7.2867l9.9356 5.795c-4.8228 7.0721-12.277 12.964-24.35 12.964-14.243 0-25.929-8.8535-25.929-21.914 0-12.824 11.031-18.684 22.814-22 0 0 5.4136-1.5561 5.4565-1.5668 10.107-2.6721 10.892-7.2223 10.892-11.171 0-7.2116-7.5618-11.665-14.114-11.665-6.8529 0-12.256 2.2429-16.67 10.045l-9.9356-5.9023c6.434-11.053 14.157-15.55 26.66-15.55 13.802 0 27.132 10.517 27.132 23.652 0 15.55-12.632 19.939-23.566 22.772-0.03223 0.0215-5.435 1.5775-5.435 1.5775m125.15-4.1853c11.364 0 14.909 4.8506 14.909 12.105 0 4.7862-2.159 10.753-14.479 10.753h-14.479v-22.858h14.049zm15.714-42.014-17.046 30.649h-12.718v-30.649h-12.546v76.119h28.153c11.332 0 26.445-3.1765 26.445-22.118 0-12.889-6.6918-18.834-17.229-21.613l19.818-32.388h-14.877zm-99.442 0v76.119h46.574v-12.041h-34.039v-20.841h29.291v-11.805h-29.291v-31.433h-12.535z" fill="#fff"/></g></g></svg>
