<?xml version="1.0" standalone="no"?>
<!DOCTYPE svg PUBLIC "-//W3C//DTD SVG 20010904//EN"
 "http://www.w3.org/TR/2001/REC-SVG-20010904/DTD/svg10.dtd">
<svg version="1.0" xmlns="http://www.w3.org/2000/svg"
 width="368.000000pt" height="368.000000pt" viewBox="0 0 368.000000 368.000000"
 preserveAspectRatio="xMidYMid meet">
<metadata>
Created by potrace 1.16, written by Peter Selinger 2001-2019
</metadata>
<g transform="translate(0.000000,368.000000) scale(0.100000,-0.100000)"
fill="#00e164" stroke="none">
<path d="M1630 3674 c-293 -36 -574 -141 -825 -308 -168 -112 -379 -323 -491
-491 -216 -324 -314 -650 -314 -1038 1 -359 91 -680 275 -972 80 -127 126
-186 240 -304 291 -301 655 -487 1068 -546 131 -19 383 -19 514 0 413 59 777
245 1068 546 114 118 160 177 240 304 184 292 274 613 275 972 0 388 -98 714
-314 1038 -112 168 -323 379 -491 491 -212 141 -438 236 -681 285 -87 17 -151
22 -319 24 -115 2 -226 1 -245 -1z m741 -933 c217 -67 229 -74 229 -150 0 -53
-48 -164 -75 -174 -35 -14 -72 -5 -399 100 -26 8 -57 24 -67 34 -35 35 -19
149 31 220 30 41 56 39 281 -30z m-1089 -127 c198 -61 232 -75 242 -99 11 -31
6 -85 -14 -136 -25 -67 -55 -99 -93 -99 -28 0 -358 100 -407 123 -41 20 -54
59 -39 120 23 99 57 146 106 147 11 0 104 -25 205 -56z m1232 -269 c128 -33
256 -125 324 -233 75 -116 96 -294 53 -433 -50 -157 -178 -288 -333 -338 -26
-9 -38 -19 -38 -31 0 -10 -18 -54 -41 -99 -59 -118 -150 -206 -272 -265 -109
-52 -168 -66 -285 -66 -216 0 -333 86 -277 204 32 67 73 76 223 46 100 -20
208 8 300 78 30 23 92 98 92 113 0 3 -27 16 -59 28 -33 12 -87 41 -120 66
-166 122 -247 321 -208 515 22 116 58 182 141 266 139 140 324 195 500 149z
m-1083 -201 c319 -94 476 -437 335 -731 -189 -394 -752 -393 -947 2 -80 162
-68 366 31 509 68 99 209 200 316 225 65 15 205 12 265 -5z"/>
<path d="M2326 2005 c-82 -29 -122 -96 -114 -192 5 -63 28 -98 84 -131 58 -34
149 -28 201 14 119 95 87 274 -55 314 -48 13 -68 12 -116 -5z"/>
<path d="M1215 1802 c-127 -61 -144 -217 -33 -305 85 -68 222 -35 274 65 19
37 18 122 -3 165 -36 77 -155 114 -238 75z"/>
</g>
</svg>
