<svg width="23mm" height="21.9mm" version="1.1" viewBox="0 0 23 21.9" xmlns="http://www.w3.org/2000/svg"><polygon transform="matrix(.265 0 0 .265 -1.71 -2)" points="28.2 60.4 6.5 39.2 36.6 34.9 50 7.63 63.4 34.9 93.5 39.2 71.8 60.4 76.9 90.4 50 76.2 23.1 90.4" fill="#ffb804"/><polygon transform="matrix(.265 0 0 .265 -1.71 -2)" points="25.8 86.7 30.2 60.8 29.6 59 10.8 40.6 36.8 36.8 38.4 35.8 50 12.2 61.6 35.8 63.2 36.8 89.2 40.6 70.4 59 69.8 60.8 74.2 86.7 50.9 74.5 49.1 74.5" fill="#f90"/></svg>
