<svg width="480px" height="480px" version="1.1" viewBox="0 0 48 48" xmlns="http://www.w3.org/2000/svg"><rect width="48" height="48" fill="#03a9f4" stroke-width=".1"/><path d="m42 12c-1 0.6-3 1-4 1 2-0.9 3-2 3-4-1 0.8-3 1-5 2-1-1-3-2-5-2-4 0-7 3-7 7 0 0.6 0.07 1 0.2 2-6-0.3-12-3-15-8-0.6 1-1 2-1 4 0 3 1 5 3 6-1-0.04-2-0.4-3-0.9v0.09c0 4 3 7 6 7-0.6 0.2-1 0.3-2 0.3-0.5 0-0.9-0.05-1-0.1 0.9 3 4 5 7 5-3 2-6 3-9 3-0.6 0-1-0.03-2-0.1 3 2 7 3 11 3 14 0 21-11 21-21 0-0.3-0.01-0.6-0.02-0.9 1-1 3-2 4-4" fill="#fff"/></svg>
