<?xml version="1.0" encoding="UTF-8"?>
<svg xmlns="http://www.w3.org/2000/svg" xmlns:xlink="http://www.w3.org/1999/xlink" width="120" height="120" viewBox="0 0 120 120" version="1.1">
<g id="surface1">
<path style=" stroke:none;fill-rule:evenodd;fill:rgb(78.039217%,78.039217%,78.039217%);fill-opacity:1;" d="M 95 12.5 L 25 12.5 C 22.25 12.5 20 14.738281 20 17.5 L 20 25 L 100 25 L 100 17.5 C 100 14.75 97.761719 12.5 95 12.5 Z M 35 20 C 33.621094 20 32.5 18.878906 32.5 17.5 C 32.5 16.121094 33.621094 15 35 15 C 36.378906 15 37.5 16.121094 37.5 17.5 C 37.5 18.878906 36.378906 20 35 20 Z M 85 20 C 83.621094 20 82.5 18.878906 82.5 17.5 C 82.5 16.121094 83.621094 15 85 15 C 86.378906 15 87.5 16.121094 87.5 17.5 C 87.5 18.878906 86.378906 20 85 20 Z M 85 20 "/>
<path style=" stroke:none;fill-rule:evenodd;fill:rgb(9.803922%,46.27451%,82.352942%);fill-opacity:1;" d="M 110 27.5 C 110.257812 26.046875 106.476562 22.5 105 22.5 L 15 22.5 C 12.5 22.5 9.75 26.050781 10 27.5 C 12.058594 39.148438 17.5 65 17.5 65 L 102.5 65 C 102.5 65 107.949219 39.25 110 27.5 Z M 110 27.5 "/>
<path style=" stroke:none;fill-rule:evenodd;fill:rgb(11.764706%,53.333336%,89.803922%);fill-opacity:1;" d="M 102.5 65 L 17.5 65 C 17.5 65 12.050781 90.75 10 102.5 C 10 105.375 11.980469 107.5 15 107.5 L 105 107.5 C 106.476562 107.5 110 106.25 110 102.5 C 107.941406 90.851562 102.5 65 102.5 65 Z M 102.5 65 "/>
<path style=" stroke:none;fill-rule:evenodd;fill:rgb(98.039216%,98.039216%,98.039216%);fill-opacity:1;" d="M 51.25 65 C 53.710938 65.8125 55.476562 67.125 56.5 68.898438 C 57.582031 70.730469 58.125 72.773438 58.125 75.050781 C 58.125 79 56.828125 82.125 54.226562 84.375 C 51.625 86.640625 48.324219 87.773438 44.273438 87.773438 C 40.324219 87.773438 37.050781 86.707031 34.449219 84.574219 C 31.851562 82.441406 30.601562 79.550781 30.699219 75.875 L 30.789062 75.695312 L 36.390625 75.695312 C 36.390625 77.980469 37.089844 79.796875 38.492188 81.144531 C 39.890625 82.496094 41.816406 83.171875 44.265625 83.171875 C 46.753906 83.171875 48.691406 82.496094 50.117188 81.144531 C 51.542969 79.792969 52.234375 77.796875 52.234375 75.144531 C 52.234375 72.46875 51.609375 70.496094 50.359375 69.21875 C 49.105469 67.945312 47.132812 67.3125 44.433594 67.3125 L 39.308594 67.3125 L 39.308594 64.996094 L 51.234375 64.996094 Z M 79 65 L 84.875 65 L 84.875 87.148438 L 79 87.148438 Z M 79 65 "/>
<path style=" stroke:none;fill-rule:evenodd;fill:rgb(87.843138%,87.843138%,87.843138%);fill-opacity:1;" d="M 36.75 55 L 31.125 55 L 31.066406 54.820312 C 30.964844 51.546875 32.152344 48.746094 34.613281 46.46875 C 37.078125 44.195312 40.316406 43.019531 44.316406 43.019531 C 48.339844 43.019531 51.539062 44.085938 53.914062 46.21875 C 56.289062 48.351562 57.488281 51.394531 57.488281 55.371094 C 57.488281 57.160156 56.949219 58.945312 55.863281 60.71875 C 54.78125 62.496094 53.164062 63.84375 50.988281 64.796875 L 51.257812 64.925781 L 39.332031 64.925781 L 39.332031 62.648438 L 44.457031 62.648438 C 47.058594 62.648438 48.90625 61.996094 49.984375 60.695312 C 51.058594 59.390625 51.609375 57.570312 51.609375 55.246094 C 51.609375 52.761719 50.992188 50.871094 49.761719 49.570312 C 48.527344 48.269531 46.710938 47.632812 44.308594 47.632812 C 42.023438 47.632812 40.183594 48.300781 38.808594 49.644531 C 37.476562 50.941406 36.785156 52.644531 36.738281 54.996094 Z M 85 64.898438 L 79.125 64.898438 L 79.125 49.351562 L 70.25 49.46875 L 70.25 45.246094 L 85 43.636719 Z M 85 64.898438 "/>
<path style=" stroke:none;fill-rule:evenodd;fill:rgb(9.803922%,46.27451%,82.352942%);fill-opacity:1;" d="M 15 22.5 C 11.398438 22.5 9.75 26.050781 10 27.5 C 12.058594 39.148438 17.5 65 17.5 65 M 102.5 65 C 102.5 65 107.949219 39.25 110 27.5 C 110 23.449219 106.476562 22.5 105 22.5 "/>
</g>
</svg>
