<svg width="180" height="180" version="1.1" viewBox="0 0 36 36" xmlns="http://www.w3.org/2000/svg"><radialGradient id="yOrnnhliCrdS2gy~4tD8ma" cx="19.4" cy="42" r="44.9" gradientUnits="userSpaceOnUse"><stop stop-color="#fd5" offset="0"/><stop stop-color="#ff543f" offset=".328"/><stop stop-color="#fc5245" offset=".348"/><stop stop-color="#e64771" offset=".504"/><stop stop-color="#d53e91" offset=".643"/><stop stop-color="#cc39a4" offset=".761"/><stop stop-color="#c837ab" offset=".841"/></radialGradient><radialGradient id="yOrnnhliCrdS2gy~4tD8mb" cx="11.8" cy="5.54" r="29.8" gradientTransform="matrix(1 0 0 .666 0 1.85)" gradientUnits="userSpaceOnUse"><stop stop-color="#4168c9" offset="0"/><stop stop-color="#4168c9" stop-opacity="0" offset=".999"/></radialGradient><g transform="translate(-5.99 -5.99)"><path d="m34 42-20 0.019c-4.4 4e-3 -8-3.59-8.01-7.99l-0.019-20c-4e-3 -4.4 3.59-8 7.99-8.01l20-0.019c4.4-4e-3 8 3.59 8.01 7.99l0.019 20c5e-3 4.4-3.59 8-7.99 8.01z" fill="url(#yOrnnhliCrdS2gy~4tD8ma)"/><path d="m34 42-20 0.019c-4.4 4e-3 -8-3.59-8.01-7.99l-0.019-20c-4e-3 -4.4 3.59-8 7.99-8.01l20-0.019c4.4-4e-3 8 3.59 8.01 7.99l0.019 20c5e-3 4.4-3.59 8-7.99 8.01z" fill="url(#yOrnnhliCrdS2gy~4tD8mb)"/><g fill="#fff"><path d="m24 31c-3.86 0-7-3.14-7-7s3.14-7 7-7 7 3.14 7 7-3.14 7-7 7zm0-12c-2.76 0-5 2.24-5 5s2.24 5 5 5 5-2.24 5-5-2.24-5-5-5z"/><circle cx="31.5" cy="16.5" r="1.5"/><path d="m30 37h-12c-3.86 0-7-3.14-7-7v-12c0-3.86 3.14-7 7-7h12c3.86 0 7 3.14 7 7v12c0 3.86-3.14 7-7 7zm-12-24c-2.76 0-5 2.24-5 5v12c0 2.76 2.24 5 5 5h12c2.76 0 5-2.24 5-5v-12c0-2.76-2.24-5-5-5z"/></g></g></svg>
