<svg width="602" height="602" version="1.1" xmlns="http://www.w3.org/2000/svg" xmlns:xlink="http://www.w3.org/1999/xlink"><defs><linearGradient id="linearGradient3066" x1="305" x2="306" y1="599" y2="8" gradientTransform="translate(2e-5 450)" gradientUnits="userSpaceOnUse"><stop stop-color="#70efff" offset="0"/><stop stop-color="#5770ff" offset="1"/></linearGradient></defs><g transform="translate(0 -450)"><path d="m0 450h602v602s-369-0.9-602 0z" color="#000000" fill="url(#linearGradient3066)"/><path d="m132 622c-3 0-6 0.5-9 2l56 58 57 59 1 1 2 2 2 2 3 4 49 50c0.8 0.5 3 3 5 4 2 1 5 2 8 2 3 0.1 6-0.7 8-2 2-0.9 3-2 5-4l57-59 57-59 55-57c-4-2-7-3-12-3zm-17 7c-6 6-10 14-10 24v191c0 8 3 15 7 20l8-8 59-57 52-51-1-1-57-59-57-59zm381 2-56 58-57 59-1 1 54 53 59 57 4 3c3-5 5-11 5-18v-191c0-9-3-16-8-22zm-259 125-52 51-59 57-8 7c4 3 8 4 13 4h345c6 0 11-2 16-6l-4-4-59-57-54-52-49 50c-3 2-4 4-7 5-4 2-9 4-13 3-5-0.07-9-2-13-4-2-1-3-2-6-4z" color="#000000" fill="#fff"/></g></svg>
