<?xml version="1.0" encoding="UTF-8"?>
<svg xmlns="http://www.w3.org/2000/svg" xmlns:xlink="http://www.w3.org/1999/xlink" width="120" height="120" viewBox="0 0 120 120" version="1.1">
<g id="surface1">
<rect x="0" y="0" width="120" height="120" style="fill:rgb(16.862746%,56.470591%,85.09804%);fill-opacity:1;stroke:none;"/>
<path style=" stroke:none;fill-rule:nonzero;fill:rgb(100%,100%,100%);fill-opacity:1;" d="M 52.308594 98.972656 C 47.96875 98.558594 41.847656 97.257812 39.332031 96.214844 C 30.71875 92.628906 26 84.675781 24.359375 70.984375 C 23.792969 66.273438 23.640625 62.371094 23.628906 52.832031 C 23.625 43.703125 23.644531 43.085938 24.023438 41.085938 C 25.21875 34.726562 27.898438 29.855469 31.972656 26.574219 C 34.4375 24.601562 36.941406 23.589844 41.816406 22.609375 C 53.253906 20.300781 70.636719 20.546875 80.792969 23.160156 C 84.964844 24.230469 87.046875 25.347656 89.613281 27.9375 C 92.761719 31.078125 94.742188 34.964844 95.921875 40.195312 C 96.324219 42.027344 96.34375 42.464844 96.339844 49.273438 C 96.335938 57.375 95.972656 62.453125 95.054688 67.324219 C 94.308594 71.242188 90.929688 74.863281 85.414062 77.578125 C 83.078125 78.75 79.667969 79.863281 77.105469 80.296875 C 70.386719 81.441406 61.257812 81.800781 55.414062 81.148438 C 51.253906 80.6875 46.746094 79.972656 44.644531 79.445312 L 44.1875 79.332031 L 44.316406 80.910156 C 44.566406 83.988281 45.457031 86.246094 47.09375 87.835938 C 49.691406 90.402344 53.351562 91.332031 60.890625 91.351562 C 65.324219 91.363281 67.660156 91.117188 71.300781 90.265625 C 72.339844 90.019531 73.257812 89.820312 73.347656 89.820312 C 73.503906 89.820312 73.640625 91.21875 73.78125 94.238281 L 73.863281 96.003906 L 72.441406 96.566406 C 69.425781 97.757812 65.828125 98.574219 61.828125 98.96875 C 59.664062 99.183594 54.597656 99.175781 52.289062 98.957031 Z M 44.972656 57.640625 C 44.972656 45.640625 44.976562 45.589844 46.054688 44.101562 C 46.886719 42.953125 48.179688 42.398438 50.015625 42.398438 C 51.949219 42.398438 53.003906 42.765625 54.03125 43.792969 C 54.953125 44.71875 55.511719 46.015625 55.78125 47.863281 C 55.875 48.535156 55.957031 51.699219 55.960938 54.886719 L 55.964844 60.683594 L 64.21875 60.683594 L 64.222656 54.476562 C 64.226562 47.914062 64.359375 46.527344 65.152344 45.042969 C 66.070312 43.257812 67.316406 42.507812 69.519531 42.40625 C 70.402344 42.363281 71.4375 42.425781 71.882812 42.546875 C 72.929688 42.828125 74.140625 43.960938 74.683594 45.164062 L 75.117188 46.125 L 75.222656 68.535156 L 83.632812 68.535156 L 83.628906 58.074219 C 83.621094 44.6875 83.515625 43.558594 81.957031 40.382812 C 81.371094 39.179688 80.878906 38.503906 79.808594 37.433594 C 77.550781 35.171875 74.992188 34.15625 71.550781 34.160156 C 66.726562 34.167969 63.757812 35.933594 61.140625 40.367188 L 60.027344 42.253906 L 58.875 40.273438 C 57.449219 37.828125 55.976562 36.300781 54.203125 35.417969 C 52.226562 34.4375 51.398438 34.269531 48.511719 34.269531 C 46.316406 34.269531 45.761719 34.328125 44.664062 34.695312 C 40.351562 36.132812 37.535156 39.714844 36.765625 44.746094 C 36.554688 46.152344 36.5 48.8125 36.496094 57.566406 L 36.496094 68.59375 L 44.90625 68.59375 Z M 44.972656 57.640625 "/>
</g>
</svg>
