<?xml version="1.0" encoding="UTF-8"?>
<svg xmlns="http://www.w3.org/2000/svg" xmlns:xlink="http://www.w3.org/1999/xlink" width="120" height="120" viewBox="0 0 120 120" version="1.1">
<defs>
<linearGradient id="linear0" gradientUnits="userSpaceOnUse" x1="52" y1="55.299999" x2="52" y2="22.200001" gradientTransform="matrix(2.12,0,0,2.12,-50.32,8.4)">
<stop offset="0" style="stop-color:rgb(98.823529%,76.078433%,69.411767%);stop-opacity:1;"/>
<stop offset="0.885" style="stop-color:rgb(85.09804%,25.882354%,4.313726%);stop-opacity:1;"/>
</linearGradient>
<linearGradient id="linear1" gradientUnits="userSpaceOnUse" x1="52" y1="41" x2="52" y2="19.200001" gradientTransform="matrix(2.12,0,0,2.12,-50.32,8.4)">
<stop offset="0" style="stop-color:rgb(87.058824%,92.941177%,78.823531%);stop-opacity:1;"/>
<stop offset="0.661" style="stop-color:rgb(54.509807%,72.941178%,14.509805%);stop-opacity:1;"/>
</linearGradient>
<linearGradient id="linear2" gradientUnits="userSpaceOnUse" x1="52" y1="32.200001" x2="52" y2="2.55" gradientTransform="matrix(2.12,0,0,2.12,-50.32,8.4)">
<stop offset="0" style="stop-color:rgb(76.078433%,92.156863%,98.039216%);stop-opacity:1;"/>
<stop offset="1" style="stop-color:rgb(14.901961%,65.882355%,87.058824%);stop-opacity:1;"/>
</linearGradient>
</defs>
<g id="surface1">
<path style=" stroke:none;fill-rule:evenodd;fill:url(#linear0);" d="M 53.441406 107.199219 L 11.679688 88 C 8.121094 86.328125 8.121094 83.734375 11.679688 82.214844 L 26.238281 75.519531 L 53.359375 88 C 56.921875 89.671875 62.640625 89.671875 66.078125 88 L 93.199219 75.519531 L 107.761719 82.214844 C 111.320312 83.886719 111.320312 86.480469 107.761719 88 L 66 107.199219 C 62.753906 108.71875 57.039062 108.71875 53.601562 107.199219 Z M 53.441406 107.199219 "/>
<path style=" stroke:none;fill-rule:evenodd;fill:url(#linear1);" d="M 53.441406 84 L 11.679688 64.800781 C 8.121094 63.128906 8.121094 60.535156 11.679688 59.015625 L 25.921875 52.472656 L 53.441406 65.113281 C 57 66.785156 62.71875 66.785156 66.160156 65.113281 L 93.679688 52.472656 L 107.921875 59.015625 C 111.480469 60.6875 111.480469 63.28125 107.921875 64.800781 L 66.160156 84 C 62.601562 85.671875 56.878906 85.671875 53.441406 84 Z M 53.441406 84 "/>
<path style=" stroke:none;fill-rule:evenodd;fill:url(#linear2);" d="M 53.441406 60.71875 L 11.679688 41.519531 C 8.121094 39.847656 8.121094 37.257812 11.679688 35.734375 L 53.441406 16.535156 C 57 14.863281 62.71875 14.863281 66.160156 16.535156 L 107.921875 35.734375 C 111.480469 37.40625 111.480469 40 107.921875 41.519531 L 66.160156 60.71875 C 62.601562 62.238281 56.878906 62.238281 53.441406 60.71875 Z M 53.441406 60.71875 "/>
</g>
</svg>
