<?xml version="1.0" encoding="UTF-8"?>
<svg xmlns="http://www.w3.org/2000/svg" xmlns:xlink="http://www.w3.org/1999/xlink" width="120" height="120" viewBox="0 0 120 120" version="1.1">
<defs>
<linearGradient id="linear0" gradientUnits="userSpaceOnUse" x1="0" y1="0" x2="1" y2="0" gradientTransform="matrix(-65.042017,-65.042017,65.042017,-65.042017,91.260504,92.773109)">
<stop offset="0" style="stop-color:rgb(7.450981%,0%,21.176471%);stop-opacity:1;"/>
<stop offset="0.2" style="stop-color:rgb(9.411765%,0.784314%,23.137255%);stop-opacity:1;"/>
<stop offset="0.5" style="stop-color:rgb(14.901961%,3.529412%,29.019609%);stop-opacity:1;"/>
<stop offset="0.8" style="stop-color:rgb(23.921569%,8.235294%,38.82353%);stop-opacity:1;"/>
<stop offset="1" style="stop-color:rgb(30.588236%,11.372549%,45.882353%);stop-opacity:1;"/>
</linearGradient>
<linearGradient id="linear1" gradientUnits="userSpaceOnUse" x1="0" y1="0" x2="1" y2="0" gradientTransform="matrix(19.159664,0,0,19.159664,13.613445,49.411765)">
<stop offset="0" style="stop-color:rgb(19.215687%,33.725491%,65.882355%);stop-opacity:1;"/>
<stop offset="0.2" style="stop-color:rgb(20%,31.764707%,64.313728%);stop-opacity:1;"/>
<stop offset="0.5" style="stop-color:rgb(23.137255%,26.274511%,59.215689%);stop-opacity:1;"/>
<stop offset="0.8" style="stop-color:rgb(27.843139%,17.254902%,50.980395%);stop-opacity:1;"/>
<stop offset="1" style="stop-color:rgb(30.588236%,11.372549%,45.882353%);stop-opacity:1;"/>
</linearGradient>
<radialGradient id="radial0" gradientUnits="userSpaceOnUse" cx="0" cy="0" fx="0" fy="0" r="1" gradientTransform="matrix(34.789916,0,0,50.420168,33.781513,56.97479)">
<stop offset="0" style="stop-color:rgb(7.843138%,80.392158%,85.490197%);stop-opacity:1;"/>
<stop offset="0.2" style="stop-color:rgb(7.843138%,80.392158%,85.490197%);stop-opacity:1;"/>
<stop offset="0.6" style="stop-color:rgb(12.54902%,38.039216%,74.117649%);stop-opacity:1;"/>
<stop offset="0.6" style="stop-color:rgb(14.901961%,34.509805%,67.450982%);stop-opacity:1;"/>
<stop offset="0.9" style="stop-color:rgb(21.568628%,24.705882%,50.588238%);stop-opacity:1;"/>
<stop offset="1" style="stop-color:rgb(26.274511%,17.647059%,38.431373%);stop-opacity:1;"/>
</radialGradient>
<linearGradient id="linear2" gradientUnits="userSpaceOnUse" x1="0" y1="0" x2="1" y2="0" gradientTransform="matrix(60,0,0,60,27.731092,34.285714)">
<stop offset="0" style="stop-color:rgb(12.54902%,38.039216%,74.117649%);stop-opacity:1;"/>
<stop offset="0.2" style="stop-color:rgb(16.862746%,31.764707%,67.450982%);stop-opacity:1;"/>
<stop offset="0.7" style="stop-color:rgb(26.666668%,17.254902%,51.764709%);stop-opacity:1;"/>
<stop offset="0.9" style="stop-color:rgb(30.588236%,11.372549%,45.882353%);stop-opacity:1;"/>
<stop offset="1" style="stop-color:rgb(30.588236%,11.372549%,45.882353%);stop-opacity:1;"/>
</linearGradient>
<linearGradient id="linear3" gradientUnits="userSpaceOnUse" x1="0" y1="0" x2="1" y2="0" gradientTransform="matrix(41.344538,35.798319,-35.798319,41.344538,36.806723,19.663866)">
<stop offset="0" style="stop-color:rgb(28.235295%,65.882355%,87.843138%);stop-opacity:1;"/>
<stop offset="0.02" style="stop-color:rgb(28.235295%,65.882355%,87.843138%);stop-opacity:1;"/>
<stop offset="0.4" style="stop-color:rgb(12.54902%,38.039216%,74.117649%);stop-opacity:1;"/>
<stop offset="0.5" style="stop-color:rgb(16.862746%,31.764707%,67.450982%);stop-opacity:1;"/>
<stop offset="0.8" style="stop-color:rgb(26.666668%,17.254902%,51.764709%);stop-opacity:1;"/>
<stop offset="0.9" style="stop-color:rgb(30.588236%,11.372549%,45.882353%);stop-opacity:1;"/>
<stop offset="1" style="stop-color:rgb(30.588236%,11.372549%,45.882353%);stop-opacity:1;"/>
</linearGradient>
<linearGradient id="linear4" gradientUnits="userSpaceOnUse" x1="0" y1="0" x2="1" y2="0" gradientTransform="matrix(80.672269,-120,120,80.672269,17.647059,148.235294)">
<stop offset="0" style="stop-color:rgb(19.215687%,33.725491%,65.882355%);stop-opacity:1;"/>
<stop offset="0.4" style="stop-color:rgb(19.215687%,33.725491%,65.882355%);stop-opacity:1;"/>
<stop offset="1" style="stop-color:rgb(30.588236%,11.372549%,45.882353%);stop-opacity:1;"/>
</linearGradient>
<linearGradient id="linear5" gradientUnits="userSpaceOnUse" x1="0" y1="0" x2="1" y2="0" gradientTransform="matrix(44.87395,-100.336134,100.336134,44.87395,48.907563,124.033613)">
<stop offset="0" style="stop-color:rgb(16.078432%,67.058825%,88.627452%);stop-opacity:1;"/>
<stop offset="0.8" style="stop-color:rgb(21.960784%,35.294119%,65.098041%);stop-opacity:1;"/>
<stop offset="0.9" style="stop-color:rgb(25.490198%,25.882354%,57.647061%);stop-opacity:1;"/>
<stop offset="1" style="stop-color:rgb(30.588236%,11.372549%,45.882353%);stop-opacity:1;"/>
</linearGradient>
<linearGradient id="linear6" gradientUnits="userSpaceOnUse" x1="0" y1="0" x2="1" y2="0" gradientTransform="matrix(2.521008,1.512605,-1.512605,2.521008,29.243697,47.89916)">
<stop offset="0" style="stop-color:rgb(69.01961%,86.274511%,83.92157%);stop-opacity:1;"/>
<stop offset="1" style="stop-color:rgb(32.549021%,67.450982%,87.843138%);stop-opacity:1;"/>
</linearGradient>
<linearGradient id="linear7" gradientUnits="userSpaceOnUse" x1="0" y1="0" x2="1" y2="0" gradientTransform="matrix(-5.042017,-1.008403,1.008403,-5.042017,81.680672,19.663866)">
<stop offset="0" style="stop-color:rgb(18.82353%,57.254905%,72.549021%);stop-opacity:0.101961;"/>
<stop offset="0.2" style="stop-color:rgb(14.509805%,55.29412%,71.372551%);stop-opacity:0.101961;"/>
<stop offset="0.7" style="stop-color:rgb(8.627451%,52.156866%,69.411767%);stop-opacity:0.101961;"/>
<stop offset="1" style="stop-color:rgb(6.27451%,50.980395%,68.627453%);stop-opacity:0.101961;"/>
</linearGradient>
<linearGradient id="linear8" gradientUnits="userSpaceOnUse" x1="0" y1="0" x2="1" y2="0" gradientTransform="matrix(4.033613,16.134454,-16.134454,4.033613,42.352941,25.714286)">
<stop offset="0" style="stop-color:rgb(7.450981%,59.607846%,81.960785%);stop-opacity:0;"/>
<stop offset="0.01" style="stop-color:rgb(7.450981%,59.607846%,81.960785%);stop-opacity:0;"/>
<stop offset="0.2" style="stop-color:rgb(6.666667%,52.941179%,76.078433%);stop-opacity:0.6;"/>
<stop offset="0.6" style="stop-color:rgb(24.705882%,39.215687%,60.000002%);stop-opacity:0.698039;"/>
<stop offset="1" style="stop-color:rgb(18.431373%,25.882354%,50.980395%);stop-opacity:0.501961;"/>
</linearGradient>
<linearGradient id="linear9" gradientUnits="userSpaceOnUse" x1="0" y1="0" x2="1" y2="0" gradientTransform="matrix(-2.016807,-1.512605,1.512605,-2.016807,39.327731,40.336134)">
<stop offset="0" style="stop-color:rgb(97.647059%,76.078433%,10.588235%);stop-opacity:1;"/>
<stop offset="0.2" style="stop-color:rgb(95.294118%,72.941178%,10.588235%);stop-opacity:1;"/>
<stop offset="0.4" style="stop-color:rgb(89.019608%,64.313728%,10.588235%);stop-opacity:1;"/>
<stop offset="0.7" style="stop-color:rgb(78.823531%,50.196081%,10.980392%);stop-opacity:1;"/>
<stop offset="1" style="stop-color:rgb(64.313728%,30.588236%,10.980392%);stop-opacity:1;"/>
<stop offset="1" style="stop-color:rgb(63.921571%,29.803923%,10.980392%);stop-opacity:1;"/>
</linearGradient>
<linearGradient id="linear10" gradientUnits="userSpaceOnUse" x1="0" y1="0" x2="1" y2="0" gradientTransform="matrix(-15.12605,-33.781513,33.781513,-15.12605,93.781513,63.529412)">
<stop offset="0" style="stop-color:rgb(25.098041%,61.960787%,76.47059%);stop-opacity:1;"/>
<stop offset="0.6" style="stop-color:rgb(12.54902%,38.039216%,74.117649%);stop-opacity:1;"/>
<stop offset="1" style="stop-color:rgb(12.54902%,38.039216%,74.117649%);stop-opacity:1;"/>
</linearGradient>
<linearGradient id="linear11" gradientUnits="userSpaceOnUse" x1="0" y1="0" x2="1" y2="0" gradientTransform="matrix(-10.588235,-33.277311,33.277311,-10.588235,81.680672,52.436975)">
<stop offset="0" style="stop-color:rgb(7.843138%,69.803923%,85.490197%);stop-opacity:1;"/>
<stop offset="0.4" style="stop-color:rgb(16.078432%,48.627451%,80.000001%);stop-opacity:1;"/>
<stop offset="0.5" style="stop-color:rgb(14.509805%,43.529412%,77.254903%);stop-opacity:1;"/>
<stop offset="0.6" style="stop-color:rgb(12.941177%,39.215687%,74.901962%);stop-opacity:1;"/>
<stop offset="0.8" style="stop-color:rgb(12.54902%,38.039216%,74.117649%);stop-opacity:1;"/>
<stop offset="1" style="stop-color:rgb(12.54902%,38.039216%,74.117649%);stop-opacity:1;"/>
</linearGradient>
</defs>
<g id="surface1">
<path style=" stroke:none;fill-rule:evenodd;fill:url(#linear0);" d="M 86.722656 24.707031 C 80.671875 20.671875 73.109375 19.664062 69.074219 19.160156 C 64.539062 18.707031 60.503906 18.757812 57.480469 19.261719 C 57.175781 19.257812 56.976562 19.246094 56.46875 19.246094 L 55.964844 19.253906 L 56.117188 19.054688 C 56.117188 19.054688 55.914062 19.085938 55.613281 19.253906 C 54.605469 19.277344 53.597656 19.304688 52.085938 19.40625 L 54.605469 16.886719 C 54.605469 16.886719 53.09375 17.085938 50.570312 19.40625 C 49.058594 19.507812 48.050781 19.660156 47.042969 19.859375 C 50.066406 15.828125 52.589844 14.3125 52.589844 14.3125 C 52.589844 14.3125 49.058594 13.808594 43.511719 19.355469 L 42 20.867188 C 25.867188 24.902344 13.765625 35.492188 13.765625 47.589844 C 13.765625 50.113281 13.261719 52.632812 13.816406 55.15625 C 13.511719 59.1875 14.167969 71.289062 14.167969 71.289062 C 14.167969 71.289062 18.707031 94.988281 35.847656 99.523438 C 36.101562 99.574219 32.320312 93.472656 30.808594 86.414062 C 34.335938 89.945312 37.867188 92.464844 42.402344 92.96875 C 42.90625 93.019531 39.882812 89.441406 37.363281 84.902344 L 76.183594 98.011719 C 96.351562 89.441406 93.832031 89.945312 98.371094 85.40625 C 107.949219 74.820312 109.460938 69.273438 106.941406 51.625 C 105.429688 40.027344 96.855469 28.433594 87.277344 24.398438 Z M 86.722656 24.707031 "/>
<path style=" stroke:none;fill-rule:evenodd;fill:rgb(98.431373%,98.431373%,98.431373%);fill-opacity:1;" d="M 18.65625 35.796875 L 13.109375 68.570312 L 16.132812 78.65625 L 80.167969 99.832031 L 92.269531 49.410156 Z M 18.65625 35.796875 "/>
<path style=" stroke:none;fill-rule:evenodd;fill:rgb(60.000002%,60.000002%,60.000002%);fill-opacity:1;" d="M 19.160156 36.808594 C 19.460938 37.3125 19.363281 37.816406 19.183594 37.816406 C 19.085938 37.816406 18.984375 37.78125 18.882812 37.765625 C 18.78125 37.734375 18.679688 37.714844 18.628906 37.714844 C 18.429688 37.714844 18.53125 37.964844 19.636719 39.226562 C 21.152344 41.242188 41.824219 72.503906 42.832031 72.503906 L 42.847656 72.5 C 52.425781 68.972656 93.769531 54.855469 93.769531 54.855469 L 89.738281 48.804688 Z M 19.160156 36.808594 "/>
<path style=" stroke:none;fill-rule:evenodd;fill:rgb(97.254902%,97.254902%,97.254902%);fill-opacity:1;" d="M 19.664062 36.300781 C 19.664062 36.300781 19.964844 37.816406 21.175781 39.832031 C 22.6875 41.847656 41.847656 70.589844 42.855469 70.589844 C 55.460938 67.058594 100.839844 49.410156 100.839844 49.410156 Z M 19.664062 36.300781 "/>
<path style=" stroke:none;fill-rule:evenodd;fill:rgb(60.000002%,60.000002%,60.000002%);fill-opacity:1;" d="M 78.152344 99.328125 L 17.648438 79.160156 L 17.847656 80.671875 L 78.855469 100.839844 Z M 78.152344 99.328125 "/>
<path style=" stroke:none;fill-rule:evenodd;fill:url(#linear1);" d="M 33.277344 34.789062 C 33.277344 34.789062 11.09375 41.34375 21.175781 64.035156 C 21.175781 64.035156 16.636719 60 13.613281 54.453125 C 13.511719 54.203125 18.152344 37.3125 18.152344 37.3125 Z M 33.277344 34.789062 "/>
<path style=" stroke:none;fill-rule:evenodd;fill:url(#radial0);" d="M 21.175781 64.035156 C 19.160156 64 16.132812 62.519531 15.125 60.503906 C 14.117188 81.175781 22.183594 93.78125 35.796875 99.832031 C 31.261719 99.328125 9.578125 87.730469 9.578125 60 C 9.578125 36.300781 28.234375 15.125 57.984375 14.117188 C 58.183594 15.628906 43.363281 18.65625 42.855469 20.167969 C 42.351562 22.6875 40.335938 25.210938 38.824219 27.226562 C 36.808594 30.253906 41.34375 32.773438 38.320312 33.277344 C 33.277344 34.285156 26.21875 33.78125 21.679688 40.335938 C 14.117188 49.914062 19.160156 61.511719 21.53125 63.53125 Z M 21.175781 64.035156 "/>
<path style=" stroke:none;fill-rule:evenodd;fill:url(#linear2);" d="M 65.546875 14.621094 C 46.386719 13.109375 36.808594 20.671875 30.253906 29.746094 C 27.730469 32.773438 28.234375 35.796875 29.242188 39.328125 C 29.597656 40.839844 29.746094 41.34375 29.496094 43.363281 C 29.242188 44.371094 29.292969 44.875 29.042969 45.378906 C 28.636719 45.882812 28.035156 46.890625 28.035156 47.898438 C 27.628906 50.925781 28.539062 51.933594 29.546875 52.941406 C 30.554688 51.933594 32.570312 49.410156 36.101562 48.402344 C 39.628906 46.890625 41.648438 44.875 46.183594 42.855469 C 52.234375 39.832031 59.292969 44.371094 72.402344 39.832031 C 76.4375 38.320312 86.015625 24.707031 88.035156 24.203125 C 81.984375 17.144531 71.394531 14.621094 65.847656 14.621094 Z M 65.546875 14.621094 "/>
<path style=" stroke:none;fill-rule:evenodd;fill:rgb(24.705882%,39.215687%,60.000002%);fill-opacity:1;" d="M 52.941406 10.589844 C 52.941406 10.589844 49.410156 12.101562 47.898438 15.125 C 51.429688 13.613281 53.445312 12.605469 54.453125 12.101562 C 54.453125 12.101562 53.445312 12.554688 52.4375 15.125 C 54.453125 14.621094 54.957031 14.117188 55.460938 14.117188 C 55.460938 14.117188 55.3125 14.371094 55.160156 16.636719 C 52.132812 15.628906 46.085938 16.789062 43.058594 18.65625 C 42.050781 13.109375 52.636719 10.085938 52.636719 10.085938 Z M 52.941406 10.589844 "/>
<path style=" stroke:none;fill-rule:evenodd;fill:url(#linear3);" d="M 66.554688 14.117188 C 60.503906 13.109375 55.964844 13.613281 51.429688 14.320312 L 54.453125 12.300781 C 52.4375 12.453125 49.914062 13.816406 47.898438 15.328125 C 46.890625 15.679688 45.882812 15.832031 44.875 16.335938 C 45.378906 15.328125 46.386719 14.824219 46.890625 14.320312 C 49.410156 11.796875 52.941406 10.789062 52.941406 10.789062 C 49.914062 10.539062 39.328125 13.3125 33.277344 25.914062 C 32.269531 26.925781 31.261719 28.4375 30.253906 29.949219 C 27.730469 33.480469 28.234375 36.503906 28.738281 40.035156 C 29.09375 41.546875 29.144531 44.066406 28.789062 45.578125 C 28.738281 45.882812 27.78125 46.589844 27.78125 49.109375 C 27.53125 51.628906 28.285156 52.636719 29.292969 53.648438 C 32.320312 49.109375 35.34375 48.605469 35.34375 48.605469 C 39.378906 47.09375 41.394531 45.074219 45.933594 42.554688 C 51.984375 39.53125 73.664062 49.613281 87.277344 45.074219 C 91.3125 43.5625 85.765625 25.914062 87.78125 25.410156 C 81.226562 18.351562 72.152344 15.328125 66.605469 14.320312 Z M 66.554688 14.117188 "/>
<path style=" stroke:none;fill-rule:evenodd;fill:url(#linear4);" d="M 109.410156 52.4375 C 105.882812 34.789062 89.746094 18.65625 76.636719 17.648438 C 70.589844 17.242188 72.605469 20.167969 69.074219 21.175781 C 53.445312 26.21875 52.941406 28.738281 52.941406 28.738281 C 86.21875 30.253906 86.722656 63.023438 77.648438 71.597656 C 80.167969 71.09375 82.6875 68.066406 85.210938 63.023438 C 84.90625 65.042969 84.707031 67.5625 84.203125 70.085938 C 83.191406 78.65625 84.554688 96.300781 60.503906 107.898438 C 60.503906 107.898438 73.613281 106.890625 80.167969 99.328125 C 77.648438 105.378906 70.085938 108.90625 70.085938 108.90625 C 75.628906 107.898438 89.746094 103.867188 98.824219 92.773438 C 108.90625 80.167969 111.933594 68.066406 108.90625 51.933594 Z M 109.410156 52.4375 "/>
<path style=" stroke:none;fill-rule:evenodd;fill:url(#linear5);" d="M 77.144531 84.707031 C 77.144531 84.707031 87.730469 81.679688 91.261719 75.628906 C 90.855469 82.183594 84.707031 89.242188 84.707031 89.242188 C 84.707031 89.242188 93.78125 87.226562 97.3125 81.175781 C 96.808594 86.722656 89.746094 94.789062 89.746094 94.789062 C 96.808594 93.277344 114.453125 82.183594 108.90625 52.4375 C 105.378906 34.789062 89.242188 18.65625 76.132812 17.648438 C 70.085938 17.242188 72.101562 20.167969 68.570312 21.175781 C 52.941406 26.21875 52.4375 28.738281 52.4375 28.738281 C 85.714844 30.253906 94.285156 47.898438 77.144531 71.09375 C 79.664062 70.589844 80.671875 69.074219 82.6875 67.058594 C 82.6875 67.058594 83.699219 76.132812 76.636719 84.707031 Z M 77.144531 84.707031 "/>
<path style=" stroke:none;fill-rule:evenodd;fill:url(#linear6);" d="M 34.285156 45.378906 C 34.285156 45.378906 32.269531 46.890625 30.757812 46.386719 C 29.242188 45.984375 28.738281 44.371094 28.738281 44.371094 C 28.703125 44.671875 28.636719 44.875 28.589844 45.378906 C 28.539062 45.679688 27.578125 46.386719 27.578125 48.90625 C 27.328125 51.429688 28.085938 52.941406 29.09375 53.445312 C 32.117188 48.90625 35.144531 47.898438 35.144531 47.898438 C 34.132812 47.496094 34.132812 45.378906 34.132812 45.378906 Z M 34.285156 45.378906 "/>
<path style=" stroke:none;fill-rule:evenodd;fill:url(#linear7);" d="M 76.132812 18.152344 C 76.589844 18.050781 78.65625 18.253906 79.664062 18.65625 C 80.671875 19.058594 83.191406 20.167969 81.175781 20.671875 C 79.664062 21.074219 78.65625 20.421875 77.648438 19.664062 C 76.636719 19.160156 74.621094 18.152344 76.132812 18.152344 Z M 76.132812 18.152344 "/>
<path style=" stroke:none;fill-rule:evenodd;fill:url(#linear8);" d="M 34.285156 44.875 C 34.285156 44.875 44.875 27.226562 54.453125 22.6875 C 55.460938 22.234375 41.34375 26.21875 35.292969 32.773438 C 31.765625 36.300781 33.78125 43.867188 34.285156 44.875 Z M 34.285156 44.875 "/>
<path style=" stroke:none;fill-rule:evenodd;fill:rgb(94.901961%,94.901961%,94.901961%);fill-opacity:0.101961;" d="M 34.285156 44.875 L 34.316406 44.855469 C 36.835938 43.339844 41.878906 42.332031 43.390625 39.308594 C 49.441406 27.710938 54.484375 23.171875 54.484375 23.171875 C 44.902344 27.710938 34.316406 45.359375 34.316406 45.359375 Z M 34.285156 44.875 "/>
<path style=" stroke:none;fill-rule:evenodd;fill:rgb(18.431373%,25.882354%,50.980395%);fill-opacity:1;" d="M 35.292969 41.847656 C 35.292969 41.847656 33.277344 38.824219 36.300781 36.300781 C 37.816406 34.789062 39.832031 35.796875 40.335938 35.949219 C 41.34375 36.957031 40.738281 39.480469 39.832031 40.488281 C 39.328125 40.992188 37.816406 42.503906 35.796875 42 Z M 35.292969 41.847656 "/>
<path style=" stroke:none;fill-rule:evenodd;fill:url(#linear9);" d="M 36.808594 41.847656 C 36.808594 41.847656 35.292969 39.832031 37.3125 37.816406 C 38.320312 36.808594 39.832031 37.363281 39.832031 37.5625 C 40.335938 38.066406 40.085938 40.085938 39.429688 40.589844 C 39.023438 41.09375 37.914062 42.101562 36.402344 41.597656 Z M 36.808594 41.847656 "/>
<path style=" stroke:none;fill-rule:evenodd;fill:rgb(0%,0%,0%);fill-opacity:1;" d="M 39.328125 39.832031 C 39.296875 40.839844 38.824219 41.34375 37.816406 41.34375 C 36.808594 41.3125 36.300781 40.839844 36.300781 39.832031 C 36.332031 38.824219 36.808594 38.320312 37.816406 38.320312 C 38.824219 38.347656 39.328125 38.824219 39.328125 39.832031 Z M 39.328125 39.832031 "/>
<path style=" stroke:none;fill-rule:evenodd;fill:rgb(100%,100%,100%);fill-opacity:1;" d="M 37.261719 39.328125 C 37.261719 39.578125 37.058594 39.78125 36.808594 39.78125 C 36.554688 39.78125 36.351562 39.578125 36.351562 39.328125 C 36.351562 39.078125 36.554688 38.875 36.808594 38.875 C 37.058594 38.875 37.261719 39.078125 37.261719 39.328125 Z M 37.261719 39.328125 "/>
<path style=" stroke:none;fill-rule:evenodd;fill:url(#linear10);" d="M 102.855469 36.808594 C 95.796875 25.714844 89.746094 23.191406 89.746094 23.191406 C 89.746094 23.191406 90 31.261719 93.78125 35.292969 C 94.234375 35.746094 88.738281 31.765625 88.738281 31.765625 C 88.738281 31.765625 87.730469 35.292969 90.253906 39.832031 C 89.746094 38.824219 89.242188 38.320312 89.242188 38.320312 C 89.242188 38.320312 84.203125 40.335938 83.191406 43.867188 C 82.6875 42.351562 81.679688 41.847656 81.679688 41.847656 C 81.679688 41.847656 78.152344 48.402344 78.65625 56.46875 C 79.160156 69.074219 76.132812 73.613281 76.132812 73.613281 C 76.132812 73.613281 84.203125 70.589844 88.234375 60.503906 C 89.746094 65.042969 88.183594 69.578125 88.183594 69.578125 C 88.183594 69.578125 94.738281 64.539062 96.253906 55.460938 C 97.765625 57.984375 97.261719 63.023438 97.261719 63.023438 C 97.261719 63.023438 101.292969 56.976562 101.796875 50.925781 C 103.816406 52.4375 103.816406 57.480469 103.816406 57.480469 C 103.816406 57.480469 109.867188 49.410156 102.300781 37.816406 Z M 102.855469 36.808594 "/>
<path style=" stroke:none;fill-rule:evenodd;fill:url(#linear11);" d="M 95.796875 29.242188 C 93.78125 25.714844 90.757812 23.699219 87.730469 21.679688 C 80.167969 17.144531 75.628906 16.636719 75.628906 16.636719 C 75.628906 16.636719 69.074219 17.648438 70.085938 19.664062 C 70.132812 19.765625 70.285156 19.867188 70.488281 20.015625 C 64.4375 17.496094 61.410156 23.546875 61.410156 23.546875 C 57.882812 23.34375 53.847656 25.058594 52.839844 29.597656 C 52.738281 30.050781 54.351562 29.796875 55.363281 30 C 60.402344 31.007812 64.941406 33.53125 66.957031 34.539062 C 72 37.058594 75.023438 41.597656 76.539062 45.125 C 78.554688 49.160156 79.5625 56.21875 79.5625 56.21875 C 79.5625 56.21875 85.109375 48.65625 83.597656 45.125 C 85.613281 46.636719 86.117188 51.175781 86.117188 51.175781 C 86.117188 51.175781 89.648438 45.628906 88.636719 40.589844 C 91.664062 42.101562 91.664062 45.628906 91.664062 45.628906 C 91.664062 45.628906 94.6875 41.597656 93.175781 35.042969 C 96.203125 37.058594 96.707031 40.085938 96.707031 40.085938 C 96.707031 40.085938 99.226562 34.035156 96.453125 28.992188 Z M 95.796875 29.242188 "/>
</g>
</svg>
