<svg width="2500" height="2500" version="1.1" viewBox="0 0 64 64" xmlns="http://www.w3.org/2000/svg"><g transform="translate(5.8 8.93)"><linearGradient id="a" x1="-1715" x2="-1651" y1="1855" y2="1855" gradientTransform="rotate(-90 -1744 84.8)" gradientUnits="userSpaceOnUse"><stop stop-color="#0bd1ff" offset="0"/><stop stop-color="#1587ff" offset="1"/></linearGradient><path d="m58.2 55.1v-64h-64v64z" fill="url(#a)"/><linearGradient id="b" x1="-925" x2="-925" y1="1069" y2="1090" gradientTransform="matrix(.791 0 0 -.791 748 869)" gradientUnits="userSpaceOnUse"><stop stop-color="#ffef3f" offset="0"/><stop stop-color="#ffc001" offset="1"/></linearGradient><path d="m24.6 19.1a8.3 8.3 0 1 1-8.3-8.3 8.3 8.3 0 0 1 8.3 8.3z" fill="url(#b)"/><g transform="matrix(.791 0 0 .791 -2.26 -780)" opacity=".95"><linearGradient id="c" x1="-1149" x2="-1149" y1="2329" y2="2349" gradientTransform="matrix(.791 0 0 -.791 947 2865)" gradientUnits="userSpaceOnUse"><stop stop-color="#fff" offset="0"/><stop stop-color="#fff" stop-opacity=".755" offset="1"/></linearGradient><path d="m35 1e3c-6.63 0-12 5.37-12 12v0.156c-3.42 0.699-6 3.72-6 7.34a7.5 7.5 0 0 0 7.5 7.5c0.166 0 0.337-0.021 0.5-0.031v0.031h24v-0.031c5.56-0.266 10-4.84 10-10.5 0-5.8-4.7-10.5-10.5-10.5-0.996 0-1.96 0.147-2.87 0.406a12 12 0 0 0-10.6-6.4z" fill="url(#c)"/></g></g></svg>
