<svg width="23.019mm" height="21.892mm" version="1.1" viewBox="0 0 23.019 21.892" xmlns="http://www.w3.org/2000/svg"><path d="m23.029 8.36-7.9534-1.1562-3.556-7.2046-3.556 7.2072-7.9534 1.1536 5.7547 5.6092-1.3573 7.9216 7.112-3.7386 7.112 3.7386-1.3573-7.9216zm-5.0985 12.562-6.1648-3.2411h-0.49212l-6.1648 3.2411 1.1774-6.8633-0.15081-0.46831-4.9874-4.8604 6.8792-1.0001 0.39952-0.2884 3.093-6.2468 3.0824 6.2442 0.39952 0.2884 6.8792 1.0001-4.9768 4.863-0.15346 0.46831z" fill="#ffb804" stroke-width=".26458"/><polygon transform="matrix(.26458 0 0 .26458 -28.168 -2.0196)" points="136.84 36.84 110.8 40.63 129.65 59 130.22 60.77 125.77 86.72 149.07 74.47 150 74.47 150 12.15 138.35 35.75" fill="#f90"/></svg>
