<svg width="100" height="100" version="1.1" viewBox="52 42 100 100" xmlns="http://www.w3.org/2000/svg" xmlns:xlink="http://www.w3.org/1999/xlink"><g transform="translate(6 17)" fill-rule="evenodd"><g id="g838"><path d="m58 108h14v-34l-20-15v43c0 3 3 6 6 6" fill="#4285f4" fill-rule="evenodd"/><path d="m120 108h14c3 0 6-3 6-6v-43l-20 15" fill="#34a853" fill-rule="evenodd"/><path d="m120 48v26l20-15v-8c0-7-8-12-14-7" fill="#fbbc04" fill-rule="evenodd"/><path d="m72 74v-26l24 18 24-18v26l-24 18" fill="#ea4335" fill-rule="evenodd"/><path d="m52 51v8l20 15v-26l-6-4c-6-4-14-0.2-14 7" fill="#c5221f" fill-rule="evenodd"/></g></g><use transform="translate(6 17)" width="100%" height="100%" xlink:href="#g838"/></svg>
