<svg width="10mm" height="10mm" version="1.1" viewBox="0 0 10 10" xmlns="http://www.w3.org/2000/svg"><g transform="matrix(.051 0 0 .051 .37 .06)"><g transform="matrix(.42 0 0 .42 -15 -10)"><path d="m364 180c-25-36-65-57-109-57-36 0-70 14-96 41l-5.8 6-51-44 6.4-6.8c19-20 41-35 65-46 26-11 53-17 81-17 33 0 66 8.1 95 24 29 15 54 38 72 65l2.4 3.5c1.6 2.3 0.84 5.5-1.6 6.9l-50 30c-2.2 1.3-5 0.68-6.5-1.4z" fill="#cd2900"/></g><g transform="matrix(.42 0 0 .42 -16 -9.7)"><path d="m80 354c-17-30-26-64-26-98 0-45 15-88 43-124l5.7-7.3 51 44-5.1 6.7c-18 23-27 51-27 81 0 22 5.5 44 16 63l4 7.4-58 36z" fill="#ffce00"/></g><g transform="matrix(.42 0 0 .42 -16 -9.3)"><path d="m255 457c-66 0-129-33-166-88l-5.2-7.7 58-36 4.8 6.9c25 35 66 57 109 57 36 0 71-15 96-41l5.8-6 51 44-6.4 6.8c-19 20-41 36-65 47-26 11-53 17-81 17z" fill="#40a459"/></g><path d="m134 134 2.1-2.8c3.4-4.5 6.1-9.5 8.1-15l-41-8.4e-4c-1.1 0-2-0.92-2-2v-24c0-1.1 0.92-2 2-2h71c0.98 0 1.8 0.78 1.8 1.8l0.2 7.9c-0.01 19-6.2 37-18 52l-2.4 3.1z" fill="#1d81ce" stroke-width=".42"/></g></svg>
