<svg width="80" height="80" enable-background="new 0 0 1000 146.895" version="1.1" viewBox="0 0 80 80" xml:space="preserve" xmlns="http://www.w3.org/2000/svg">


<g transform="matrix(2 0 0 2 17 8)" stroke-width="5"><path class="a" d="m7 22h-7v5a2 2 0 0 0 2 2h5z" fill="#00832d"/><path class="b" d="m7 0h-5a2 2 0 0 0-2 2v20h7v-15h7v-7z" fill="#ffba00"/><path class="c" d="m21 22h-7v7h5a2 2 0 0 0 2-2z" fill="#0066da"/><path class="d" d="m14 22h-7v7h7z" fill="#00ac47"/><path class="e" d="m14 7v15h7v-15z" fill="#2684fc"/><path class="f" d="m14 0v7h7z" fill="#ea4335"/></g></svg>
