<svg width="78" height="78" version="1.1" viewBox="0 0 78 78" xmlns="http://www.w3.org/2000/svg"><g transform="matrix(.732 0 0 .732 7.06 10.5)" stroke-width="1.87"><path d="m6.6 66.8 3.85 6.65c0.8 1.4 1.95 2.5 3.3 3.3l13.8-23.8h-27.5c0 1.55 0.4 3.1 1.2 4.5z" fill="#0066da"/><path d="m43.6 25-13.8-23.8c-1.35 0.8-2.5 1.9-3.3 3.3l-25.4 44a9.06 9.06 0 0 0-1.2 4.5h27.5z" fill="#00ac47"/><path d="m73.6 76.8c1.35-0.8 2.5-1.9 3.3-3.3l1.6-2.75 7.65-13.2c0.8-1.4 1.2-2.95 1.2-4.5h-27.5l5.85 11.5z" fill="#ea4335"/><path d="m43.6 25 13.8-23.8c-1.35-0.8-2.9-1.2-4.5-1.2h-18.5c-1.6 0-3.15 0.45-4.5 1.2z" fill="#00832d"/><path d="m59.8 53h-32.3l-13.8 23.8c1.35 0.8 2.9 1.2 4.5 1.2h50.8c1.6 0 3.15-0.45 4.5-1.2z" fill="#2684fc"/><path d="m73.4 26.5-12.7-22c-0.8-1.4-1.95-2.5-3.3-3.3l-13.8 23.8 16.2 28h27.4c0-1.55-0.4-3.1-1.2-4.5z" fill="#ffba00"/></g></svg>
