<svg width="132" height="132" version="1.1" xmlns="http://www.w3.org/2000/svg" xmlns:xlink="http://www.w3.org/1999/xlink"><defs><radialGradient id="c" cx="158" cy="578" r="65" gradientTransform="matrix(0 -2 1.8 0 -1e3 454)" gradientUnits="userSpaceOnUse"><stop stop-color="#fd5" offset="0"/><stop stop-color="#fd5" offset=".1"/><stop stop-color="#ff543e" offset=".5"/><stop stop-color="#c837ab" offset="1"/></radialGradient><radialGradient id="d" cx="148" cy="473" r="65" gradientTransform="matrix(.17 .87 -3.6 .72 1648 -458)" gradientUnits="userSpaceOnUse"><stop stop-color="#3771c8" offset="0"/><stop stop-color="#3771c8" offset=".13"/><stop stop-color="#60f" stop-opacity="0" offset="1"/></radialGradient></defs><path transform="translate(1 1)" d="m65 0c-27 0-35 0.028-37 0.16-5.6 0.46-9 1.3-13 3.2-2.9 1.4-5.2 3.1-7.5 5.5-4.1 4.3-6.6 9.6-7.5 16-0.44 3-0.57 3.7-0.59 19-0.01 5.2 0 12 0 21 0 27 0.03 35 0.16 37 0.45 5.4 1.3 8.8 3.1 13 3.4 7.1 10 12 18 14 2.7 0.69 5.6 1.1 9.4 1.2 1.6 0.07 18 0.12 34 0.12s33-0.02 34-0.1c4.4-0.21 7-0.55 9.8-1.3 7.8-2 14-7.3 18-15 1.8-3.6 2.7-7.2 3.1-12 0.088-1.1 0.12-19 0.12-37 0-18-0.04-36-0.13-37-0.41-5.2-1.3-8.7-3.1-12-1.5-3-3.2-5.3-5.6-7.6-4.3-4.1-9.6-6.6-16-7.5-3-0.44-3.6-0.57-19-0.6h-21z" fill="url(#c)"/><path transform="translate(1 1)" d="m65 0c-27 0-35 0.028-37 0.16-5.6 0.46-9 1.3-13 3.2-2.9 1.4-5.2 3.1-7.5 5.5-4.1 4.3-6.6 9.6-7.5 16-0.44 3-0.57 3.7-0.59 19-0.01 5.2 0 12 0 21 0 27 0.03 35 0.16 37 0.45 5.4 1.3 8.8 3.1 13 3.4 7.1 10 12 18 14 2.7 0.69 5.6 1.1 9.4 1.2 1.6 0.07 18 0.12 34 0.12s33-0.02 34-0.1c4.4-0.21 7-0.55 9.8-1.3 7.8-2 14-7.3 18-15 1.8-3.6 2.7-7.2 3.1-12 0.088-1.1 0.12-19 0.12-37 0-18-0.04-36-0.13-37-0.41-5.2-1.3-8.7-3.1-12-1.5-3-3.2-5.3-5.6-7.6-4.3-4.1-9.6-6.6-16-7.5-3-0.44-3.6-0.57-19-0.6h-21z" fill="url(#d)"/><path d="m66 18c-13 0-15 0.057-20 0.29-5.1 0.23-8.6 1-12 2.2-3.2 1.2-5.8 2.9-8.5 5.5-2.7 2.7-4.3 5.3-5.5 8.5-1.2 3.1-2 6.5-2.2 12-0.23 5.1-0.29 6.8-0.29 20s0.058 15 0.29 20c0.24 5.1 1 8.6 2.2 12 1.2 3.2 2.9 5.8 5.5 8.5 2.7 2.7 5.3 4.3 8.5 5.5 3.1 1.2 6.5 2 12 2.2 5.1 0.23 6.8 0.29 20 0.29 13 0 15-0.057 20-0.29 5.1-0.23 8.6-1 12-2.2 3.2-1.2 5.8-2.9 8.5-5.5 2.7-2.7 4.3-5.3 5.5-8.5 1.2-3.1 2-6.5 2.2-12 0.23-5.1 0.29-6.8 0.29-20s-0.06-15-0.29-20c-0.24-5.1-1-8.6-2.2-12-1.2-3.2-2.9-5.8-5.5-8.5-2.7-2.7-5.3-4.3-8.5-5.5-3.1-1.2-6.6-2-12-2.2-5.1-0.23-6.8-0.29-20-0.29zm-4.3 8.6c1.3-2e-3 2.7 0 4.3 0 13 0 14 0.046 19 0.28 4.7 0.21 7.2 1 8.9 1.7 2.2 0.87 3.8 1.9 5.5 3.6 1.7 1.7 2.7 3.3 3.6 5.5 0.66 1.7 1.4 4.2 1.7 8.9 0.23 5.1 0.28 6.6 0.28 19s-0.05 14-0.28 19c-0.21 4.7-1 7.2-1.7 8.9-0.87 2.2-1.9 3.8-3.6 5.5-1.7 1.7-3.3 2.7-5.5 3.6-1.7 0.66-4.2 1.4-8.9 1.7-5.1 0.23-6.6 0.28-19 0.28-13 0-14-0.05-19-0.28-4.7-0.22-7.2-1-8.9-1.7-2.2-0.87-3.8-1.9-5.5-3.6s-2.7-3.3-3.6-5.5c-0.66-1.7-1.4-4.2-1.7-8.9-0.23-5.1-0.28-6.6-0.28-19s0.046-14 0.28-19c0.21-4.7 1-7.2 1.7-8.9 0.87-2.2 1.9-3.8 3.6-5.5s3.3-2.7 5.5-3.6c1.7-0.66 4.2-1.4 8.9-1.7 4.4-0.2 6.1-0.26 15-0.27zm30 8c-3.2 0-5.8 2.6-5.8 5.8 0 3.2 2.6 5.8 5.8 5.8s5.8-2.6 5.8-5.8-2.6-5.8-5.8-5.8zm-26 6.7c-14 0-25 11-25 25s11 25 25 25 25-11 25-25-11-25-25-25zm0 8.6c8.8 0 16 7.2 16 16 0 8.8-7.2 16-16 16-8.8 0-16-7.2-16-16 0-8.8 7.2-16 16-16z" fill="#fff"/></svg>
