<svg width="50" height="50" version="1.1" viewBox="0 0 50 624" xmlns="http://www.w3.org/2000/svg"><title>Iroco</title><rect x="-287" y="-6.29e-14" width="624" height="624" fill="#211d28" stroke-width="12.5"/><g transform="matrix(1.35 0 0 1.35 -114 143)" stroke-width=".547"><path transform="translate(-.44 -.49)" d="m123 144a30.6 30.6 0 0 0-8.07 1.23 5.53 5.53 0 0 0-3.46 3.53 28 28 0 0 0-0.92 8.46v76.2a28 28 0 0 0 0.92 8.46 5.53 5.53 0 0 0 3.46 3.53 30.2 30.2 0 0 0 8.07 1.23v3.06q-7.06-0.45-19.5-0.46-13.2 0-19.7 0.46v-3.07a30.3 30.3 0 0 0 8.07-1.23 5.49 5.49 0 0 0 3.45-3.53 27.6 27.6 0 0 0 0.93-8.46v-76.2a27.6 27.6 0 0 0-0.93-8.46 5.49 5.49 0 0 0-3.45-3.53 30.8 30.8 0 0 0-8.07-1.23v-3.08q6.45 0.47 19.7 0.47 12.3 0 19.5-0.47z" fill="#fff"/><path transform="translate(-.44 -.49)" d="m64.6 199a103 103 0 1 1 77.1 0l-7.41-18.3a83 83 0 1 0-62.3 0z" fill="#00d692"/></g></svg>
