<svg aria-label="Chrome" role="img" version="1.1" viewBox="0 0 512 512" xmlns="http://www.w3.org/2000/svg" xmlns:xlink="http://www.w3.org/1999/xlink"><defs><linearGradient id="A" x1="338" x2="266" y1="668" y2="703" gradientTransform="matrix(.465 0 0 .465 69.9 -103)" gradientUnits="userSpaceOnUse" xlink:href="#i"/><linearGradient id="i"><stop stop-color="#212a3a" offset="0"/><stop stop-color="#404e67" stop-opacity="0" offset="1"/></linearGradient><linearGradient id="z" x1="280" x2="387" y1="688" y2="668" gradientTransform="matrix(.465 0 0 .465 208 -137)" gradientUnits="userSpaceOnUse" xlink:href="#i"/><linearGradient id="y" x1="301" x2="368" y1="646" y2="655" gradientTransform="matrix(-.176 -.0133 .0266 -.351 374 406)" gradientUnits="userSpaceOnUse" xlink:href="#i"/><linearGradient id="x" x1="246" x2="367" y1="690" y2="632" gradientTransform="matrix(.176 0 0 .352 271 -93.2)" gradientUnits="userSpaceOnUse" xlink:href="#i"/><linearGradient id="w" x1="297" x2="310" y1="667" y2="714" gradientTransform="matrix(.465 0 0 .465 86.6 15)" gradientUnits="userSpaceOnUse" xlink:href="#i"/><linearGradient id="v" x1="396" x2="370" y1="591" y2="572" gradientTransform="matrix(1.89 0 0 1.89 -541 -746)" gradientUnits="userSpaceOnUse" xlink:href="#e"/><linearGradient id="e"><stop stop-color="#fff" offset="0"/><stop stop-color="#fff" stop-opacity="0" offset="1"/></linearGradient><linearGradient id="u" x1="394" x2="446" y1="502" y2="485" gradientTransform="matrix(1.89 0 0 1.89 -541 -746)" gradientUnits="userSpaceOnUse" xlink:href="#e"/><linearGradient id="t" x1="473" x2="458" y1="500" y2="478" gradientTransform="matrix(1.89 0 0 1.89 -541 -746)" gradientUnits="userSpaceOnUse" xlink:href="#e"/><linearGradient id="s" x1="481" x2="405" y1="418" y2="317" gradientTransform="matrix(.465 0 0 .465 86.6 15)" gradientUnits="userSpaceOnUse" xlink:href="#g"/><linearGradient id="g"><stop stop-color="#ff8000" offset="0"/><stop stop-color="#ffc768" offset=".341"/><stop stop-color="#ffc768" offset=".712"/><stop stop-color="#ff8400" offset="1"/></linearGradient><linearGradient id="r" x1="523" x2="586" y1="169" y2="161" gradientTransform="matrix(.465 0 0 .465 86.6 15)" gradientUnits="userSpaceOnUse"><stop stop-color="#ff8000" offset="0"/><stop stop-color="#fff4e1" offset=".5"/><stop stop-color="#fff4e1" offset=".75"/><stop stop-color="#ff8400" offset="1"/></linearGradient><linearGradient id="q" x1="410" x2="468" y1="559" y2="676" gradientTransform="matrix(.465 0 0 .465 86.6 15)" gradientUnits="userSpaceOnUse" xlink:href="#g"/><linearGradient id="p" x1="414" x2="424" y1="485" y2="542" gradientTransform="matrix(1.96 0 0 1.92 -565 -759)" gradientUnits="userSpaceOnUse" xlink:href="#e"/><linearGradient id="o" x1="197" x2="147" y1="704" y2="786" gradientTransform="matrix(.465 0 0 .465 86.6 15)" gradientUnits="userSpaceOnUse"><stop stop-color="#ffc768" offset="0"/><stop stop-color="#ff8400" offset=".378"/><stop stop-color="#ff8400" offset=".774"/><stop stop-color="#ffc768" offset="1"/></linearGradient><linearGradient id="n" x1="529" x2="458" y1="512" y2="527" gradientTransform="matrix(1.89 0 0 1.89 -541 -746)" gradientUnits="userSpaceOnUse" xlink:href="#e"/><linearGradient id="m" x1="390" x2="309" y1="763" y2="420" gradientTransform="matrix(.465 0 0 .465 86.6 15)" gradientUnits="userSpaceOnUse"><stop stop-color="#ff8000" offset="0"/><stop stop-color="#fff4e1" offset=".663"/><stop stop-color="#fff4e1" offset=".75"/><stop stop-color="#ff8400" offset="1"/></linearGradient><linearGradient id="l" x1="416" x2="436" y1="620" y2="486" gradientTransform="matrix(1.89 0 0 1.89 -541 -746)" gradientUnits="userSpaceOnUse"><stop stop-color="#0f3060" offset="0"/><stop stop-color="#0575ce" offset=".457"/><stop stop-color="#0575ce" offset=".738"/><stop stop-color="#0f3060" offset="1"/></linearGradient><linearGradient id="k" x1="383" x2="347" y1="585" y2="645" gradientTransform="matrix(1.89 0 0 1.89 -541 -746)" gradientUnits="userSpaceOnUse"><stop stop-color="#092d61" offset="0"/><stop stop-color="#0575ce" offset="1"/></linearGradient><linearGradient id="j" x1="440" x2="470" y1="456" y2="558" gradientTransform="matrix(1.89 0 0 1.89 -541 -746)" gradientUnits="userSpaceOnUse"><stop stop-color="#0f3060" offset="0"/><stop stop-color="#0575ce" offset=".271"/><stop stop-color="#0575ce" offset=".733"/><stop stop-color="#0f3060" offset="1"/></linearGradient></defs><path d="m121 471c-1.13-2.49-2.06-4.73-2.06-4.98 0-0.252-3.94-21-4.38-26.3-1.96-23.2-5.05-25.5-4.19-46.2 0.522-12.5-1.22-16.8 2.48-27.1 7.63-21.1 13.2-29.4 23.1-34.4 8.04-4.01 15.6-3.47 22.7 1.64 1.87 1.35 8.13 5.58 13.9 9.42 5.79 3.83 12.7 8.48 15.3 10.3 2.61 1.85 6.97 4.51 9.69 5.92 4.79 2.49 4.96 2.53 5.94 1.27 2.13-2.76 7.28-10.5 10.1-14.2 14-18.5 0.814-16.5-2.47-17.4-5.16-1.52-7.34-3.75-12.2-9.4-11.2-13.1-16.5-27.7-17.3-45.8-0.91-21 1.2-37.9 10.4-47.5 3.95-4.12 12.3-10.1 19.9-14.3 6.47-3.54 46.1-10.9 49.6-9.4 1.74 0.77-6.88-22-1.92-51.6 0.986-5.89 7.68-24.1 8.39-25.3 1.75-3.06 30.5-12.9 38.7-17.7 9.15-5.37 28.9-18.3 30.4-27.9 3.28-21.2 3.86-30.2 5.22-31 2.03-1.18 15.6 26.8 6.42 53.2-1.81 5.21-10.5 17.3-14.3 22.4-2.79 3.64 3.27 5.35 6.75 10.6 3.17 4.79 5.25 16.5 5.66 22.5 0.416 6.19-1.54 18.9-3.3 21.4-0.711 1.01-1 2-0.651 2.22 0.348 0.216 2.71-0.0662 5.25-0.624 2.54-0.56 8.05-1.45 12.2-1.98 7.46-0.94 7.73-0.927 12.8 0.63 7.59 2.33 44.5 11.3 21 114-7.81 34.2-44.3 79.3-48.8 75.8l-11.3-8.6-13 19.3c-6.64 6.82-13.8 13.4-18 16.6-6.66 5-20 12.9-21.8 12.9-0.464 0-3.09 1.08-5.83 2.39-7.94 3.81-19.8 6.93-32.4 7.75-48.8 3.16-30.2-2.73-70.5-22.3-3.18-1.54-10.5 6.24-19.4 14.3-9.43 8.58-14.4 15.1-18.1 23.9a1184 1184 0 0 1-4.38 10.2c-3.11 7.09-5.67 16.9-6.05 23.2-0.185 3.08-0.596 5.76-0.91 5.95-0.316 0.195-1.5-1.68-2.63-4.17zm53.6-86.9c6.25-1.58 6.93-1.93 13.7-6.96 4.82-3.6 7.8-10.1 9.08-10.7 8.39-3.72-6.26-7.07-11.7-10.8-5.48-3.69-12.6-6.42-17.4-10.1-4.85-3.7-9.05-6.59-9.33-6.41-0.284 0.174-0.52 2.66-0.528 5.52-0.0189 8.35-1.14 16.7-2.7 20.2-0.797 1.78-1.6 5.22-1.79 7.64-0.431 5.6 0.874 8.3 5.51 11.4 3.91 2.61 5.53 2.62 15.3 0.155zm226-158c-2.04-13.7-0.35-32.5-11-39.3-24.6-15.8-27.3-0.132-28.8 3.33-2.48 5.69-4.01 10.3-2.12 16.6 5.78 19.2 13.2 36.2 16.7 49.9 4.03 15.7 8.47 25.6 8.92 37.9 0.314 8.73 0.233 9.65-1.05 11.7-1.83 2.87-29.4 9.89-43.3 14-4.77 1.41-0.545 11.6-1.09 14.9-0.547 3.35-8.02 22.1-5.61 25.8 23.7 37.1 76.1-76.1 67.4-135zm-51.1 91.3c3.71-0.891 7.17-1.98 7.7-2.42 0.53-0.437 1.87-0.727 2.99-0.643 1.99 0.151 9.8-2.31 10.4-3.27 0.168-0.274 7.14-3.91 5.74-4.83s-28.6-20.9-32.5-23c-45-23.4-68.6-25.1-83.5-22.1-25.4 5.13-47.4 18-50.1 21.2-0.798 0.961 39.8-12.6 68.7 1.65 5.33 2.63 16.3 7.16 24.6 16 7.56 8.09 14.4 16.6 19.9 18.1 5.88 1.57 17.9 1.23 26.1-0.738zm-54.2-96.7c14.2-2.49 36.3-32.1 34.6-34.8-0.233-0.375 4.27-7.84 3.54-7.99-26.6-5.31-26-31.8-26.4-32.1-0.384-0.236-39.3 18.4-48.3 22.2-7.61 3.29 1.09 22.9 5.68 35.1 2.04 5.42 13.3 12.6 17.8 15.6 5.35 3.48 11.8 2.23 13 2.02zm30.7-90.3c7.69-6.06 28.2-36.4 26-48.7-8.85-50.1-12.7-19.1-13.2-14.6-0.235 1.85-0.904 5.96-1.49 9.12a261 261 0 0 0-1.66 10.2c-0.325 2.42-1.23 6.68-2 9.48a506 506 0 0 0-2.72 10.3c-0.721 2.88-3.15 9.98-5.4 15.8-2.25 5.79-4.09 10.7-4.09 10.8 0 0.846 1.56 0.0511 4.59-2.34z" fill="url(#j)" stroke-width="1.89"/><g fill-rule="evenodd" stroke-width="1.89"><path d="m123 469c12-49.8 22.9-55.4 51.5-73.8-6.3-3.58-21.8-15.4-21.8-21.8 0.108-18.4 3.15-50.6-17.2-37.2-38.6 25.3-24.6 106-12.6 133z" fill="url(#k)"/><path d="m165 389c17 12.8 32 24.2 42.7 30.2 104 5.26 130-52.2 132-99.3-9.25 0.424-25-1.84-33.5-14.6-21.2 6.96-85.5 26.5-86.6 30.9-5.8 22.8-23 41.2-54.4 52.9z" fill="url(#l)"/><path d="m346 370c62.8-46.7 54.7-140 55.7-145 2.58-12.2-12.6-53.5-30.8-45.9-30.3 12.6 21.3 84.1 14.4 123-1.44 8.17-26.5 14.2-43.5 16.8-1.96 0.303-0.219 26.7-8.75 38.8-1.22 1.74 11.7 12.9 12.9 12z" fill="url(#m)"/><path d="m354 363c80.4-79 39.7-220 11.6-179 38.6-7.8 44.7 122-11.6 179z" fill="url(#n)"/><path d="m202 365c1.49-2.01-26.3-11.5-43-26.6-1.86-1.67-2.16 24.4-3.92 35.3-1.09 6.76 10.4 13.6 13 14.4 2.18 0.704 27.8-14.9 33.9-23.1z" fill="url(#o)"/><path d="m180 289c-9.65-48.9 7.91-77.7 78.3-87.8 0.341 1.08 78.2-25.1 106-25.3-7.42 11.8 0.0813 40.9 9.1 64.9 0 0-65.9 17.2-193 48.2z" fill="url(#p)"/><path d="m214 281c8.35-2.99 32.2-10.2 60.7-0.288 19.5 6.79 30.7 23.9 39.1 30.5 19.8 15.5 56.4-1.72 63-1.61 2.72 0.0416-49.1-46.5-88.2-48.9-52.6-3.17-85.4 24.2-74.6 20.3z" fill="url(#q)"/><path d="m342 49.8c-0.289 15.9-5.29 53.9-21.4 79.8-7.37 11.9 27.5-15.7 31.2-39.3 2.06-13-9.59-53.1-9.83-40.5z" fill="url(#r)"/><path d="m290 223c17.5-8.93 33.4-20.7 43.5-42.5 1.71-3.69-8.33-0.11-16-11.1-7.63-10.8-5.83-21.8-12.4-21-20.4 2.75-47.7 22-47.7 22s1.57 21.1 7.09 29.7c11.4 17.7 25.5 22.8 25.5 22.8z" fill="url(#s)"/><path d="m317 168c5.16 18.7 33.8 15.3 27.8-21.1-2.58 3.78-9.04 24.5-27.8 21.1z" fill="url(#t)" opacity=".552"/><path d="m287 222c-9.65-6.56-18-14.7-23.3-23.4-5.34-8.64-7.68-52.7 1.3-63.6 4.93-12 22.4-23.7 41.8-28.8-36.9 42.8-24.9 108 7.71 101 1.63-0.314-24.3 14.6-27.5 14.5z" fill="url(#u)"/><path d="m158 337c7.21 5.33 38.3 29.4 45.1 25.6-15.9 38.9-57.8 5.95-45.1-25.6z" fill="url(#v)"/></g><path d="m287 118c-7.47 4.35-16.4 9.22-18.2 13.6-5.98 12.6-8.23 35.1-6.4 33.8 17.8-12.6 38.3-16.1 45.8-22.9 22.2-20 30.8-61.5 26.1-55.3-15.1 19.9-39.6 26.3-47.3 30.8zm-116 278s-21-14.5-20.6-19.2c3.21-38.7-3.65-40.9-7.11-40.5-4.18 0.496-25.9 14.2-30.1 52.9-3.07 28.1 8.02 72 9.71 74.3 8.75-23.5 5.33-42.4 48.1-67.6zm229-171c-1.04-29-18.5-48.9-30.3-44.2-5.03 1.98-8.4 15.5-6.64 23.8 1.57 7.42 12.2 36.1 13 38.6 1.81 5.74 14.1 40.9 11.9 57.8-1.91 14.8-44.9 19.9-44.9 19.9s-0.722 12.1-2.2 20.2c-1.82 10-5.43 17.9-5.43 17.9s9.35 8.71 9.73 8.7c0.378-9e-3 58.9-31.6 54.9-143zm-44.8 89.8c3.02-0.846 20.9-5.57 19.9-6.19-6.62-4.34-14.2-9.81-26.8-19.6-70.1-54.5-134-8.6-133-9.02 11.6-3.87 23.9-6.06 41-4.92 13.8 0.919 35.4 7.89 54.3 30.5 7.04 8.4 15 14.1 44.1 9.3zm-31.3-118c2.12-1.83 9.49-15.7 8.16-16.1-18.6-4.52-20.4-12.8-22.2-21.7-1.7-8.39-1.44-9.58-4.97-8.42-28.5 9.4-36.3 14.6-40.7 18.2-6.82 5.66-2.04 20.9 0.631 26.9 3.72 8.43 17.4 23.7 23.8 24.9 9.28 1.79 31.2-17.2 35.4-23.9zm20.7-51.4c-1.54-6.31-6.5-14.4-7.82-14.4-1.24 0-14.4 10.2-17.8 13.7-7.72 8.06-3.96 22.7 4.61 27.7 14.5 8.48 25.1-10.2 21-27zm-10.9-24.1c6.34-6.34 14.8-16.7 17-32.5 0.879-6.19 1.39-11.6-2.46-23.9-0.893-2.84-3.61-11-3.71-9.93-2 21.2-4.94 44.8-18.8 69.9-4.35 7.87-2.01 6.44 7.96-3.52zm-149 126c-7.56 31.7 12.5 73.3 28.7 75.7 15.7 2.29 60.6-11.3 84.2-17.8 6.18-1.72 9.5-0.822-4.17-12.3-21.4-14.6-38.7-16.4-56-14.5-19 2.16-33.3 7.79-31.9 6.67 8.72-7.3 24.3-20.4 54.3-26.3 13-2.57 33.2-2.8 57.5 6.7 30.2 11.8 45.9 29.2 58.6 35.2 4.54 2.11 6.16 1.13 7.96-4.14 3.01-8.83-15.3-63.9-21.9-80-10.1-24.5 1.68-36.2-0.892-35.7-12.5 2.75-23.5 10.8-32.7 19.1-22.6 20.2-36.3 24.5-38.4 24.3-6.45-0.548-18.5-12-22.9-17.8-2.8-3.7-52.8 5.96-67.6 18.8-0.338 0.293-11.7 7.6-14.8 22zm-16 138c16.5-6.93 32.7-21.6 31.3-21.9-8.57-1.49-40.2-23.1-40.2-22.9 1.09 11.2-1.35 21.2-2.46 32.3-0.463 4.62 5.69 11.8 11.3 12.5zm53.3-48.4c-3.16 7.04-6.45 34.7-52.1 52.5-1.32 0.514 38.2 27.6 40.4 27.7 131 5.73 130-93.8 128-96.3-0.251-0.363-11.4 0.0261-20.1-4.08-0.66-0.313-6.53-3.34-10-7.9-1.19-1.55-1.37-2.39-5.77-1.11-20.4 5.92-81.2 27.7-80.2 29.2zm-40.7-48.5c-23.3-81.5 58.5-85.3 71.5-88.4 10-2.43 7.85-3.37 5.73-12.9-2.97-13.3-2.05-25 0.502-37.4 2.41-11.8 3.65-17.7 8.74-23.6 4.1-4.76 27.2-15.6 32.9-18.4 24.4-11.7 33.7-24.6 36.5-34.7 1.92-7.14 4.73-24.7 3.46-37.3-0.311-3.1 1.69 1.75 11.6 32.6 5.08 15.8 2.58 34.7-13.4 51.8-2.17 2.32-1.12 2.78 1.8 7.61 6.08 10 9.43 22.6 8.49 31.7-0.775 7.48-3.97 14.6 0.601 14 0.661-0.0796 20.9-3.14 34.7 5.65 9.37 5.95 22.7 17.4 19.2 65-7.58 104-58.6 127-58.9 127-0.863 0.0293-10.4-9.88-11-8.71-29.2 60.4-89.6 58.2-123 58.9-6.73 0.127-34.7-23.4-37.1-21.8-29.8 20.4-38.1 25.4-49.5 77.5-0.44-0.825-15.9-28.3-15.3-83.5 0.527-45.3 25.3-66.6 36.3-65.4 13.3 1.5 20 8.46 38.8 20.8 3.36 2.2 15.2 9.37 17.9 9.31 6.72-0.158 11.3-12.5 12.4-20.5 1.11-8.06 2.18-6.11-4.12-8.28-7.93-2.73-21.6-17.6-28.6-41z" fill="#2c3b54" stroke-width=".45"/><g fill-rule="evenodd" stroke-width="1.89"><path d="m222 336c12.3-6.68 81.8-28.4 82.4-29.8 0.454-0.997-81.6 32.7-100 20.2-1.12-0.753 4.34 3.26 9.27 4.27 0.348 0.07 0.324 13-4.35 20.4-1.31 2.06 9.97-13.5 12.8-15.1z" fill="url(#w)"/><path d="m336 131c-7.63 5.32-18.1 12.8-20.3 18.5-1.27 3.38-2.12-9.45 6.53-17.1 4.88-4.31 15.3-2.5 13.8-1.41z" fill="url(#x)"/><path d="m325 174c8.65 2.58 15.3-2.7 19-14.1 0.431-1.34-1.07 9.97-6.44 14.2-5.12 4.01-14.4-0.632-12.5-0.0889z" fill="url(#y)"/><path d="m347 185c12.3-6.68 24.8-5.66 35.5-5.18 7.1 0.322-13.4-7.96-36.6-6.66-2.48 2.11-9.86 14.4-20.3 26.9-1.56 1.87 18.6-13.5 21.4-15.1z" fill="url(#z)"/><path d="m231 212c7.19-1.48 16.2-3.93 22.2-4.53 4.98-0.501 11.2-3.31 16 1.85-2.67-3.66-7.77-11-9.36-15.9 1.45 5.69-5.02 6.49-6.63 6.74-36.2 5.71-57.9 15.5-68.9 33.6 20.8-16.1 45.3-21.5 46.7-21.7z" fill="url(#A)"/></g></svg>
