<svg version="1.1" viewBox="0 0 128 128" xmlns="http://www.w3.org/2000/svg" xmlns:xlink="http://www.w3.org/1999/xlink"><linearGradient id="a"><stop stop-color="#666" offset="0"/><stop stop-color="#333" offset="1"/></linearGradient><linearGradient id="b"><stop stop-color="#0369a3" offset="0"/><stop stop-color="#1c99e0" offset="1"/></linearGradient><linearGradient id="c" x1="446" x2="441" y1="1e3" y2="1e3" gradientTransform="matrix(0 .7 -1 0 1e3 -239)" gradientUnits="userSpaceOnUse"><stop stop-color="#e9b913" offset="0"/><stop stop-color="#ff0" offset="1"/></linearGradient><linearGradient id="d" x2="0" y1="1e3" y2="1e3" gradientTransform="matrix(4 0 0 3 -1e3 -4e3)" gradientUnits="userSpaceOnUse"><stop stop-color="#0369a3" offset="0"/><stop stop-color="#023f62" offset="1"/></linearGradient><linearGradient id="e" x2="0" y1="-630" y2="-636" gradientTransform="translate(-238 759)" gradientUnits="userSpaceOnUse"><stop stop-color="#18a303" offset="0"/><stop stop-color="#106802" offset="1"/></linearGradient><linearGradient id="f" x2="0" y1="1e3" y2="1e3" gradientTransform="matrix(4 0 0 3 -1e3 -4e3)" gradientUnits="userSpaceOnUse" xlink:href="#a"/><linearGradient id="g" x2="0" y1="1e3" y2="1e3" gradientTransform="matrix(-4 0 0 3 1e3 -4e3)" gradientUnits="userSpaceOnUse" xlink:href="#a"/><linearGradient id="h" x2="0" y1="-582" y2="-579" gradientTransform="matrix(4 0 0 3 -817 2e3)" gradientUnits="userSpaceOnUse"><stop stop-color="#63bbee" offset="0"/><stop stop-color="#aadcf7" offset="1"/></linearGradient><linearGradient id="i" x1="108" x2="20" y1="130" y2="14" gradientTransform="matrix(.9 0 0 .9 8 8)" gradientUnits="userSpaceOnUse" xlink:href="#b"/><linearGradient id="j" x1="108" x2="20" y1="122" y2="6" gradientTransform="matrix(.9 0 0 .9 8 8)" gradientUnits="userSpaceOnUse"><stop stop-color="#e6e6e6" offset="0"/><stop stop-color="#fff" offset="1"/></linearGradient><linearGradient id="k" x1="123" x2="112" y1="992" y2="977" gradientTransform="matrix(7 0 0 7 -757 -7e3)" gradientUnits="userSpaceOnUse" xlink:href="#b"/><g stroke-width=".9"><path d="m23 8c-0.2 0-0.4 0.01-0.7 0.03-3 0.6-4 2-4 5v101c4e-4 4 2 5 5 5h81c4-4e-4 5-2 5-5v-63c0.04-2-0.7-4-2-5l-37-37c-1-1-3-2-5-2h-42c-0.2-0.02-0.4-0.03-0.7-0.03zm61 0.01c-0.2 0-0.4 0.01-0.5 0.04-2 0.7-3 4-1 6l21 21c2 2 6 0.3 6-2v-21c-2e-4 -2-2-4-4-4h-21c-0.2-0.03-0.4-0.04-0.6-0.04z" fill="url(#k)"/><path d="m24 13v102h81v-63l-39-39z" fill="url(#j)"/><path d="m35 57v4h16v-4zm19 2e-3v25h37v-25zm3 3h32v19h-32zm-22 4v4h16v-4zm0 7v4h16v-4zm0 7v4h16v-4zm0 7v4h56v-4zm0 7v4h56v-4zm0 7v4h37v-4z" fill="url(#i)"/><path d="m57 60h32v19h-32z" fill="url(#h)"/><path d="m80 65c2 1 6 5 8 7v3h-24c4-5 11-9 16-11z" fill="url(#g)"/><path d="m72 71 0.2-2 5-2 3-1-0.7 2-1 2-0.6 2-0.4 1z" fill="#333"/><path d="m73 70c-3-3-5-5-7-8-0.6 0.2-0.6 0.1-1 0 0 0-3 4-4 6s-4 5-4 5v2h24s-6-4-8-6z" fill="url(#f)"/><path d="m89 74h-1l-6 1s-6-2-7-2c-0.9 0-4 0.5-4 0.5-0.4 0-3-1-3-1-0.9 0-2 1-5 2 0 0-0.8-2-1-2-3 1-4 1-4 1v5h31l9e-4 -5h1e-4z" fill="url(#e)"/><path d="m57 75-6e-4 4h27l1-1-1-1-13-3-5 0.5h-10z" fill="url(#d)"/><path d="m59 72 1-2 2-2 1-3 2-3-2 6-0.4 2-0.8 2c-0.3-0.2-0.7-0.2-1-0.3l-1 0.4z" fill="#333"/><path d="m74 72-4-5-3-4 0.9 3 1 2 1 4 0.9 0.3 1-0.3c0.6-0.06 1 0.01 2 0.02z" fill="#808080"/><path d="m63 73 1-3 0.6-3 0.8-2 0.5-2 0.7 2 0.2 2 2 4 0.2 1-1 0.4-1-0.5-1 1h-2v-9e-3z" fill="#666"/><path d="m76 73-2-1-1-1 1 2z" fill="#808080"/><path d="m78 72 0.6-2 0.8-2 0.5-2 0.7 2 0.9 2 0.6 2-0.09 2 0.9 0.9-2-0.1-4-0.8 0.5-1z" fill="#666"/><path d="m88 73-1-0.8-7-6 0.4 1 2 3 0.2 3 1 0.8 2-0.5 2-0.03z" fill="#808080"/><path d="m58 76-1 3h26v-1l-1-1-11-2-5 0.5-6 0.2z" fill="#0369a3"/><path d="m69 78 1-1h4l3 1 1 1h-2z" fill="#1c99e0" opacity=".5"/><path d="m89 65c-3 0-5-2-5-5h5z" fill="url(#c)" opacity=".7"/></g></svg>
