<svg width="66mm" height="66mm" version="1.1" viewBox="0 0 234 234" xmlns="http://www.w3.org/2000/svg"><rect y="-4.44e-16" width="234" height="234" fill="#2b90d9" stroke-width=".938"/><path d="m102 193c-8.46-0.808-20.4-3.35-25.3-5.38-16.8-6.99-26-22.5-29.2-49.2-1.1-9.19-1.4-16.8-1.42-35.4-0.0139-17.8 0.0246-19 0.765-22.9 2.33-12.4 7.56-21.9 15.5-28.3 4.81-3.85 9.69-5.82 19.2-7.73 22.3-4.5 56.2-4.02 76 1.07 8.14 2.09 12.2 4.27 17.2 9.32 6.14 6.12 10 13.7 12.3 23.9 0.784 3.57 0.825 4.43 0.819 17.7-7e-3 15.8-0.715 25.7-2.51 35.2-1.45 7.64-8.04 14.7-18.8 20-4.55 2.28-11.2 4.45-16.2 5.3-13.1 2.23-30.9 2.93-42.3 1.66-8.11-0.902-16.9-2.29-21-3.32l-0.889-0.223 0.25 3.08c0.487 6 2.23 10.4 5.42 13.5 5.06 5.01 12.2 6.82 26.9 6.86 8.65 0.0204 13.2-0.46 20.3-2.12 2.03-0.479 3.82-0.87 3.99-0.87 0.306 0 0.575 2.73 0.848 8.62l0.16 3.44-2.77 1.1c-5.88 2.32-12.9 3.91-20.7 4.68-4.22 0.42-14.1 0.409-18.6-0.0198zm-14.3-80.6c0-23.4 8e-3 -23.5 2.11-26.4 1.62-2.24 4.14-3.32 7.72-3.32 3.77 0 5.83 0.713 7.83 2.72 1.8 1.8 2.89 4.33 3.41 7.93 0.19 1.31 0.348 7.48 0.352 13.7l7e-3 11.3h16.1l6e-3 -12.1c6e-3 -12.8 0.262-15.5 1.81-18.4 1.79-3.48 4.22-4.94 8.52-5.14 1.72-0.0817 3.74 0.038 4.61 0.273 2.04 0.549 4.4 2.76 5.46 5.11l0.844 1.87 0.205 43.7h16.4l-9e-3 -20.4c-0.0118-26.1-0.223-28.3-3.26-34.5-1.14-2.34-2.1-3.66-4.19-5.75-4.4-4.41-9.39-6.39-16.1-6.38-9.41 0.0171-15.2 3.46-20.3 12.1l-2.17 3.68-2.25-3.86c-2.78-4.77-5.65-7.75-9.11-9.47-3.85-1.91-5.47-2.24-11.1-2.24-4.28 0-5.36 0.119-7.5 0.833-8.41 2.8-13.9 9.79-15.4 19.6-0.414 2.74-0.523 7.93-0.524 25l-2e-3 21.5h16.4z" fill="#fff" stroke-width=".937"/></svg>
