<svg width="15mm" height="15mm" version="1.1" viewBox="0 0 15 15" xmlns="http://www.w3.org/2000/svg"><defs><linearGradient id="paint0_linear" x1="52" x2="52" y1="55.3" y2="22.2" gradientTransform="matrix(.265 0 0 .265 -6.29 1.05)" gradientUnits="userSpaceOnUse"><stop stop-color="#FCC2B1" offset="0"/><stop stop-color="#D9420B" offset=".885"/></linearGradient><linearGradient id="paint1_linear" x1="52" x2="52" y1="41" y2="19.2" gradientTransform="matrix(.265 0 0 .265 -6.29 1.05)" gradientUnits="userSpaceOnUse"><stop stop-color="#DEEDC9" offset="0"/><stop stop-color="#8BBA25" offset=".661"/></linearGradient><linearGradient id="paint2_linear" x1="52" x2="52" y1="32.2" y2="2.55" gradientTransform="matrix(.265 0 0 .265 -6.29 1.05)" gradientUnits="userSpaceOnUse"><stop stop-color="#C2EBFA" offset="0"/><stop stop-color="#26A8DE" offset="1"/></linearGradient></defs><g clip-rule="evenodd" fill-rule="evenodd" stroke-width=".265"><path d="m6.68 13.4-5.22-2.4c-0.445-0.209-0.445-0.533 0-0.723l1.82-0.837 3.39 1.56c0.445 0.209 1.16 0.209 1.59 0l3.39-1.56 1.82 0.837c0.445 0.209 0.445 0.533 0 0.723l-5.22 2.4c-0.406 0.19-1.12 0.19-1.55 0z" fill="url(#paint0_linear)"/><path d="m6.68 10.5-5.22-2.4c-0.445-0.209-0.445-0.533 0-0.723l1.78-0.818 3.44 1.58c0.445 0.209 1.16 0.209 1.59 0l3.44-1.58 1.78 0.818c0.445 0.209 0.445 0.533 0 0.723l-5.22 2.4c-0.445 0.209-1.16 0.209-1.59 0z" fill="url(#paint1_linear)"/><path d="m6.68 7.59-5.22-2.4c-0.445-0.209-0.445-0.533 0-0.723l5.22-2.4c0.445-0.209 1.16-0.209 1.59 0l5.22 2.4c0.445 0.209 0.445 0.533 0 0.723l-5.22 2.4c-0.445 0.19-1.16 0.19-1.59 0z" fill="url(#paint2_linear)"/></g></svg>
