<svg version="1.1" viewBox="0 0 32 32" xmlns="http://www.w3.org/2000/svg"><title>file_type_outlook</title><g fill="#0072c6" stroke-width=".89"><path d="m19.1 8.83v4.87l1.7 1.07a0.435 0.435 0 0 0 0.187 0l7.33-4.94a1.04 1.04 0 0 0-0.853-1z"/><path d="m19.1 15.5 1.55 1.07a0.464 0.464 0 0 0 0.483 0c-0.267 0.161 7.18-4.78 7.18-4.78v8.95a1.25 1.25 0 0 1-1.33 1.38h-7.89v-6.62z"/><path d="m11.1 13.3a1.43 1.43 0 0 0-1.26 0.745 3.67 3.67 0 0 0-0.468 1.97 3.6 3.6 0 0 0 0.468 1.97 1.42 1.42 0 0 0 2.46 0.0196 3.57 3.57 0 0 0 0.458-1.96 3.89 3.89 0 0 0-0.445-2.03 1.37 1.37 0 0 0-1.22-0.72z"/><path d="m3.68 6.35v19.1l14.5 3.04v-24.9zm9.7 12.8a2.87 2.87 0 0 1-2.4 1.21 2.84 2.84 0 0 1-2.35-1.17 4.86 4.86 0 0 1-0.903-3.05 5.22 5.22 0 0 1 0.922-3.22 2.91 2.91 0 0 1 2.44-1.23 2.77 2.77 0 0 1 2.32 1.18 5.02 5.02 0 0 1 0.89 3.1 5.13 5.13 0 0 1-0.921 3.19z"/></g></svg>
