<svg enable-background="new 0 0 310.112 310.112" version="1.1" viewBox="0 0 310 310" xml:space="preserve" xmlns="http://www.w3.org/2000/svg">

	<path d="m106 310c-9 0-25 1-32-5-4-3-7-9-7-18v-267s0.6-21 19-21h132s23-0.2 23 21v268s-0.6 21-22 21h-114zm48-18c6 0 10-5 10-10 0-6-5-10-10-10-6 0-10 5-10 10 1e-3 6 5 10 10 10zm-38-272c-5 0-10 4-10 10 0 5 4 10 10 10s10-4 10-10-4-10-10-10zm71 0h-26c-9 0-16 4-16 10 0 5 7 10 16 10h26c9 0 16-4 16-10 0-5-7-10-16-10zm19 39h-103c-9 0-16 7-16 16v161c0 9 7 16 16 16h103c9 0 16-7 16-16v-161c-5e-3 -9-7-16-16-16z" fill="#fff"/>
















</svg>
