<svg width="50px" height="50px" version="1.1" viewBox="0 0 50 50" xmlns="http://www.w3.org/2000/svg" xmlns:xlink="http://www.w3.org/1999/xlink"><title>icon/color/svg/pixelfed-icon-color</title><desc>Created with Sketch.</desc><defs><rect id="path-1" y=".112" width="50" height="49.8"/><linearGradient id="linearGradient-3" x1="100%" x2="0%" y1="55.8%" y2="60.1%"><stop stop-color="#FF5C34" offset="0"/><stop stop-color="#EB0256" offset="1"/></linearGradient><linearGradient id="linearGradient-4" x1="33.1%" x2="69%" y1="100%" y2="15.3%"><stop stop-color="#A63FDB" offset="0"/><stop stop-color="#FF257E" offset="1"/></linearGradient><linearGradient id="linearGradient-5" x1="14.7%" x2="94.3%" y1="50%" y2="67.5%"><stop stop-color="#00FFF0" offset="0"/><stop stop-color="#0087FF" offset="1"/></linearGradient><linearGradient id="linearGradient-6" x1="81.2%" x2="20.8%" y1="10%" y2="74.5%"><stop stop-color="#17C934" offset="0"/><stop stop-color="#03FF6E" offset="1"/></linearGradient><linearGradient id="linearGradient-7" x1="50%" x2="30.6%" y1="112%"><stop stop-color="#FFB000" offset="0"/><stop stop-color="#FF7725" offset="1"/></linearGradient><path id="path-8" d="m25.9 24.7c-0.361-6.8-6.24-12-13.1-11.7-6.89 0.356-12.2 6.16-11.8 13l0.0104 0.195c-0.0296-0.492-0.0446-0.987-0.0446-1.49 0-10.2 6.21-18.9 15.1-22.7l0.523-0.209c6.39-2.55 13.7 0.5 16.3 6.81 2.58 6.31-0.506 13.5-6.9 16.1z"/><path id="path-9" d="m16.3 1.87 0.187-0.0746c6.39-2.55 13.7 0.5 16.3 6.81 2.58 6.31-0.506 13.5-6.9 16.1-0.0534-1.01-0.228-1.98-0.508-2.9 3.43-1.86 5.76-5.46 5.76-9.59 0-6.04-4.95-10.9-11.1-10.9-1.31 0-2.56 0.223-3.72 0.634z"/><linearGradient id="linearGradient-10" x1="-81.4%" x2="121%" y1="59.6%" y2="72.1%"><stop stop-color="#9EE85D" offset="0"/><stop stop-color="#0ED061" offset="1"/></linearGradient><path id="path-11" d="m28.4 9.27 0.187-0.0746c6.39-2.55 13.7 0.5 16.3 6.81 2.58 6.31-0.506 13.5-6.9 16.1-0.0534-1.01-0.228-1.98-0.508-2.9 3.43-1.86 5.76-5.46 5.76-9.59 0-6.04-4.95-10.9-11.1-10.9-1.31 0-2.56 0.223-3.72 0.634z"/><linearGradient id="linearGradient-12" x1="45.5%" x2="0%" y1="117%" y2="-4.04%"><stop stop-color="#21EFE3" offset="0"/><stop stop-color="#2598FF" offset="1"/></linearGradient><path id="path-13" d="m25.1 22.7 0.187-0.0746c6.39-2.55 13.7 0.5 16.3 6.81 2.58 6.31-0.506 13.5-6.9 16.1-0.0534-1.01-0.228-1.98-0.508-2.9 3.43-1.86 5.76-5.46 5.76-9.59 0-6.04-4.95-10.9-11.1-10.9-1.31 0-2.56 0.223-3.72 0.634z"/><linearGradient id="linearGradient-14" x1="100%" x2="-89.6%" y1="58.2%" y2="74.3%"><stop stop-color="#A63FDB" offset="0"/><stop stop-color="#FF257E" offset="1"/></linearGradient><path id="path-15" d="m10.7 23.8 0.187-0.0746c6.39-2.55 13.7 0.5 16.3 6.81 2.58 6.31-0.506 13.5-6.9 16.1-0.0534-1.01-0.228-1.98-0.508-2.9 3.43-1.86 5.76-5.46 5.76-9.59 0-6.04-4.95-10.9-11.1-10.9-1.31 0-2.56 0.223-3.72 0.634z"/><path id="path-16" d="m5.55 10.7 0.187-0.0746c6.39-2.55 13.7 0.5 16.3 6.81 2.58 6.31-0.506 13.5-6.9 16.1-0.0534-1.01-0.228-1.98-0.508-2.9 3.43-1.86 5.76-5.46 5.76-9.59 0-6.04-4.95-10.9-11.1-10.9-1.31 0-2.56 0.223-3.72 0.634z"/><path id="path-17" d="m35.6 42.4h4.54c4.28 0 7.75-3.36 7.75-7.51s-3.47-7.51-7.75-7.51h-6.56c-2.47 0-4.47 1.94-4.47 4.33v16.9l6.49-6.18z"/><filter id="filter-18" x="-.192" y="-.17" width="1.38" height="1.39"><feOffset dx="0" dy="1" in="SourceAlpha" result="shadowOffsetOuter1"/><feGaussianBlur in="shadowOffsetOuter1" result="shadowBlurOuter1" stdDeviation="1.5"/><feColorMatrix in="shadowBlurOuter1" values="0 0 0 0 0   0 0 0 0 0   0 0 0 0 0  0 0 0 0.298686594 0"/></filter></defs><g fill="none" fill-rule="evenodd"><g id="Group"><mask id="mask-2" fill="white"><use xlink:href="#path-1"/></mask><g mask="url(#mask-2)"><g transform="translate(-12.6 -12.1)"><g transform="translate(37.3 37.3) rotate(40) translate(-25.8 -25)" fill-rule="evenodd"><path id="Combined-Shape" d="m25.9 24.7c-6.69-1.65-13.5 2.37-15.1 8.98-1.67 6.61 2.4 13.3 9.09 14.9l0.506 0.125c-10.7-2.38-18.7-11.5-19.4-22.6l-0.0104-0.195c-0.361-6.8 4.93-12.6 11.8-13 6.89-0.356 12.8 4.87 13.1 11.7z" fill="url(#linearGradient-3)"/><path d="m25.9 24.7c-3.55 5.84-1.64 13.4 4.27 16.9s13.6 1.62 17.1-4.22l0.235-0.387c-4.32 7.38-12.4 12.3-21.6 12.3-1.9 0-3.75-0.21-5.53-0.608l-0.506-0.125c-6.69-1.65-10.8-8.34-9.09-14.9 1.67-6.61 8.44-10.6 15.1-8.98z" fill="url(#linearGradient-4)"/><path d="m25.9 24.7c4.43 5.22 12.3 5.9 17.6 1.52s5.97-12.2 1.54-17.4l-0.101-0.119c3.71 4.3 5.94 9.88 5.94 16 0 4.49-1.21 8.69-3.33 12.3l-0.235 0.387c-3.55 5.84-11.2 7.73-17.1 4.22s-7.82-11.1-4.27-16.9z" fill="url(#linearGradient-5)"/><path d="m25.9 24.7c6.39-2.55 9.48-9.74 6.9-16.1-2.58-6.31-9.86-9.37-16.3-6.81l-0.523 0.209c3.03-1.29 6.37-2 9.88-2 7.62 0 14.4 3.37 19 8.69l0.101 0.119c4.43 5.22 3.74 13-1.54 17.4s-13.2 3.7-17.6-1.52z" fill="url(#linearGradient-6)"/><g fill="url(#linearGradient-7)"><use xlink:href="#path-8"/><use fill-opacity=".1" style="mix-blend-mode:multiply" xlink:href="#path-8"/></g><g opacity=".505"><use fill="url(#linearGradient-7)" xlink:href="#path-9"/><use fill="#000000" fill-opacity=".496" style="mix-blend-mode:overlay" xlink:href="#path-9"/></g><g transform="translate(37.1 20.2) rotate(72) translate(-37.1 -20.2)" opacity=".544"><use fill="url(#linearGradient-10)" xlink:href="#path-11"/><use fill="#000000" fill-opacity=".5" style="mix-blend-mode:overlay" xlink:href="#path-11"/></g><g transform="translate(33.8 33.6) rotate(143) translate(-33.8 -33.6)" opacity=".562"><use fill="url(#linearGradient-12)" xlink:href="#path-13"/><use fill="#000000" style="mix-blend-mode:overlay" xlink:href="#path-13"/></g><g transform="translate(19.3 34.7) rotate(217) translate(-19.3 -34.7)" opacity=".584"><use fill="url(#linearGradient-14)" xlink:href="#path-15"/><use fill="#000000" fill-opacity=".503" style="mix-blend-mode:overlay" xlink:href="#path-15"/></g><g transform="translate(14.2 21.6) rotate(-71) translate(-14.2 -21.6)" opacity=".18"><use fill="url(#linearGradient-3)" xlink:href="#path-16"/><use fill="#000000" fill-opacity=".773" style="mix-blend-mode:multiply" xlink:href="#path-16"/></g></g><g fill-rule="nonzero"><use fill="black" filter="url(#filter-18)" xlink:href="#path-17"/><use fill="#FFFFFF" xlink:href="#path-17"/></g></g></g></g></g></svg>
