<svg width="112" height="112" fill="none" version="1.1" xmlns="http://www.w3.org/2000/svg"><g transform="translate(4 44.4)" clip-path="url(#a)" clip-rule="evenodd" fill-rule="evenodd"><path d="m0.468 20.8c0.252-0.362 0.667-0.597 1.22-0.687a148 148 0 0 1 47.4-0.073c0.432 0.073 0.703 0.2 0.847 0.344 0.126 0.127 0.18 0.29 0.144 0.525-0.036 0.199-0.126 0.326-0.27 0.398-0.18 0.09-0.469 0.127-0.901 0.072a145 145 0 0 0-46.7 1.84c-0.144 0.019-0.288 0.037-0.414 0.037h-0.125a1.58 1.58 0 0 1-0.81-0.254c-0.361-0.235-0.596-0.615-0.686-1.05-0.054-0.434 0.018-0.85 0.234-1.16z" fill="#6573ff"/><path d="m11.4 8.54c-0.469-0.363-1.06-0.688-1.8-0.978-0.72-0.29-1.58-0.524-2.58-0.742-0.847-0.199-1.51-0.38-2-0.578-0.486-0.181-0.828-0.398-1.04-0.634-0.217-0.235-0.307-0.524-0.307-0.868 0-0.633 0.27-1.12 0.811-1.48 0.54-0.361 1.26-0.542 2.16-0.542 0.81 0 1.58 0.126 2.36 0.398 0.774 0.271 1.51 0.687 2.23 1.23l1.12-2.52a5.43 5.43 0 0 0-1.53-0.977c-0.613-0.271-1.28-0.47-2-0.633a11.2 11.2 0 0 0-2.22-0.217c-1.26 0-2.36 0.217-3.31 0.651-0.936 0.434-1.68 1.03-2.22 1.77a4.35 4.35 0 0 0-0.793 2.53c0 0.651 0.108 1.23 0.306 1.74 0.217 0.506 0.54 0.94 0.991 1.3 0.45 0.38 1.04 0.706 1.76 0.977 0.72 0.29 1.6 0.525 2.63 0.742 0.81 0.181 1.48 0.362 1.96 0.543 0.487 0.18 0.847 0.38 1.06 0.633 0.216 0.235 0.342 0.525 0.342 0.868 0 0.58-0.27 1.03-0.81 1.36-0.54 0.326-1.32 0.489-2.32 0.489-0.937 0-1.82-0.127-2.67-0.398-0.846-0.272-1.66-0.688-2.45-1.23l-1.13 2.51c0.486 0.38 1.06 0.724 1.73 0.995a11.4 11.4 0 0 0 2.14 0.633c0.756 0.145 1.55 0.218 2.34 0.218 1.39 0 2.56-0.2 3.55-0.598 0.973-0.398 1.73-0.958 2.25-1.68s0.774-1.59 0.774-2.59c0-0.633-0.108-1.18-0.342-1.66-0.198-0.47-0.54-0.905-1.01-1.27zm6.3-7.51-0.018 6e-3v-6e-3zm-0.018 6e-3v3.74h2.88v2.53h-2.88v4.43c0 0.434 0.09 0.796 0.252 1.07 0.162 0.271 0.378 0.47 0.648 0.579 0.27 0.108 0.559 0.162 0.865 0.162 0.18 0 0.36-0.018 0.522-0.036 0.18-0.036 0.378-0.072 0.594-0.108v2.59c-0.306 0.126-0.63 0.217-0.936 0.253a6.02 6.02 0 0 1-1.01 0.072c-1.39 0-2.45-0.398-3.19-1.19s-1.1-1.92-1.1-3.33v-9.66l3.35-1.1zm11.5 4.14c0.504 0.326 0.883 0.724 1.15 1.21h0.018v-1.59h3.31v11.4h-3.31v-1.68c-0.27 0.488-0.649 0.904-1.15 1.21-0.702 0.434-1.51 0.651-2.41 0.651-0.991 0-1.86-0.253-2.61-0.723a4.78 4.78 0 0 1-1.76-2.04c-0.415-0.886-0.63-1.92-0.63-3.09 0-1.19 0.197-2.22 0.63-3.13 0.432-0.905 1.01-1.59 1.76-2.1 0.756-0.488 1.62-0.741 2.59-0.741 0.92 0 1.71 0.217 2.41 0.669zm-1.44 8.56c0.828 0 1.46-0.29 1.91-0.85s0.685-1.38 0.685-2.42c0-1.09-0.234-1.9-0.685-2.48-0.45-0.579-1.1-0.868-1.91-0.868-0.81 0-1.46 0.29-1.93 0.886-0.468 0.597-0.703 1.41-0.703 2.48 0 1.05 0.235 1.86 0.685 2.42 0.45 0.56 1.1 0.832 1.94 0.832zm20.8-12.7-0.018 6e-3v-6e-3zm-0.018 6e-3v3.74h2.88v2.53h-2.88v4.43c0 0.434 0.09 0.796 0.252 1.07 0.162 0.271 0.378 0.47 0.648 0.579 0.27 0.108 0.559 0.162 0.865 0.162 0.18 0 0.36-0.018 0.522-0.036 0.18-0.036 0.378-0.072 0.595-0.108v2.59c-0.307 0.126-0.63 0.217-0.937 0.253a6.02 6.02 0 0 1-1.01 0.072c-1.39 0-2.45-0.398-3.19-1.19s-1.1-1.92-1.1-3.33v-9.66zm11.5 3.47c0.972 0 1.84 0.235 2.59 0.741 0.757 0.507 1.33 1.19 1.76 2.08 0.432 0.905 0.649 1.96 0.649 3.13 0 1.18-0.217 2.21-0.649 3.09-0.432 0.887-1.01 1.57-1.76 2.04-0.756 0.488-1.62 0.723-2.59 0.723-0.918 0-1.73-0.217-2.41-0.651a3.22 3.22 0 0 1-1.12-1.19v6.69h-3.37v-13.1c0-0.543-0.018-1.09-0.036-1.63a16.6 16.6 0 0 0-0.144-1.63h3.17l0.216 1.94a3.24 3.24 0 0 1 1.28-1.56c0.684-0.452 1.5-0.67 2.41-0.67zm-0.955 9.23c0.828 0 1.46-0.271 1.91-0.832 0.45-0.56 0.666-1.38 0.684-2.46 0-1.05-0.234-1.88-0.684-2.48-0.45-0.579-1.1-0.886-1.91-0.886-0.846 0-1.49 0.29-1.94 0.868-0.45 0.579-0.666 1.41-0.666 2.48 0 1.07 0.216 1.9 0.666 2.46s1.1 0.85 1.95 0.85zm15.6-7.34a3.36 3.36 0 0 0-1.15-1.21c-0.702-0.452-1.5-0.67-2.41-0.67-0.973 0-1.84 0.254-2.59 0.742-0.757 0.507-1.33 1.19-1.76 2.1-0.433 0.905-0.63 1.94-0.63 3.13 0 1.18 0.215 2.21 0.63 3.09a4.78 4.78 0 0 0 1.76 2.04c0.756 0.47 1.62 0.723 2.61 0.723 0.9 0 1.71-0.217 2.41-0.65a3.22 3.22 0 0 0 1.15-1.21v1.68h3.31v-11.4h-3.33v1.59zm-0.667 6.5c-0.45 0.56-1.08 0.85-1.91 0.85-0.846 0-1.5-0.271-1.94-0.832-0.45-0.56-0.685-1.38-0.685-2.42 0-1.05 0.235-1.88 0.703-2.48s1.12-0.886 1.93-0.886 1.46 0.29 1.91 0.868c0.45 0.58 0.684 1.39 0.684 2.48-0.018 1.05-0.234 1.86-0.685 2.42zm13.1-7.69c0.504 0.326 0.9 0.724 1.17 1.21v-1.61h3.35v10.8c0 1.83-0.521 3.2-1.55 4.14-1.03 0.94-2.56 1.41-4.56 1.41-1.78 0-3.35-0.343-4.68-1.05l0.504-2.51a9.31 9.31 0 0 0 2.04 0.76 8.83 8.83 0 0 0 2.04 0.253c0.973 0 1.69-0.217 2.16-0.67 0.487-0.452 0.72-1.14 0.72-2.06v-1.99c-0.161 0.235-0.341 0.47-0.558 0.688-0.378 0.38-0.828 0.669-1.35 0.904a4.19 4.19 0 0 1-1.71 0.344c-0.99 0-1.86-0.235-2.61-0.706-0.757-0.47-1.35-1.12-1.78-1.97-0.432-0.85-0.648-1.84-0.648-2.98s0.216-2.12 0.648-2.97c0.433-0.832 1.03-1.5 1.78-1.97 0.756-0.488 1.64-0.723 2.61-0.723 0.919 0 1.73 0.235 2.43 0.687zm-1.46 8.05c0.81 0 1.46-0.27 1.93-0.813 0.469-0.543 0.703-1.3 0.72-2.26 0-0.94-0.215-1.7-0.684-2.24-0.468-0.56-1.12-0.832-1.94-0.832-0.829 0-1.5 0.271-1.96 0.814-0.487 0.543-0.72 1.28-0.72 2.24s0.233 1.72 0.72 2.26c0.486 0.56 1.14 0.832 1.94 0.832zm-45.1-7.94c-0.469 0.361-0.81 0.85-1.04 1.45l-0.234-1.97h-3.17c0.072 0.543 0.126 1.08 0.144 1.63s0.036 1.09 0.036 1.63v8.1h3.37v-5.93c0-0.56 0.108-1.05 0.324-1.46s0.523-0.724 0.919-0.959c0.396-0.217 0.9-0.344 1.5-0.344 0.36 0 0.72 0.055 1.08 0.163v-3.02a3.08 3.08 0 0 0-0.612-0.054c-0.864 0-1.64 0.253-2.3 0.778zm62.7 1.84c0.414 0.868 0.63 1.88 0.63 3.06l-0.036 1.12h-7.37c0.108 0.67 0.324 1.19 0.649 1.57 0.504 0.56 1.26 0.85 2.29 0.85 0.594 0 1.19-0.09 1.76-0.29a5.86 5.86 0 0 0 1.6-0.831l0.883 2.28c-0.541 0.433-1.21 0.76-2 1.01a8.15 8.15 0 0 1-2.38 0.362c-1.26 0-2.34-0.253-3.26-0.723-0.919-0.489-1.62-1.16-2.11-2.04-0.486-0.868-0.738-1.92-0.738-3.13 0-1.18 0.252-2.21 0.72-3.09a5.2 5.2 0 0 1 1.95-2.1c0.828-0.488 1.78-0.742 2.88-0.742 1.04 0 1.96 0.236 2.74 0.706a4.56 4.56 0 0 1 1.78 1.99zm-6.23 0.525c-0.252 0.362-0.432 0.796-0.54 1.36h4.5c-0.072-0.616-0.234-1.1-0.522-1.47-0.378-0.488-0.919-0.724-1.64-0.724-0.774 0-1.37 0.272-1.8 0.833z" fill="#202945"/></g><defs><clipPath id="a"><path d="m0 0h104v23.3h-104z" fill="#fff"/></clipPath></defs></svg>
