<svg width="62mm" height="62mm" version="1.1" viewBox="0 0 62 62" xmlns="http://www.w3.org/2000/svg"><g transform="matrix(.155 0 0 .972 -.1 -435)"><rect x=".406" y="448" width="401" height="63.2" ry="0" fill="#f24236" stroke="#f24236" stroke-linecap="round" stroke-linejoin="round" stroke-width=".812"/></g><g transform="matrix(.908 0 0 .908 -15.7 -1.29)"><g id="layer1_1_" transform="matrix(.893 0 0 .893 2.3 -879)"><path d="m86.5 1030c-1.42-4.15-9.52-18.3-12.7-23.2-3.18-5.23-6.88-7.42-12.4-7.31-4.49-0.138-30.1 1.01-38.8 2.48-1.9 0.322-1.5 2.87-0.216 2.95 2.3 0.142 10.8 0.465 14.6 0.823 2.36 0.222 4.59 1.35 6.2 4.53 1.62 3.18 5.51 12.9 6.93 16.6 0.809 2.1 0.981 4.36 0.142 5.83-0.627 1.09-2.56 2.17-5.48 1.66-2.45-0.432-18.6-3.95-20.2-4.32-2.03-0.465-2.7 3.3-0.539 4.05 2.97 1.03 16.6 5.77 27.7 8.81 5.64 1.55 8.81 0.772 13-0.047 5.28-1.03 12.7-2.54 17.1-3.78 4.4-1.21 5.96-5.37 4.53-9.09zm-24.2 8.66c-1.9 0-3.44-1.54-3.44-3.44s1.54-3.44 3.44-3.44 3.44 1.54 3.44 3.44-1.54 3.44-3.44 3.44zm12.7-14.9c-2.37 0.6-10.7 1.82-14 2.18-3.64 0.526-5.7-0.162-6.88-2.83-0.973-1.77-5-12.1-5.66-13.6-1.21-3.2 0.283-4.13 2.31-4.33 1.61-0.189 9.16-0.828 11.9-1.07 4.13-0.324 6.23 1.27 8.28 4.83 2.3 3.9 4.42 7.52 6.2 10.7 1.01 1.81 0.148 3.55-2.14 4.13zm5.54 11.1c-1.71 0-3.1-1.39-3.1-3.1s1.39-3.1 3.1-3.1 3.1 1.39 3.1 3.1-1.39 3.1-3.1 3.1z" fill="#fff"/></g></g></svg>
