<svg id="Logo" width="260" height="260" version="1.1" viewBox="0 0 260 260" xml:space="preserve" xmlns="http://www.w3.org/2000/svg">
<style type="text/css">
	.st0{fill:#1D9BF0;}
</style><g>
<rect x="-.0891" width="260" height="260" fill="#1d9bf0"/>
<path d="m90.5 471c-16.3-1.45-35.3-6.85-50.1-14.2-13.6-6.75-13.6-6.34 0.428-6.83 6.81-0.235 14.4-0.928 17.5-1.59 8.52-1.85 20-5.9 26.5-9.39 6.97-3.7 15.9-9.52 15.9-10.3 0-0.311-2.07-0.776-4.59-1.04-15.6-1.6-31.3-12.2-38.4-26.1-1.67-3.23-3.03-6.26-3.03-6.75 0-0.653 1.12-0.755 4.31-0.395 4.3 0.486 15.7-0.643 16.7-1.66 0.302-0.294-1.32-1.12-3.6-1.83-19.8-6.22-33.2-22.7-35.8-44.1l-0.444-3.76 3.44 1.49c4.76 2.06 13.5 4.24 17 4.24h2.93l-2.86-2.29c-17.9-14.3-24.3-37.1-16.2-58.1 2.57-6.73 1.98-6.86 11 2.29 8.87 9.02 15.1 14.2 24.4 20.2 13.9 9.03 27.8 15.1 43.8 19.1 8.05 2.03 27.1 4.87 27.8 4.15 0.155-0.155-0.064-2.68-0.487-5.6-1.33-9.25 0.781-20.5 5.61-29.7 3.78-7.27 13.8-17.1 21-20.7 8.53-4.25 16-5.81 25.5-5.34 12 0.589 20.8 4.01 30.1 11.7l4.68 3.86 5.62-1.46c6.61-1.72 17.3-5.85 21.6-8.36 3.77-2.19 3.89-1.44 0.715 4.62-3.4 6.51-8.54 12.7-13.7 16.5-2.47 1.81-4.59 3.55-4.7 3.85-0.484 1.3 16.2-2.35 23-5.04 2.01-0.792 3.79-1.3 3.96-1.13 0.944 0.944-11.3 14.4-18.7 20.4l-4.86 3.99v6.78c0 25-8.01 52.9-21.6 75.5-11.7 19.3-29.7 37.3-48.3 48.3-25.1 14.8-55.9 21.5-86.3 18.8z" fill-opacity="0"/><path d="m90.5 471c-16.3-1.45-35.3-6.85-50.1-14.2-13.6-6.75-13.6-6.34 0.428-6.83 6.81-0.235 14.4-0.928 17.5-1.59 8.52-1.85 20-5.9 26.5-9.39 6.97-3.7 15.9-9.52 15.9-10.3 0-0.311-2.07-0.776-4.59-1.04-15.6-1.6-31.3-12.2-38.4-26.1-1.67-3.23-3.03-6.26-3.03-6.75 0-0.653 1.12-0.755 4.31-0.395 4.3 0.486 15.7-0.643 16.7-1.66 0.302-0.294-1.32-1.12-3.6-1.83-19.8-6.22-33.2-22.7-35.8-44.1l-0.444-3.76 3.44 1.49c4.76 2.06 13.5 4.24 17 4.24h2.93l-2.86-2.29c-17.9-14.3-24.3-37.1-16.2-58.1 2.57-6.73 1.98-6.86 11 2.29 8.87 9.02 15.1 14.2 24.4 20.2 13.9 9.03 27.8 15.1 43.8 19.1 8.05 2.03 27.1 4.87 27.8 4.15 0.155-0.155-0.064-2.68-0.487-5.6-1.33-9.25 0.781-20.5 5.61-29.7 3.78-7.27 13.8-17.1 21-20.7 8.53-4.25 16-5.81 25.5-5.34 12 0.589 20.8 4.01 30.1 11.7l4.68 3.86 5.62-1.46c6.61-1.72 17.3-5.85 21.6-8.36 3.77-2.19 3.89-1.44 0.715 4.62-3.4 6.51-8.54 12.7-13.7 16.5-2.47 1.81-4.59 3.55-4.7 3.85-0.484 1.3 16.2-2.35 23-5.04 2.01-0.792 3.79-1.3 3.96-1.13 0.944 0.944-11.3 14.4-18.7 20.4l-4.86 3.99v6.78c0 25-8.01 52.9-21.6 75.5-11.7 19.3-29.7 37.3-48.3 48.3-25.1 14.8-55.9 21.5-86.3 18.8z" fill-opacity="0"/><path d="m84 206c-12.6-1.12-27.2-5.27-38.6-10.9-10.4-5.2-10.5-4.88 0.329-5.26 5.24-0.181 11.1-0.714 13.4-1.22 6.56-1.42 15.4-4.54 20.4-7.23 5.37-2.85 12.3-7.33 12.3-7.97 0-0.239-1.59-0.598-3.54-0.797-12-1.23-24.1-9.43-29.6-20.1-1.28-2.48-2.33-4.82-2.33-5.2 0-0.503 0.863-0.582 3.32-0.304 3.31 0.374 12.1-0.495 12.9-1.28 0.233-0.226-1.01-0.862-2.77-1.41-15.3-4.79-25.6-17.5-27.5-34l-0.342-2.9 2.65 1.15c3.67 1.58 10.4 3.26 13.1 3.26h2.25l-2.2-1.76c-13.8-11-18.7-28.6-12.5-44.8 1.98-5.19 1.53-5.28 8.45 1.76 6.83 6.95 11.6 10.9 18.8 15.6 10.7 6.96 21.4 11.6 33.7 14.7 6.2 1.56 20.9 3.75 21.4 3.19 0.119-0.119-0.0493-2.06-0.375-4.32-1.03-7.12 0.602-15.8 4.32-22.9 2.91-5.6 10.6-13.2 16.2-16 6.57-3.27 12.3-4.48 19.7-4.12 9.23 0.453 16 3.09 23.2 9.02l3.6 2.97 4.33-1.13c5.09-1.32 13.3-4.51 16.7-6.44 2.9-1.69 2.99-1.11 0.55 3.56-2.62 5.02-6.58 9.78-10.5 12.7-1.9 1.4-3.53 2.73-3.62 2.96-0.372 1 12.4-1.81 17.7-3.89 1.55-0.61 2.92-1 3.05-0.873 0.727 0.727-8.74 11.1-14.4 15.7l-3.74 3.07v5.22c0 19.2-6.17 40.8-16.6 58.1-8.98 14.9-22.9 28.8-37.2 37.2-19.4 11.4-43 16.6-66.5 14.5z" fill="#fff"/></g></svg>
