<svg enable-background="new 0 0 455.731 455.731" version="1.1" viewBox="0 0 456 456" xmlns="http://www.w3.org/2000/svg"><rect width="456" height="456" fill="#1BD741"/><g fill="#fff"><path d="m68 387 22-79c-14-24-22-52-22-81 0-88 71-159 159-159s159 71 159 159-71 159-159 159c-27 0-54-7-78-20l-82 21zm86-50 5 3c21 13 44 19 69 19 73 0 132-59 132-132s-59-132-132-132-132 59-132 132c0 25 7 50 21 71l3 5-13 46 47-12z"/><path d="m183 153-10-0.6c-3-0.2-6 0.9-9 3-5 4-13 13-15 24-4 16 2 36 17 56s42 52 90 66c16 4 28 1 37-5 7-5 13-12 15-21l2-8c0.5-2-0.7-5-3-6l-35-16c-2-1-5-0.4-6 2l-14 18c-1 1-3 2-4 1-9-3-41-16-58-50-0.7-1-0.6-3 0.5-4l13-15c1-2 2-4 0.9-6l-15-35c-0.8-2-3-3-5-3z"/></g></svg>
