<?xml version="1.0" encoding="UTF-8"?>
<svg xmlns="http://www.w3.org/2000/svg" xmlns:xlink="http://www.w3.org/1999/xlink" width="120" height="120" viewBox="0 0 120 120" version="1.1">
<g id="surface1">
<rect x="0" y="0" width="120" height="120" style="fill:rgb(23.529412%,66.666669%,20.784314%);fill-opacity:1;stroke:none;"/>
<path style=" stroke:none;fill-rule:nonzero;fill:rgb(100%,100%,100%);fill-opacity:1;" d="M 28.570312 62.855469 C 25.414062 62.855469 22.855469 60.296875 22.855469 57.144531 C 22.855469 53.988281 25.414062 51.429688 28.570312 51.429688 C 31.726562 51.429688 34.285156 53.988281 34.285156 57.144531 C 34.285156 60.296875 31.726562 62.855469 28.570312 62.855469 Z M 78.855469 60.570312 L 65.144531 74.285156 C 64.273438 75.269531 63.027344 75.832031 61.714844 75.832031 C 60.402344 75.832031 59.152344 75.269531 58.285156 74.285156 C 57.300781 73.417969 56.738281 72.167969 56.738281 70.855469 C 56.738281 69.542969 57.304688 68.296875 58.289062 67.429688 L 64.003906 61.714844 L 44.574219 61.714844 C 42.050781 61.714844 40.003906 59.667969 40.003906 57.144531 C 40.003906 54.617188 42.050781 52.570312 44.574219 52.570312 L 64.003906 52.570312 L 58.289062 46.855469 C 57.304688 45.988281 56.738281 44.742188 56.738281 43.429688 C 56.738281 42.117188 57.300781 40.867188 58.285156 40 C 59.152344 39.015625 60.402344 38.449219 61.714844 38.449219 C 63.023438 38.449219 64.273438 39.011719 65.144531 39.996094 L 78.855469 53.710938 C 79.839844 54.578125 80.40625 55.824219 80.40625 57.136719 C 80.40625 58.449219 79.84375 59.699219 78.859375 60.566406 Z M 92.570312 62.855469 C 89.414062 62.859375 86.855469 60.300781 86.855469 57.144531 C 86.851562 53.988281 89.410156 51.429688 92.566406 51.429688 C 95.722656 51.425781 98.28125 53.984375 98.285156 57.140625 C 98.285156 60.292969 95.730469 62.855469 92.574219 62.855469 Z M 92.570312 62.855469 "/>
</g>
</svg>
