<svg width="947px" height="947px" enable-background="new 0 0 947.383 947.383" version="1.1" viewBox="0 0 947 947" xml:space="preserve" xmlns="http://www.w3.org/2000/svg">
<g stroke="#000">
	<g stroke="#000">
		<g stroke="#000">
			<path d="m567 3-93 49-93-49c-18-9-38 7-33 27l51 169c25-8 50-12 75-12 25 0 50 4 74 11l51-169c6-19-15-36-33-27z"/>
			<path d="m783 723c0-231-80-515-311-515s-314 292-314 523c0 231 86 208 317 208 231 3e-3 309 15 309-216zm-275 50v41c0 13-11 24-24 24h-21c-13 0-24-11-24-24v-37c-29-4-63-14-91-33-10-7-13-21-7-32l21-33c7-11 21-14 31-7 25 15 45 22 66 22 31 0 43-10 43-34 0-49-158-56-158-163 0-62 35-105 94-118v-41c0-13 10-23 23-23h23c13 0 23 10 23 23v40c30 5 55 18 76 35 10 8 11 23 3 33l-23 27c-8 9-21 11-31 4-16-11-31-17-48-17-26 0-39 7-39 32 0 47 158 49 158 161-1e-3 60-31 106-96 121z"/>
		</g>
	</g>
</g>















</svg>
