<svg width="200" height="200" version="1.1" xmlns="http://www.w3.org/2000/svg" xmlns:xlink="http://www.w3.org/1999/xlink"><defs><radialGradient id="radialGradient4398" cx="113" cy="-12.89" r="59.662" gradientTransform="matrix(-4.3416e-8 1.9611 -1.9778 2.8494e-8 254.51 78.763)" gradientUnits="userSpaceOnUse"><stop stop-color="#fff" stop-opacity=".098039" offset="0"/><stop stop-color="#fff" stop-opacity="0" offset="1"/></radialGradient></defs><rect width="200" height="200"/><g transform="translate(-239 -258.6)"><g transform="matrix(2.6316 0 0 2.6316 275.84 -2346.5)"><g transform="matrix(-1 0 0 1 48 0)" fill-rule="evenodd"><path d="m2.5889 1006.9 4.25 5.5" fill="#8ab000" stroke="#769616" stroke-linecap="round" stroke-width="2.5"/><g shape-rendering="auto"><path d="m2.6113 1005.6c-0.45346 0.012-0.7617 0.189-0.98075 0.4486 2.0269 2.4089 2.3684 2.7916 5.1355 6.2214 1.0195 1.319 2.0816 0.6373 1.0621-0.6817l-4.25-5.5c-0.22899-0.3056-0.58508-0.478-0.9668-0.4883z" color="#000000" color-rendering="auto" fill="#fff" fill-opacity=".29804" image-rendering="auto" solid-color="#000000" style="isolation:auto;mix-blend-mode:normal;text-decoration-color:#000000;text-decoration-line:none;text-decoration-style:solid;text-indent:0;text-transform:none;white-space:normal"/><path d="m1.6221 1006.1c-0.12389 0.1479-0.56118 0.8046-0.02249 1.5562l4.25 5.5c1.0195 1.319 1.1499-0.6123 1.1499-0.6123s-3.7345-4.51-5.3774-6.4439z" color="#000000" color-rendering="auto" fill="#263238" fill-opacity=".2" image-rendering="auto" solid-color="#000000" style="isolation:auto;mix-blend-mode:normal;text-decoration-color:#000000;text-decoration-line:none;text-decoration-style:solid;text-indent:0;text-transform:none;white-space:normal"/><path d="m2.3379 1005.8c-0.43818 0-0.95986 0.1416-0.82422 0.7986 0.10356 0.5016 4.6608 6.0744 4.6608 6.0744 1.0195 1.319 2.4935 0.6763 1.4739-0.6425l-4.2344-5.4727c-0.26024-0.29-0.60852-0.7436-1.0762-0.7578z" color="#000000" color-rendering="auto" fill="#8ab000" image-rendering="auto" solid-color="#000000" style="isolation:auto;mix-blend-mode:normal;text-decoration-color:#000000;text-decoration-line:none;text-decoration-style:solid;text-indent:0;text-transform:none;white-space:normal"/></g></g><g fill-rule="evenodd"><path d="m2.5889 1006.9 4.25 5.5" fill="#8ab000" stroke="#769616" stroke-linecap="round" stroke-width="2.5"/><g shape-rendering="auto"><path d="m2.6113 1005.6c-0.45346 0.012-0.7617 0.189-0.98075 0.4486 2.0269 2.4089 2.3684 2.7916 5.1355 6.2214 1.0195 1.319 2.0816 0.6373 1.0621-0.6817l-4.25-5.5c-0.22899-0.3056-0.58508-0.478-0.9668-0.4883z" color="#000000" color-rendering="auto" fill="#fff" fill-opacity=".29804" image-rendering="auto" solid-color="#000000" style="isolation:auto;mix-blend-mode:normal;text-decoration-color:#000000;text-decoration-line:none;text-decoration-style:solid;text-indent:0;text-transform:none;white-space:normal"/><path d="m1.6221 1006.1c-0.12389 0.1479-0.56118 0.8046-0.02249 1.5562l4.25 5.5c1.0195 1.319 1.1499-0.6123 1.1499-0.6123s-3.7345-4.51-5.3774-6.4439z" color="#000000" color-rendering="auto" fill="#263238" fill-opacity=".2" image-rendering="auto" solid-color="#000000" style="isolation:auto;mix-blend-mode:normal;text-decoration-color:#000000;text-decoration-line:none;text-decoration-style:solid;text-indent:0;text-transform:none;white-space:normal"/><path d="m2.3379 1005.8c-0.43818 0-0.95986 0.1416-0.82422 0.7986 0.10356 0.5016 4.6608 6.0744 4.6608 6.0744 1.0195 1.319 2.4935 0.6763 1.4739-0.6425l-4.2344-5.4727c-0.26024-0.29-0.60852-0.7436-1.0762-0.7578z" color="#000000" color-rendering="auto" fill="#8ab000" image-rendering="auto" solid-color="#000000" style="isolation:auto;mix-blend-mode:normal;text-decoration-color:#000000;text-decoration-line:none;text-decoration-style:solid;text-indent:0;text-transform:none;white-space:normal"/></g></g><g transform="translate(42)"><rect x="-37" y="1010.4" width="38" height="12.92" rx="3" ry="3" fill="#aeea00"/><rect x="-37" y="1013.3" width="38" height="10" rx="3" ry="3" fill="#263238" fill-opacity=".2"/><rect x="-37" y="1010.4" width="38" height="10" rx="3" ry="3" fill="#fff" fill-opacity=".29804"/><rect x="-37" y="1011.5" width="38" height="10.641" rx="3" ry="2.4556" fill="#aeea00"/></g><g transform="translate(0 -.10259)"><rect x="5" y="1024.5" width="38" height="25.84" rx="3" ry="3" fill="#1976d2"/><rect x="5" y="1037.4" width="38" height="13" rx="3" ry="3" fill="#263238" fill-opacity=".2"/><rect x="5" y="1024.4" width="38" height="13" rx="3" ry="3" fill="#fff" fill-opacity=".2"/><rect x="5" y="1025.7" width="38" height="23.56" rx="3" ry="2.7185" fill="#1976d2"/></g><g transform="translate(0 1013.4)"><path d="m24 17.75c-2.8807 0-5.3198 1.9847-6.0332 4.6504h3.2129c0.55432-0.98535 1.5951-1.6504 2.8203-1.6504 1.8127 0 3.25 1.4373 3.25 3.25 0 1.8127-1.4373 3.25-3.25 3.25-1.3074 0-2.4113-0.75269-2.9297-1.8496h-3.1543c0.64225 2.7658 3.1319 4.8496 6.084 4.8496 3.434 0 6.25-2.816 6.25-6.25 0-3.434-2.816-6.25-6.25-6.25z" color="#000000" color-rendering="auto" fill="#0d47a1" image-rendering="auto" shape-rendering="auto" solid-color="#000000" style="isolation:auto;mix-blend-mode:normal;text-decoration-color:#000000;text-decoration-line:none;text-decoration-style:solid;text-indent:0;text-transform:none;white-space:normal"/><circle cx="24" cy="24" r="9.55" fill="none" stroke="#0d47a1" stroke-linecap="round" stroke-width="1.9"/></g><g transform="translate(0 .50002)"><ellipse cx="14.375" cy="1016.5" rx="3.375" ry="3.875" fill="#263238" fill-opacity=".2"/><circle cx="14.375" cy="1017" r="3.375" fill="#fff"/></g><g transform="translate(19.5 .50002)"><ellipse cx="14.375" cy="1016.5" rx="3.375" ry="3.875" fill="#263238" fill-opacity=".2"/><circle cx="14.375" cy="1017" r="3.375" fill="#fff"/></g></g><path d="m282.71 299.83a3.2898 3.2898 0 0 0-2.6621 5.3359l9.4746 12.262c-0.33497 0.87752-0.52734 1.8262-0.52734 2.8242v18.211c0 4.3737 3.5208 7.8945 7.8945 7.8945h84.211c4.3737 0 7.8945-3.5209 7.8945-7.8945v-18.211c0-0.99858-0.19005-1.9482-0.52539-2.8262l9.4727-12.26a3.2898 3.2898 0 0 0-2.4336-5.334 3.2898 3.2898 0 0 0-2.7715 1.3106l-9.0137 11.666c-0.82093-0.28771-1.7014-0.45117-2.623-0.45117h-84.211c-0.92137 0-1.8004 0.1636-2.6211 0.45117l-9.0156-11.666a3.2898 3.2898 0 0 0-2.543-1.3125zm14.18 49.527c-4.3737 0-7.8945 3.5208-7.8945 7.8945v52.211c0 4.3737 3.5208 7.8945 7.8945 7.8945h84.211c4.3737 0 7.8945-3.5208 7.8945-7.8945v-52.211c0-4.3737-3.5208-7.8945-7.8945-7.8945z" color="#000000" color-rendering="auto" fill="url(#radialGradient4398)" fill-rule="evenodd" image-rendering="auto" shape-rendering="auto" solid-color="#000000" style="isolation:auto;mix-blend-mode:normal;text-decoration-color:#000000;text-decoration-line:none;text-decoration-style:solid;text-indent:0;text-transform:none;white-space:normal"/></g></svg>
