<?xml version="1.0" encoding="UTF-8"?>
<svg xmlns="http://www.w3.org/2000/svg" xmlns:xlink="http://www.w3.org/1999/xlink" width="120" height="120" viewBox="0 0 120 120" version="1.1">
<g id="surface1">
<path style=" stroke:none;fill-rule:evenodd;fill:rgb(25.882354%,52.156866%,95.686275%);fill-opacity:1;" d="M 14.398438 99.601562 L 31.199219 99.601562 L 31.199219 58.800781 L 7.199219 40.800781 L 7.199219 92.398438 C 7.199219 96 10.800781 99.601562 14.398438 99.601562 "/>
<path style=" stroke:none;fill-rule:evenodd;fill:rgb(20.392157%,65.882355%,32.549021%);fill-opacity:1;" d="M 88.800781 99.601562 L 105.601562 99.601562 C 109.199219 99.601562 112.800781 96 112.800781 92.398438 L 112.800781 40.800781 L 88.800781 58.800781 "/>
<path style=" stroke:none;fill-rule:evenodd;fill:rgb(98.431373%,73.725492%,1.568628%);fill-opacity:1;" d="M 88.800781 27.601562 L 88.800781 58.800781 L 112.800781 40.800781 L 112.800781 31.199219 C 112.800781 22.800781 103.199219 16.800781 96 22.800781 "/>
<path style=" stroke:none;fill-rule:evenodd;fill:rgb(91.764706%,26.274511%,20.784314%);fill-opacity:1;" d="M 31.199219 58.800781 L 31.199219 27.601562 L 60 49.199219 L 88.800781 27.601562 L 88.800781 58.800781 L 60 80.398438 "/>
<path style=" stroke:none;fill-rule:evenodd;fill:rgb(77.254903%,13.333334%,12.156863%);fill-opacity:1;" d="M 7.199219 31.199219 L 7.199219 40.800781 L 31.199219 58.800781 L 31.199219 27.601562 L 24 22.800781 C 16.800781 18 7.199219 22.558594 7.199219 31.199219 "/>
<path style=" stroke:none;fill-rule:evenodd;fill:rgb(25.882354%,52.156866%,95.686275%);fill-opacity:1;" d="M 14.398438 99.601562 L 31.199219 99.601562 L 31.199219 58.800781 L 7.199219 40.800781 L 7.199219 92.398438 C 7.199219 96 10.800781 99.601562 14.398438 99.601562 "/>
<path style=" stroke:none;fill-rule:evenodd;fill:rgb(20.392157%,65.882355%,32.549021%);fill-opacity:1;" d="M 88.800781 99.601562 L 105.601562 99.601562 C 109.199219 99.601562 112.800781 96 112.800781 92.398438 L 112.800781 40.800781 L 88.800781 58.800781 "/>
<path style=" stroke:none;fill-rule:evenodd;fill:rgb(98.431373%,73.725492%,1.568628%);fill-opacity:1;" d="M 88.800781 27.601562 L 88.800781 58.800781 L 112.800781 40.800781 L 112.800781 31.199219 C 112.800781 22.800781 103.199219 16.800781 96 22.800781 "/>
<path style=" stroke:none;fill-rule:evenodd;fill:rgb(91.764706%,26.274511%,20.784314%);fill-opacity:1;" d="M 31.199219 58.800781 L 31.199219 27.601562 L 60 49.199219 L 88.800781 27.601562 L 88.800781 58.800781 L 60 80.398438 "/>
<path style=" stroke:none;fill-rule:evenodd;fill:rgb(77.254903%,13.333334%,12.156863%);fill-opacity:1;" d="M 7.199219 31.199219 L 7.199219 40.800781 L 31.199219 58.800781 L 31.199219 27.601562 L 24 22.800781 C 16.800781 18 7.199219 22.558594 7.199219 31.199219 "/>
</g>
</svg>
