<?xml version="1.0" encoding="UTF-8"?>
<svg xmlns="http://www.w3.org/2000/svg" xmlns:xlink="http://www.w3.org/1999/xlink" width="120" height="120" viewBox="0 0 120 120" version="1.1">
<g id="surface1">
<path style=" stroke:none;fill-rule:nonzero;fill:rgb(0%,40.000001%,85.490197%);fill-opacity:1;" d="M 18.292969 91.382812 L 22.628906 98.871094 C 23.53125 100.445312 24.824219 101.683594 26.347656 102.585938 L 41.886719 75.785156 L 10.917969 75.785156 C 10.917969 77.527344 11.367188 79.273438 12.269531 80.851562 Z M 18.292969 91.382812 "/>
<path style=" stroke:none;fill-rule:nonzero;fill:rgb(0%,67.450982%,27.843139%);fill-opacity:1;" d="M 59.960938 44.308594 L 44.421875 17.503906 C 42.902344 18.40625 41.605469 19.644531 40.703125 21.222656 L 12.101562 70.773438 C 11.214844 72.316406 10.75 74.0625 10.75 75.839844 L 41.71875 75.839844 Z M 59.960938 44.308594 "/>
<path style=" stroke:none;fill-rule:nonzero;fill:rgb(91.764706%,26.274511%,20.784314%);fill-opacity:1;" d="M 93.746094 102.640625 C 95.265625 101.742188 96.5625 100.503906 97.460938 98.925781 L 99.265625 95.828125 L 107.878906 80.964844 C 108.78125 79.386719 109.230469 77.640625 109.230469 75.894531 L 78.261719 75.894531 L 84.851562 88.847656 Z M 93.746094 102.640625 "/>
<path style=" stroke:none;fill-rule:nonzero;fill:rgb(0%,51.372552%,17.647059%);fill-opacity:1;" d="M 59.960938 44.308594 L 75.503906 17.503906 C 73.984375 16.605469 72.238281 16.152344 70.433594 16.152344 L 49.601562 16.152344 C 47.800781 16.152344 46.054688 16.660156 44.535156 17.503906 Z M 59.960938 44.308594 "/>
<path style=" stroke:none;fill-rule:nonzero;fill:rgb(14.901961%,51.764709%,98.823529%);fill-opacity:1;" d="M 78.207031 75.839844 L 41.832031 75.839844 L 26.289062 102.640625 C 27.808594 103.542969 29.554688 103.992188 31.359375 103.992188 L 88.566406 103.992188 C 90.367188 103.992188 92.113281 103.488281 93.632812 102.640625 Z M 78.207031 75.839844 "/>
<path style=" stroke:none;fill-rule:nonzero;fill:rgb(100%,72.941178%,0%);fill-opacity:1;" d="M 93.519531 45.996094 L 79.21875 21.222656 C 78.316406 19.644531 77.023438 18.40625 75.503906 17.503906 L 59.960938 44.308594 L 78.207031 75.839844 L 109.0625 75.839844 C 109.0625 74.09375 108.613281 72.347656 107.710938 70.773438 Z M 93.519531 45.996094 "/>
</g>
</svg>
