<svg aria-label="Google Maps" role="img" version="1.1" viewBox="0 0 512 512" xmlns="http://www.w3.org/2000/svg"><clipPath id="a"><path d="M375 136a133 133 0 00-79-66 136 136 0 00-40-6 133 133 0 00-103 48 133 133 0 00-31 86c0 38 13 64 13 64 15 32 42 61 61 86a399 399 0 0130 45 222 222 0 0117 42c3 10 6 13 13 13s11-5 13-13a228 228 0 0116-41 472 472 0 0145-63c5-6 32-39 45-64 0 0 15-29 15-68 0-37-15-63-15-63z"/></clipPath><g clip-path="url(#a)" stroke-width="130"><path d="m104 379 152-181" stroke="#fbbc04"/><path d="M256 198L378 53" stroke="#4285f4"/><path d="m189 459 243-290" stroke="#34a853"/><path d="m255 120-79-67" stroke="#1a73e8"/><path d="m76 232 91-109" stroke="#ea4335"/></g><circle cx="256" cy="198" r="51" fill="#fff"/></svg>
