<?xml version="1.0" encoding="UTF-8"?>
<svg xmlns="http://www.w3.org/2000/svg" xmlns:xlink="http://www.w3.org/1999/xlink" width="120" height="120" viewBox="0 0 120 120" version="1.1">
<g id="surface1">
<rect x="0" y="0" width="120" height="120" style="fill:rgb(12.941177%,11.372549%,15.686275%);fill-opacity:1;stroke:none;"/>
<path style=" stroke:none;fill-rule:nonzero;fill:rgb(100%,100%,100%);fill-opacity:1;" d="M 65.085938 64.757812 C 64.378906 64.769531 63.671875 64.878906 62.992188 65.078125 C 62.566406 65.222656 62.234375 65.5625 62.09375 65.992188 C 61.902344 66.707031 61.824219 67.449219 61.855469 68.191406 L 61.855469 87.972656 C 61.824219 88.710938 61.902344 89.453125 62.09375 90.167969 C 62.234375 90.597656 62.566406 90.9375 62.992188 91.085938 C 63.671875 91.285156 64.378906 91.394531 65.085938 91.40625 L 65.085938 92.199219 C 63.867188 92.121094 62.179688 92.082031 60.023438 92.078125 C 57.742188 92.078125 56.035156 92.117188 54.910156 92.199219 L 54.910156 91.402344 C 55.621094 91.390625 56.324219 91.28125 57.007812 91.082031 C 57.433594 90.9375 57.765625 90.597656 57.902344 90.164062 C 58.09375 89.449219 58.175781 88.710938 58.144531 87.96875 L 58.144531 68.1875 C 58.175781 67.445312 58.09375 66.707031 57.902344 65.992188 C 57.765625 65.558594 57.433594 65.21875 57.007812 65.074219 C 56.324219 64.875 55.621094 64.769531 54.910156 64.753906 L 54.910156 63.957031 C 56.027344 64.035156 57.730469 64.078125 60.023438 64.078125 C 62.152344 64.078125 63.839844 64.035156 65.085938 63.957031 Z M 65.085938 64.757812 "/>
<path style=" stroke:none;fill-rule:nonzero;fill:rgb(0%,83.92157%,57.254905%);fill-opacity:1;" d="M 49.925781 79.035156 C 38.054688 74.246094 31.242188 61.710938 33.683594 49.140625 C 36.125 36.574219 47.132812 27.5 59.933594 27.5 C 72.738281 27.5 83.742188 36.574219 86.183594 49.140625 C 88.625 61.710938 81.816406 74.246094 69.941406 79.035156 L 68.019531 74.285156 C 77.578125 70.414062 83.054688 60.316406 81.082031 50.191406 C 79.109375 40.070312 70.242188 32.765625 59.933594 32.765625 C 49.621094 32.765625 40.753906 40.070312 38.78125 50.191406 C 36.808594 60.316406 42.285156 70.414062 51.84375 74.285156 Z M 49.925781 79.035156 "/>
</g>
</svg>
