<svg width="2e3" height="2e3" version="1.1" viewBox="-50 -4 885 930" xmlns="http://www.w3.org/2000/svg"><path d="m772 589c-71 208-298 320-507 249-209-70-321-296-250-505 58-169 219-275 389-270l-55 64c-101 18-189 87-223 188-51 150 35 315 191 368 157 53 325-26 376-177 34-101 7-208-62-284l-4-84c138 100 201 281 144 450zm-278-109c-38 37-84 34-115 23-30-10-69-36-77-88s27-95 27-95l155-190s17-23 22-27c1-0.9 2-2 3-2l0.7-0.4 0.1-0.05c2-0.9 4-1 7-0.3 2 0.8 4 2 5 4l0.2 0.4 0.2 0.4c0.5 1 1 2 1 4 1 7 0.7 35 0.7 35l2 59 2 68 3 118s1 54-37 91z" fill="#1875f0"/></svg>
