<svg id="svg" width="400" height="400" version="1.1" viewBox="0 0 400 400" xmlns="http://www.w3.org/2000/svg"><g id="svgg" fill-rule="evenodd"><path d="m274 84.4c-7.66 1.07-19.8 7.05-21.1 10.4-0.247 0.644 51.2 52.4 52.1 52.4 2.08 0 8.06-10.5 9.78-17.1 6.38-24.7-15.5-49.2-40.7-45.7m-90.2 79.1c-30.3 30.3-55.3 55.4-55.5 55.8-0.275 0.492 5.3 6.27 25.8 26.8l26.2 26.2 55.6-55.6c30.6-30.6 55.6-55.8 55.6-56 0-0.479-50.7-51.3-51.8-51.9-0.66-0.365-7.57 6.4-55.9 54.7m-69.4 70.8c-0.193 0.385-0.741 2.14-1.22 3.9s-2.41 8.78-4.29 15.6c-3.93 14.2-4.2 15.2-6.8 24.8-2.26 8.32-2.52 9.3-3.56 13.2-0.589 2.2-1.34 4.99-1.67 6.2-0.329 1.21-0.84 3.1-1.14 4.19-0.618 2.28-0.467 2.78 0.737 2.42 0.808-0.244 2.43-0.682 9.76-2.64 1.7-0.455 3.64-0.982 4.3-1.17s2.55-0.703 4.2-1.14 4.04-1.08 5.3-1.43c1.26-0.347 3.24-0.889 4.4-1.2 1.16-0.315 3.36-0.921 4.9-1.35s4.6-1.26 6.8-1.85c3.94-1.06 10.2-2.79 21.2-5.83 3.08-0.853 6.36-1.75 7.3-1.99s1.7-0.657 1.7-0.925c0-0.504-50.8-51.5-51.3-51.5-0.157 0-0.443 0.315-0.635 0.7" fill="#fbfbfb"/><path d="m0 200v200h200 200v-200-200h-200-200v200m288-115c22.2 5.3 34.3 29.5 25.3 50.7-1.9 4.47-6.6 11.3-7.79 11.3-0.887 0-52.3-51.8-52.1-52.4 0.398-1.04 5.86-4.98 9.29-6.7 7.73-3.89 16.7-4.89 25.3-2.84m-21.5 49.5c14 14 25.5 25.7 25.5 25.9s-25 25.4-55.6 56l-55.6 55.6-26.2-26.2c-20.5-20.5-26.1-26.3-25.8-26.8 1.34-2.39 111-111 111-110 0.415 0.23 12.2 11.9 26.3 26m-125 124c14 14 25.5 25.7 25.5 26 0 0.268-0.765 0.684-1.7 0.925s-4.22 1.14-7.3 1.99c-11 3.04-17.3 4.77-21.2 5.83-2.2 0.594-5.26 1.43-6.8 1.85s-3.74 1.03-4.9 1.35c-1.16 0.314-3.14 0.856-4.4 1.2-1.26 0.348-3.65 0.99-5.3 1.43s-3.54 0.951-4.2 1.14-2.6 0.717-4.3 1.17c-7.33 1.96-8.95 2.4-9.76 2.64-1.2 0.364-1.36-0.133-0.737-2.42 0.297-1.1 0.808-2.98 1.14-4.19 0.328-1.21 1.08-4 1.67-6.2 1.04-3.9 1.31-4.88 3.56-13.2 2.59-9.56 2.87-10.6 6.8-24.8 1.88-6.82 3.81-13.8 4.29-15.6 0.931-3.43 1.4-4.6 1.85-4.6 0.157 0 11.8 11.5 25.8 25.5" fill="#0c96e1"/></g></svg>
