<svg version="1.1" viewBox="0 0 1000 1000" xmlns="http://www.w3.org/2000/svg"><linearGradient id="a" x1="502" x2="500" y1="5e-6" y2="1e3" gradientTransform="matrix(.9 0 0 .9 67 67)" gradientUnits="userSpaceOnUse"><stop stop-color="#ffa033" offset="0"/><stop stop-color="#f80" offset="1"/></linearGradient><path d="m585 858-74 70a17 17 0 0 1-23 0l-74-70c-180-39-315-199-315-391 0-221 179-400 400-400 221 0 400 179 400 400 0 192-135 352-315 391zm-85-619c-126 0-228 102-228 229s102 229 228 229c126 0 228-102 228-229 0-126-102-229-228-229z" fill="url(#a)" fill-rule="evenodd" stroke-width=".9"/></svg>
