<?xml version="1.0" encoding="UTF-8"?>
<svg xmlns="http://www.w3.org/2000/svg" xmlns:xlink="http://www.w3.org/1999/xlink" width="120" height="120" viewBox="0 0 120 120" version="1.1">
<g id="surface1">
<path style=" stroke:none;fill-rule:nonzero;fill:rgb(74.901962%,24.705882%,54.11765%);fill-opacity:1;" d="M 53.570312 57.355469 C 53.695312 58.222656 53.78125 59.101562 53.78125 60 C 53.78125 70.242188 45.402344 78.621094 35.164062 78.621094 L 18.617188 78.621094 C 8.378906 78.621094 0 70.242188 0 60 C 0 50.757812 6.832031 43.050781 15.691406 41.636719 C 15.691406 41.636719 15.695312 41.640625 15.695312 41.640625 C 15.695312 41.636719 15.691406 41.636719 15.691406 41.636719 C 16.648438 41.480469 17.621094 41.378906 18.617188 41.378906 L 35.164062 41.378906 C 44.503906 41.378906 52.273438 48.359375 53.570312 57.355469 Z M 53.570312 57.355469 "/>
<path style=" stroke:none;fill-rule:nonzero;fill:rgb(92.941177%,52.549022%,6.666667%);fill-opacity:1;" d="M 78.371094 15.671875 C 76.945312 6.820312 69.246094 0 60.011719 0 C 50.78125 0 43.082031 6.820312 41.65625 15.671875 C 42.449219 16.242188 43.214844 16.863281 43.925781 17.574219 L 55.625 29.277344 C 57.675781 31.328125 59.125 33.753906 60.011719 36.335938 C 61.375 40.285156 61.375 44.601562 60.011719 48.554688 C 59.402344 50.328125 58.515625 52.023438 57.355469 53.578125 C 58.226562 53.707031 59.109375 53.792969 60.011719 53.792969 C 60.917969 53.792969 61.800781 53.707031 62.671875 53.578125 C 64.59375 53.300781 66.417969 52.730469 68.105469 51.90625 C 71.863281 50.074219 74.914062 47.023438 76.742188 43.265625 C 77.9375 40.8125 78.628906 38.074219 78.628906 35.171875 L 78.628906 18.621094 C 78.628906 17.613281 78.527344 16.632812 78.371094 15.671875 Z M 78.371094 15.671875 "/>
<path style=" stroke:none;fill-rule:nonzero;fill:rgb(18.039216%,52.549022%,86.666667%);fill-opacity:1;" d="M 76.101562 102.425781 L 64.402344 90.722656 C 62.351562 88.671875 60.902344 86.246094 60.011719 83.664062 C 58.652344 79.714844 58.652344 75.398438 60.011719 71.445312 C 60.625 69.671875 61.511719 67.976562 62.671875 66.421875 C 61.800781 66.292969 60.917969 66.207031 60.011719 66.207031 C 59.109375 66.207031 58.226562 66.292969 57.355469 66.421875 C 55.433594 66.699219 53.609375 67.269531 51.921875 68.09375 C 48.164062 69.925781 45.113281 72.976562 43.285156 76.734375 C 42.085938 79.1875 41.398438 81.925781 41.398438 84.828125 L 41.398438 101.378906 C 41.398438 102.386719 41.5 103.367188 41.65625 104.328125 C 43.082031 113.179688 50.78125 120 60.011719 120 C 69.246094 120 76.945312 113.179688 78.371094 104.328125 C 77.578125 103.757812 76.8125 103.136719 76.101562 102.425781 Z M 76.101562 102.425781 "/>
<path style=" stroke:none;fill-rule:nonzero;fill:rgb(61.960787%,90.980393%,36.470589%);fill-opacity:1;" d="M 104.332031 41.640625 C 103.761719 42.433594 103.140625 43.195312 102.429688 43.910156 L 90.730469 55.613281 C 88.679688 57.664062 86.253906 59.113281 83.671875 60 C 79.722656 61.363281 75.40625 61.363281 71.457031 60 C 69.679688 59.386719 67.988281 58.503906 66.433594 57.34375 C 66.304688 58.214844 66.21875 59.097656 66.21875 60 C 66.21875 60.90625 66.304688 61.789062 66.433594 62.660156 C 66.710938 64.582031 67.28125 66.40625 68.105469 68.09375 C 69.9375 71.851562 72.988281 74.902344 76.742188 76.734375 C 79.195312 77.929688 81.933594 78.621094 84.835938 78.621094 L 101.382812 78.621094 C 102.390625 78.621094 103.371094 78.519531 104.332031 78.363281 C 113.179688 76.933594 120 69.238281 120 60 C 120 50.765625 113.179688 43.066406 104.332031 41.640625 Z M 104.332031 41.640625 "/>
<path style=" stroke:none;fill-rule:nonzero;fill:rgb(94.117647%,77.254903%,10.196079%);fill-opacity:1;" d="M 102.429688 17.574219 C 95.902344 11.042969 85.636719 10.421875 78.371094 15.671875 C 78.527344 16.632812 78.628906 17.613281 78.628906 18.621094 L 78.628906 35.171875 C 78.628906 38.074219 77.9375 40.8125 76.742188 43.265625 C 74.914062 47.023438 71.863281 50.074219 68.105469 51.90625 C 66.417969 52.730469 64.59375 53.300781 62.671875 53.578125 C 63.199219 54.285156 63.761719 54.972656 64.402344 55.609375 C 65.039062 56.25 65.726562 56.8125 66.433594 57.339844 C 67.988281 58.5 69.679688 59.386719 71.457031 60 C 75.40625 61.359375 79.722656 61.359375 83.671875 60 C 86.253906 59.109375 88.679688 57.660156 90.730469 55.609375 L 102.429688 43.90625 C 103.140625 43.195312 103.761719 42.429688 104.332031 41.636719 C 109.582031 34.371094 108.957031 24.105469 102.429688 17.574219 Z M 102.429688 17.574219 "/>
<path style=" stroke:none;fill-rule:nonzero;fill:rgb(28.627452%,72.156864%,37.254903%);fill-opacity:1;" d="M 104.332031 78.363281 C 103.371094 78.519531 102.390625 78.621094 101.382812 78.621094 L 84.835938 78.621094 C 81.933594 78.621094 79.195312 77.929688 76.742188 76.734375 C 72.988281 74.902344 69.9375 71.851562 68.105469 68.09375 C 67.28125 66.40625 66.710938 64.582031 66.433594 62.660156 C 65.726562 63.1875 65.039062 63.75 64.402344 64.390625 C 63.761719 65.027344 63.199219 65.714844 62.671875 66.421875 C 61.511719 67.976562 60.625 69.671875 60.011719 71.445312 C 58.652344 75.398438 58.652344 79.714844 60.011719 83.664062 C 60.902344 86.246094 62.351562 88.671875 64.402344 90.722656 L 76.101562 102.425781 C 76.8125 103.136719 77.578125 103.757812 78.371094 104.328125 C 85.636719 109.578125 95.902344 108.957031 102.429688 102.425781 C 108.957031 95.898438 109.582031 85.628906 104.332031 78.363281 Z M 104.332031 78.363281 "/>
<path style=" stroke:none;fill-rule:nonzero;fill:rgb(92.941177%,35.686275%,27.843139%);fill-opacity:1;" d="M 60.011719 36.335938 C 59.125 33.757812 57.675781 31.328125 55.625 29.28125 L 43.925781 17.574219 C 43.214844 16.863281 42.449219 16.242188 41.65625 15.671875 C 34.390625 10.421875 24.125 11.042969 17.597656 17.574219 C 11.070312 24.101562 10.449219 34.367188 15.691406 41.632812 C 16.648438 41.480469 17.621094 41.378906 18.617188 41.378906 L 35.164062 41.378906 C 44.503906 41.378906 52.273438 48.359375 53.570312 57.355469 C 53.578125 57.351562 53.585938 57.347656 53.59375 57.339844 C 54.300781 56.8125 54.988281 56.25 55.625 55.609375 C 56.265625 54.972656 56.828125 54.285156 57.355469 53.578125 C 58.515625 52.023438 59.402344 50.328125 60.011719 48.554688 C 61.375 44.601562 61.375 40.285156 60.011719 36.335938 Z M 60.011719 36.335938 "/>
<path style=" stroke:none;fill-rule:nonzero;fill:rgb(55.29412%,34.901962%,65.882355%);fill-opacity:1;" d="M 55.625 64.390625 C 54.988281 63.75 54.300781 63.1875 53.59375 62.660156 C 52.039062 61.5 50.34375 60.613281 48.570312 60 C 44.621094 58.640625 40.304688 58.640625 36.355469 60 C 33.773438 60.890625 31.347656 62.339844 29.296875 64.390625 L 17.597656 76.09375 C 16.886719 76.804688 16.265625 77.570312 15.695312 78.363281 C 10.449219 85.628906 11.070312 95.898438 17.597656 102.425781 C 24.125 108.957031 34.390625 109.578125 41.65625 104.328125 C 41.5 103.367188 41.398438 102.386719 41.398438 101.378906 L 41.398438 84.828125 C 41.398438 81.925781 42.085938 79.1875 43.285156 76.734375 C 45.113281 72.976562 48.164062 69.925781 51.921875 68.09375 C 53.609375 67.269531 55.433594 66.699219 57.355469 66.421875 C 56.828125 65.714844 56.265625 65.027344 55.625 64.390625 Z M 55.625 64.390625 "/>
<path style=" stroke:none;fill-rule:nonzero;fill:rgb(100%,100%,100%);fill-opacity:1;" d="M 56.371094 74.484375 L 66.882812 74.484375 C 76.78125 74.484375 84.808594 66.605469 84.808594 56.890625 C 84.808594 47.175781 76.78125 39.296875 66.882812 39.296875 L 51.710938 39.296875 C 46 39.296875 41.371094 43.839844 41.371094 49.445312 L 41.371094 88.953125 Z M 56.371094 74.484375 "/>
</g>
</svg>
