<svg width="144px" height="144px" clip-rule="evenodd" fill-rule="evenodd" version="1.1" viewBox="0 0 48 48" xmlns="http://www.w3.org/2000/svg"><linearGradient id="jFdG-76_seIEvf-hbjSsaa" x1="1688" x2="1685" y1="-883" y2="-881.4" gradientTransform="matrix(11.64 0 0 22.55 -19615 19905)" gradientUnits="userSpaceOnUse"><stop stop-color="#047ed6" offset="0"/><stop stop-color="#50e6ff" offset="1"/></linearGradient><path d="m7.809 4.608c-0.45 0.483-0.708 1.227-0.708 2.194v34.38c0 0.967 0.258 1.711 0.725 2.177l0.122 0.103 19.27-19.27v-0.433l-19.28-19.26-0.122 0.103z" clip-rule="evenodd" fill="url(#jFdG-76_seIEvf-hbjSsaa)" fill-rule="evenodd"/><linearGradient id="jFdG-76_seIEvf-hbjSsab" x1="1645" x2="1643" y1="-897.1" y2="-897.1" gradientTransform="matrix(9.145 0 0 7.7 -15002 6931)" gradientUnits="userSpaceOnUse"><stop stop-color="#ffda1c" offset="0"/><stop stop-color="#feb705" offset="1"/></linearGradient><path d="m33.62 30.65-6.426-6.428v-0.45l6.428-6.428 0.139 0.086 7.603 4.321c2.177 1.227 2.177 3.249 0 4.493l-7.603 4.321c-2e-3 -1e-3 -0.141 0.085-0.141 0.085z" clip-rule="evenodd" fill="url(#jFdG-76_seIEvf-hbjSsab)" fill-rule="evenodd"/><linearGradient id="jFdG-76_seIEvf-hbjSsac" x1="1723" x2="1721" y1="-889.4" y2="-886.4" gradientTransform="matrix(15.02 0 0 11.58 -25849 10325)" gradientUnits="userSpaceOnUse"><stop stop-color="#d9414f" offset="0"/><stop stop-color="#8c193f" offset="1"/></linearGradient><path d="m33.76 30.56-6.565-6.567-19.39 19.39c0.708 0.761 1.9 0.847 3.232 0.103l22.72-12.92" clip-rule="evenodd" fill="url(#jFdG-76_seIEvf-hbjSsac)" fill-rule="evenodd"/><linearGradient id="jFdG-76_seIEvf-hbjSsad" x1="1721" x2="1722" y1="-891.4" y2="-890" gradientTransform="matrix(15.02 0 0 11.57 -25849 10308)" gradientUnits="userSpaceOnUse"><stop stop-color="#33c481" offset="0"/><stop stop-color="#61e3a7" offset="1"/></linearGradient><path d="m33.76 17.43-22.72-12.91c-1.33-0.761-2.524-0.658-3.232 0.103l19.39 19.37 6.567-6.565z" clip-rule="evenodd" fill="url(#jFdG-76_seIEvf-hbjSsad)" fill-rule="evenodd"/></svg>
