<?xml version="1.0" encoding="UTF-8"?>
<svg xmlns="http://www.w3.org/2000/svg" xmlns:xlink="http://www.w3.org/1999/xlink" width="120" height="120" viewBox="0 0 120 120" version="1.1">
<g id="surface1">
<path style=" stroke:none;fill-rule:nonzero;fill:rgb(100%,72.156864%,1.568628%);fill-opacity:1;" d="M 120.050781 45.824219 L 78.589844 39.488281 L 60.050781 -0.00390625 L 41.515625 39.5 L 0.0546875 45.824219 L 30.054688 76.570312 L 22.976562 119.992188 L 60.050781 99.5 L 97.128906 119.992188 L 90.050781 76.570312 Z M 93.472656 114.683594 L 61.335938 96.917969 L 58.769531 96.917969 L 26.632812 114.683594 L 32.769531 77.0625 L 31.984375 74.496094 L 5.984375 47.851562 L 41.847656 42.371094 L 43.929688 40.789062 L 60.054688 6.546875 L 76.121094 40.777344 L 78.203125 42.355469 L 114.066406 47.839844 L 88.121094 74.496094 L 87.320312 77.0625 Z M 93.472656 114.683594 "/>
<path style=" stroke:none;fill-rule:nonzero;fill:rgb(100%,60.000002%,0%);fill-opacity:1;" d="M 41.898438 42.359375 L 5.980469 47.855469 L 31.980469 74.496094 L 32.765625 77.0625 L 26.628906 114.699219 L 58.765625 96.933594 L 60.050781 96.933594 L 60.050781 6.550781 L 43.980469 40.777344 Z M 41.898438 42.359375 "/>
</g>
</svg>
