<?xml version="1.0" encoding="UTF-8"?>
<svg xmlns="http://www.w3.org/2000/svg" xmlns:xlink="http://www.w3.org/1999/xlink" width="120" height="120" viewBox="0 0 120 120" version="1.1">
<defs>
<clipPath id="clip1">
  <path d="M 27.273438 24.546875 L 80 24.546875 L 80 52 L 27.273438 52 Z M 27.273438 24.546875 "/>
</clipPath>
<clipPath id="clip2">
  <path d="M 28 53 L 91.363281 53 L 91.363281 95.726562 L 28 95.726562 Z M 28 53 "/>
</clipPath>
</defs>
<g id="surface1">
<g clip-path="url(#clip1)" clip-rule="nonzero">
<path style=" stroke:none;fill-rule:nonzero;fill:rgb(40.000001%,46.666667%,98.431373%);fill-opacity:1;" d="M 38.863281 49.910156 C 39.160156 42.21875 45.601562 36 53.453125 36 C 61.023438 36 67.226562 41.699219 68.046875 49.035156 C 71.945312 49.09375 75.789062 49.152344 79.691406 49.328125 C 78.980469 35.558594 67.511719 24.511719 53.507812 24.511719 C 39.054688 24.511719 27.328125 36.199219 27.328125 50.558594 L 27.328125 51.085938 C 31.171875 50.617188 35.074219 50.261719 38.917969 49.96875 Z M 38.863281 49.910156 "/>
</g>
<g clip-path="url(#clip2)" clip-rule="nonzero">
<path style=" stroke:none;fill-rule:nonzero;fill:rgb(12.54902%,17.254902%,27.450982%);fill-opacity:1;" d="M 73.773438 66.816406 L 73.890625 66.640625 C 76.90625 62.878906 78.746094 58.542969 79.386719 53.835938 C 75.433594 53.835938 71.519531 53.835938 67.5625 53.957031 C 65.96875 60.296875 60.226562 64.933594 53.382812 64.933594 C 47.285156 64.933594 42.035156 61.167969 39.839844 55.890625 C 35.941406 56.300781 32.039062 56.832031 28.140625 57.417969 C 31.210938 68.394531 41.382812 76.375 53.367188 76.375 C 57.214844 76.375 60.992188 75.550781 64.480469 73.90625 L 64.660156 73.847656 L 64.777344 73.964844 L 81.003906 93.601562 C 82.128906 94.949219 83.71875 95.714844 85.503906 95.714844 C 86.863281 95.714844 88.164062 95.246094 89.171875 94.421875 C 90.355469 93.425781 91.121094 92.078125 91.246094 90.550781 C 91.363281 89.023438 90.949219 87.550781 89.945312 86.324219 L 73.71875 66.824219 Z M 73.773438 66.816406 "/>
</g>
</g>
</svg>
