<?xml version="1.0" encoding="UTF-8"?>
<svg xmlns="http://www.w3.org/2000/svg" xmlns:xlink="http://www.w3.org/1999/xlink" width="120" height="120" viewBox="0 0 120 120" version="1.1">
<g id="surface1">
<path style="fill-rule:nonzero;fill:rgb(94.901961%,25.882354%,21.176471%);fill-opacity:1;stroke-width:0.812;stroke-linecap:round;stroke-linejoin:round;stroke:rgb(94.901961%,25.882354%,21.176471%);stroke-opacity:1;stroke-miterlimit:4;" d="M 0.410786 448.000122 L 401.400367 448.000122 L 401.400367 511.200594 L 0.410786 511.200594 Z M 0.410786 448.000122 " transform="matrix(0.3,0,0,1.88129,-0.193548,-841.935484)"/>
<path style=" stroke:none;fill-rule:nonzero;fill:rgb(100%,100%,100%);fill-opacity:1;" d="M 109.40625 69.1875 C 107.175781 62.675781 94.464844 40.46875 89.476562 32.777344 C 84.484375 24.570312 78.675781 21.132812 70.015625 21.308594 C 62.96875 21.089844 22.777344 22.890625 9.121094 25.199219 C 6.140625 25.703125 6.769531 29.703125 8.785156 29.828125 C 12.394531 30.050781 25.734375 30.558594 31.695312 31.121094 C 35.402344 31.46875 38.898438 33.238281 41.425781 38.230469 C 43.96875 43.21875 50.074219 58.472656 52.300781 64.28125 C 53.574219 67.578125 53.84375 71.125 52.527344 73.429688 C 51.542969 75.140625 48.507812 76.835938 43.925781 76.035156 C 40.082031 75.359375 14.734375 69.835938 12.222656 69.253906 C 9.039062 68.527344 7.988281 74.433594 11.378906 75.613281 C 16.039062 77.226562 37.429688 84.667969 54.851562 89.4375 C 63.699219 91.871094 68.675781 90.648438 75.25 89.363281 C 83.539062 87.746094 95.183594 85.378906 102.089844 83.433594 C 108.992188 81.53125 111.441406 75.003906 109.195312 69.167969 Z M 71.425781 82.777344 C 68.445312 82.777344 66.027344 80.363281 66.027344 77.378906 C 66.027344 74.398438 68.445312 71.980469 71.425781 71.980469 C 74.410156 71.980469 76.824219 74.398438 76.824219 77.378906 C 76.824219 80.363281 74.410156 82.777344 71.425781 82.777344 Z M 91.359375 59.394531 C 87.640625 60.335938 74.566406 62.25 69.386719 62.816406 C 63.675781 63.640625 60.441406 62.5625 58.589844 58.375 C 57.0625 55.597656 50.742188 39.386719 49.707031 37.03125 C 47.808594 32.011719 50.152344 30.550781 53.332031 30.238281 C 55.859375 29.941406 67.707031 28.9375 72.007812 28.558594 C 78.488281 28.046875 81.785156 30.550781 85.003906 36.136719 C 88.613281 42.257812 91.9375 47.9375 94.730469 52.929688 C 96.316406 55.769531 94.964844 58.5 91.375 59.410156 Z M 100.050781 76.816406 C 97.367188 76.816406 95.1875 74.632812 95.1875 71.949219 C 95.1875 69.265625 97.367188 67.085938 100.050781 67.085938 C 102.734375 67.085938 104.917969 69.265625 104.917969 71.949219 C 104.917969 74.632812 102.734375 76.816406 100.050781 76.816406 Z M 100.050781 76.816406 "/>
</g>
</svg>
