<svg width="120pt" height="120pt" version="1.0" viewBox="0 0 120 120" xmlns="http://www.w3.org/2000/svg"><path transform="scale(.75)" d="m22.8 60v-6.55h50.5v13.1h-50.5z" fill="#0063ac"/><path transform="scale(.75)" d="m101 75.2v-8.69h-17.4v-13.1h17.4v-17.4h17.2v17.4h17.4v13.1h-17.4v17.4h-17.2z" fill="#0063ac"/><g fill="#5a5a5a"><path transform="scale(.75)" d="m57.1 123c-6.49-0.582-10.5-2.37-12.7-5.71-3.29-4.85-4.22-11.7-4.22-31.1l-9.1e-4 -11.2h15.8v9.76c0 15 0.782 19.8 3.7 22.5 0.801 0.757 2.11 1.56 2.91 1.78 1.66 0.461 7 0.504 10.8 0.0852l2.56-0.284-0.12 5.53c-0.137 6.31-0.496 7.24-3.16 8.14-1.82 0.612-10.7 0.875-15.4 0.455z"/><path transform="scale(.75)" d="m40.2 41.4v-5.21h15.7v10.4h-15.7z"/><path transform="scale(.75)" d="m122 123c-4.59-0.357-10.2-1.63-12.7-2.89-2.6-1.31-4.54-4.24-5.95-8.99-1.05-3.53-1.66-7.59-2.21-14.7-0.187-2.4-0.383-4.72-0.435-5.17l-0.096-0.812h17.6l0.094 5.17c0.0982 5.4 0.232 6.58 0.973 8.55 0.937 2.49 2.9 3.93 6.24 4.58 0.565 0.11 3.35 0.237 6.19 0.283l5.17 0.0839v12.9l-0.384 0.0859c-0.211 0.0472-2.14 0.279-4.28 0.516-3.65 0.403-7.5 0.52-10.2 0.31z"/></g></svg>
